<?xml version="1.0" encoding="UTF-8"?>
<svg id="Layer_1" data-name="Layer 1" xmlns="http://www.w3.org/2000/svg" xmlns:xlink="http://www.w3.org/1999/xlink" viewBox="0 0 1080 1920">
  <defs>
    <style>
      .cls-1 {
        clip-path: url(#clippath-6);
      }

      .cls-2 {
        clip-path: url(#clippath-7);
      }

      .cls-3 {
        fill: #fdd600;
      }

      .cls-4 {
        clip-path: url(#clippath-4);
      }

      .cls-5 {
        fill: none;
      }

      .cls-6 {
        fill: #1c4d3c;
      }

      .cls-7 {
        clip-path: url(#clippath-1);
      }

      .cls-8 {
        clip-path: url(#clippath-5);
      }

      .cls-9 {
        clip-path: url(#clippath-3);
      }

      .cls-10 {
        clip-path: url(#clippath-2);
      }

      .cls-11 {
        clip-path: url(#clippath);
      }
    </style>
    <clipPath id="clippath">
      <polygon class="cls-5" points="65.99 84.31 65.99 65.99 34.01 34.01 34.01 84.31 65.99 84.31"/>
    </clipPath>
    <clipPath id="clippath-1">
      <polygon class="cls-5" points="84.31 65.99 65.99 65.99 34.01 34.01 84.31 34.01 84.31 65.99"/>
    </clipPath>
    <clipPath id="clippath-2">
      <polygon class="cls-5" points="995.69 65.99 1014.01 65.99 1045.99 34.01 995.69 34.01 995.69 65.99"/>
    </clipPath>
    <clipPath id="clippath-3">
      <polygon class="cls-5" points="1014.01 84.31 1014.01 65.99 1045.99 34.01 1045.99 84.31 1014.01 84.31"/>
    </clipPath>
    <clipPath id="clippath-4">
      <polygon class="cls-5" points="1014.01 1835.69 1014.01 1854.01 1045.99 1885.99 1045.99 1835.69 1014.01 1835.69"/>
    </clipPath>
    <clipPath id="clippath-5">
      <polygon class="cls-5" points="995.69 1854.01 1014.01 1854.01 1045.99 1885.99 995.69 1885.99 995.69 1854.01"/>
    </clipPath>
    <clipPath id="clippath-6">
      <polygon class="cls-5" points="84.31 1854.01 65.99 1854.01 34.01 1885.99 84.31 1885.99 84.31 1854.01"/>
    </clipPath>
    <clipPath id="clippath-7">
      <polygon class="cls-5" points="65.99 1835.69 65.99 1854.01 34.01 1885.99 34.01 1835.69 65.99 1835.69"/>
    </clipPath>
  </defs>
  <path class="cls-6" d="M1055.17,25.91H26.38v40.84h0v1794.87h0v33.35h1028.78V75.94h.01V25.91ZM1005.21,1845.03H76.32V75.94h928.89v1769.08Z"/>
  <g>
    <g>
      <rect class="cls-3" x="34.01" y="1803.17" width="4.43" height="27.13"/>
      <rect class="cls-3" x="34.01" y="1789.85" width="4.43" height="4.35"/>
      <rect class="cls-3" x="34.01" y="1762.94" width="4.43" height="22.29"/>
      <path class="cls-3" d="M43.15,1762.94h13.57v8.97h9.14v36.1h.14v4.35h-13.84v8.97h-4.43v-13.32h13.71v-4.84h-18.28v-13.32h13.57v8.97h4.7v-13.59h-18.28v-4.35h9.14v-4.62h-9.14v-13.32ZM52.29,1798.82v-4.62h-4.71v4.62h4.71ZM56.72,1776.26v4.62h4.7v-4.62h-4.7ZM47.58,1767.29v4.62h4.71v-4.62h-4.71Z"/>
      <polygon class="cls-3" points="61.42 1816.98 65.86 1816.98 65.86 1830.3 43.15 1830.3 43.15 1825.95 52.29 1825.95 52.29 1821.46 56.72 1821.46 56.72 1825.95 61.42 1825.95 61.42 1816.98"/>
      <rect class="cls-3" x="61.42" y="1762.94" width="4.43" height="4.35"/>
    </g>
    <g>
      <rect class="cls-3" x="34.01" y="1730.42" width="4.43" height="27.13"/>
      <rect class="cls-3" x="34.01" y="1717.1" width="4.43" height="4.35"/>
      <rect class="cls-3" x="34.01" y="1690.19" width="4.43" height="22.29"/>
      <path class="cls-3" d="M43.15,1690.19h13.57v8.97h9.14v36.1h.14v4.35h-13.84v8.97h-4.43v-13.32h13.71v-4.84h-18.28v-13.32h13.57v8.97h4.7v-13.59h-18.28v-4.35h9.14v-4.62h-9.14v-13.32ZM52.29,1726.07v-4.62h-4.71v4.62h4.71ZM56.72,1703.51v4.62h4.7v-4.62h-4.7ZM47.58,1694.54v4.62h4.71v-4.62h-4.71Z"/>
      <polygon class="cls-3" points="61.42 1744.23 65.86 1744.23 65.86 1757.55 43.15 1757.55 43.15 1753.2 52.29 1753.2 52.29 1748.71 56.72 1748.71 56.72 1753.2 61.42 1753.2 61.42 1744.23"/>
      <rect class="cls-3" x="61.42" y="1690.19" width="4.43" height="4.35"/>
    </g>
    <g>
      <rect class="cls-3" x="34.01" y="1657.67" width="4.43" height="27.13"/>
      <rect class="cls-3" x="34.01" y="1644.35" width="4.43" height="4.35"/>
      <rect class="cls-3" x="34.01" y="1617.44" width="4.43" height="22.29"/>
      <path class="cls-3" d="M43.15,1617.44h13.57v8.97h9.14v36.1h.14v4.35h-13.84v8.97h-4.43v-13.32h13.71v-4.84h-18.28v-13.32h13.57v8.97h4.7v-13.59h-18.28v-4.35h9.14v-4.62h-9.14v-13.32ZM52.29,1653.32v-4.62h-4.71v4.62h4.71ZM56.72,1630.76v4.62h4.7v-4.62h-4.7ZM47.58,1621.79v4.62h4.71v-4.62h-4.71Z"/>
      <polygon class="cls-3" points="61.42 1671.48 65.86 1671.48 65.86 1684.8 43.15 1684.8 43.15 1680.45 52.29 1680.45 52.29 1675.96 56.72 1675.96 56.72 1680.45 61.42 1680.45 61.42 1671.48"/>
      <rect class="cls-3" x="61.42" y="1617.44" width="4.43" height="4.35"/>
    </g>
    <g>
      <rect class="cls-3" x="34.01" y="1584.92" width="4.43" height="27.13"/>
      <rect class="cls-3" x="34.01" y="1571.6" width="4.43" height="4.35"/>
      <rect class="cls-3" x="34.01" y="1544.69" width="4.43" height="22.29"/>
      <path class="cls-3" d="M43.15,1544.69h13.57v8.97h9.14v36.1h.14v4.35h-13.84v8.97h-4.43v-13.32h13.71v-4.84h-18.28v-13.32h13.57v8.97h4.7v-13.59h-18.28v-4.35h9.14v-4.62h-9.14v-13.32ZM52.29,1580.57v-4.62h-4.71v4.62h4.71ZM56.72,1558.01v4.62h4.7v-4.62h-4.7ZM47.58,1549.04v4.62h4.71v-4.62h-4.71Z"/>
      <polygon class="cls-3" points="61.42 1598.73 65.86 1598.73 65.86 1612.05 43.15 1612.05 43.15 1607.7 52.29 1607.7 52.29 1603.21 56.72 1603.21 56.72 1607.7 61.42 1607.7 61.42 1598.73"/>
      <rect class="cls-3" x="61.42" y="1544.69" width="4.43" height="4.35"/>
    </g>
    <g>
      <rect class="cls-3" x="34.01" y="1512.17" width="4.43" height="27.13"/>
      <rect class="cls-3" x="34.01" y="1498.85" width="4.43" height="4.35"/>
      <rect class="cls-3" x="34.01" y="1471.94" width="4.43" height="22.29"/>
      <path class="cls-3" d="M43.15,1471.94h13.57v8.97h9.14v36.1h.14v4.35h-13.84v8.97h-4.43v-13.32h13.71v-4.84h-18.28v-13.32h13.57v8.97h4.7v-13.59h-18.28v-4.35h9.14v-4.62h-9.14v-13.32ZM52.29,1507.82v-4.62h-4.71v4.62h4.71ZM56.72,1485.26v4.62h4.7v-4.62h-4.7ZM47.58,1476.29v4.62h4.71v-4.62h-4.71Z"/>
      <polygon class="cls-3" points="61.42 1525.98 65.86 1525.98 65.86 1539.3 43.15 1539.3 43.15 1534.95 52.29 1534.95 52.29 1530.46 56.72 1530.46 56.72 1534.95 61.42 1534.95 61.42 1525.98"/>
      <rect class="cls-3" x="61.42" y="1471.94" width="4.43" height="4.35"/>
    </g>
    <g>
      <rect class="cls-3" x="34.01" y="1439.42" width="4.43" height="27.13"/>
      <rect class="cls-3" x="34.01" y="1426.1" width="4.43" height="4.35"/>
      <rect class="cls-3" x="34.01" y="1399.19" width="4.43" height="22.29"/>
      <path class="cls-3" d="M43.15,1399.19h13.57v8.97h9.14v36.1h.14v4.35h-13.84v8.97h-4.43v-13.32h13.71v-4.84h-18.28v-13.32h13.57v8.97h4.7v-13.59h-18.28v-4.35h9.14v-4.62h-9.14v-13.32ZM52.29,1435.07v-4.62h-4.71v4.62h4.71ZM56.72,1412.51v4.62h4.7v-4.62h-4.7ZM47.58,1403.54v4.62h4.71v-4.62h-4.71Z"/>
      <polygon class="cls-3" points="61.42 1453.23 65.86 1453.23 65.86 1466.55 43.15 1466.55 43.15 1462.2 52.29 1462.2 52.29 1457.71 56.72 1457.71 56.72 1462.2 61.42 1462.2 61.42 1453.23"/>
      <rect class="cls-3" x="61.42" y="1399.19" width="4.43" height="4.35"/>
    </g>
    <g>
      <rect class="cls-3" x="34.01" y="1366.67" width="4.43" height="27.13"/>
      <rect class="cls-3" x="34.01" y="1353.35" width="4.43" height="4.35"/>
      <rect class="cls-3" x="34.01" y="1326.44" width="4.43" height="22.29"/>
      <path class="cls-3" d="M43.15,1326.44h13.57v8.97h9.14v36.1h.14v4.35h-13.84v8.97h-4.43v-13.32h13.71v-4.84h-18.28v-13.32h13.57v8.97h4.7v-13.59h-18.28v-4.35h9.14v-4.62h-9.14v-13.32ZM52.29,1362.32v-4.62h-4.71v4.62h4.71ZM56.72,1339.76v4.62h4.7v-4.62h-4.7ZM47.58,1330.79v4.62h4.71v-4.62h-4.71Z"/>
      <polygon class="cls-3" points="61.42 1380.48 65.86 1380.48 65.86 1393.8 43.15 1393.8 43.15 1389.45 52.29 1389.45 52.29 1384.96 56.72 1384.96 56.72 1389.45 61.42 1389.45 61.42 1380.48"/>
      <rect class="cls-3" x="61.42" y="1326.44" width="4.43" height="4.35"/>
    </g>
    <g>
      <rect class="cls-3" x="34.01" y="1293.92" width="4.43" height="27.13"/>
      <rect class="cls-3" x="34.01" y="1280.6" width="4.43" height="4.35"/>
      <rect class="cls-3" x="34.01" y="1253.69" width="4.43" height="22.29"/>
      <path class="cls-3" d="M43.15,1253.69h13.57v8.97h9.14v36.1h.14v4.35h-13.84v8.97h-4.43v-13.32h13.71v-4.84h-18.28v-13.32h13.57v8.97h4.7v-13.59h-18.28v-4.35h9.14v-4.62h-9.14v-13.32ZM52.29,1289.57v-4.62h-4.71v4.62h4.71ZM56.72,1267.01v4.62h4.7v-4.62h-4.7ZM47.58,1258.04v4.62h4.71v-4.62h-4.71Z"/>
      <polygon class="cls-3" points="61.42 1307.73 65.86 1307.73 65.86 1321.05 43.15 1321.05 43.15 1316.7 52.29 1316.7 52.29 1312.22 56.72 1312.22 56.72 1316.7 61.42 1316.7 61.42 1307.73"/>
      <rect class="cls-3" x="61.42" y="1253.69" width="4.43" height="4.35"/>
    </g>
    <g>
      <rect class="cls-3" x="34.01" y="1221.17" width="4.43" height="27.13"/>
      <rect class="cls-3" x="34.01" y="1207.85" width="4.43" height="4.35"/>
      <rect class="cls-3" x="34.01" y="1180.94" width="4.43" height="22.29"/>
      <path class="cls-3" d="M43.15,1180.94h13.57v8.97h9.14v36.1h.14v4.35h-13.84v8.97h-4.43v-13.32h13.71v-4.84h-18.28v-13.32h13.57v8.97h4.7v-13.59h-18.28v-4.35h9.14v-4.62h-9.14v-13.32ZM52.29,1216.82v-4.62h-4.71v4.62h4.71ZM56.72,1194.26v4.62h4.7v-4.62h-4.7ZM47.58,1185.29v4.62h4.71v-4.62h-4.71Z"/>
      <polygon class="cls-3" points="61.42 1234.98 65.86 1234.98 65.86 1248.3 43.15 1248.3 43.15 1243.95 52.29 1243.95 52.29 1239.47 56.72 1239.47 56.72 1243.95 61.42 1243.95 61.42 1234.98"/>
      <rect class="cls-3" x="61.42" y="1180.94" width="4.43" height="4.35"/>
    </g>
    <g>
      <rect class="cls-3" x="34.01" y="1148.42" width="4.43" height="27.13"/>
      <rect class="cls-3" x="34.01" y="1135.1" width="4.43" height="4.35"/>
      <rect class="cls-3" x="34.01" y="1108.19" width="4.43" height="22.29"/>
      <path class="cls-3" d="M43.15,1108.19h13.57v8.97h9.14v36.1h.14v4.35h-13.84v8.97h-4.43v-13.32h13.71v-4.84h-18.28v-13.32h13.57v8.97h4.7v-13.59h-18.28v-4.35h9.14v-4.62h-9.14v-13.32ZM52.29,1144.07v-4.62h-4.71v4.62h4.71ZM56.72,1121.51v4.62h4.7v-4.62h-4.7ZM47.58,1112.54v4.62h4.71v-4.62h-4.71Z"/>
      <polygon class="cls-3" points="61.42 1162.23 65.86 1162.23 65.86 1175.55 43.15 1175.55 43.15 1171.2 52.29 1171.2 52.29 1166.72 56.72 1166.72 56.72 1171.2 61.42 1171.2 61.42 1162.23"/>
      <rect class="cls-3" x="61.42" y="1108.19" width="4.43" height="4.35"/>
    </g>
    <g>
      <rect class="cls-3" x="34.01" y="1075.67" width="4.43" height="27.13"/>
      <rect class="cls-3" x="34.01" y="1062.35" width="4.43" height="4.35"/>
      <rect class="cls-3" x="34.01" y="1035.44" width="4.43" height="22.29"/>
      <path class="cls-3" d="M43.15,1035.44h13.57v8.97h9.14v36.1h.14v4.35h-13.84v8.97h-4.43v-13.32h13.71v-4.84h-18.28v-13.32h13.57v8.97h4.7v-13.59h-18.28v-4.35h9.14v-4.62h-9.14v-13.32ZM52.29,1071.32v-4.62h-4.71v4.62h4.71ZM56.72,1048.76v4.62h4.7v-4.62h-4.7ZM47.58,1039.8v4.62h4.71v-4.62h-4.71Z"/>
      <polygon class="cls-3" points="61.42 1089.48 65.86 1089.48 65.86 1102.8 43.15 1102.8 43.15 1098.45 52.29 1098.45 52.29 1093.97 56.72 1093.97 56.72 1098.45 61.42 1098.45 61.42 1089.48"/>
      <rect class="cls-3" x="61.42" y="1035.44" width="4.43" height="4.35"/>
    </g>
    <g>
      <rect class="cls-3" x="34.01" y="1002.92" width="4.43" height="27.13"/>
      <rect class="cls-3" x="34.01" y="989.6" width="4.43" height="4.35"/>
      <rect class="cls-3" x="34.01" y="962.69" width="4.43" height="22.29"/>
      <path class="cls-3" d="M43.15,962.69h13.57v8.97h9.14v36.1h.14v4.35h-13.84v8.97h-4.43v-13.32h13.71v-4.84h-18.28v-13.32h13.57v8.97h4.7v-13.59h-18.28v-4.35h9.14v-4.62h-9.14v-13.32ZM52.29,998.57v-4.62h-4.71v4.62h4.71ZM56.72,976.02v4.62h4.7v-4.62h-4.7ZM47.58,967.05v4.62h4.71v-4.62h-4.71Z"/>
      <polygon class="cls-3" points="61.42 1016.73 65.86 1016.73 65.86 1030.06 43.15 1030.06 43.15 1025.7 52.29 1025.7 52.29 1021.22 56.72 1021.22 56.72 1025.7 61.42 1025.7 61.42 1016.73"/>
      <rect class="cls-3" x="61.42" y="962.69" width="4.43" height="4.35"/>
    </g>
    <g>
      <rect class="cls-3" x="34.01" y="930.17" width="4.43" height="27.13"/>
      <rect class="cls-3" x="34.01" y="916.85" width="4.43" height="4.35"/>
      <rect class="cls-3" x="34.01" y="889.95" width="4.43" height="22.29"/>
      <path class="cls-3" d="M43.15,889.95h13.57v8.97h9.14v36.1h.14v4.35h-13.84v8.97h-4.43v-13.32h13.71v-4.84h-18.28v-13.32h13.57v8.97h4.7v-13.59h-18.28v-4.35h9.14v-4.62h-9.14v-13.32ZM52.29,925.82v-4.62h-4.71v4.62h4.71ZM56.72,903.27v4.62h4.7v-4.62h-4.7ZM47.58,894.3v4.62h4.71v-4.62h-4.71Z"/>
      <polygon class="cls-3" points="61.42 943.98 65.86 943.98 65.86 957.31 43.15 957.31 43.15 952.95 52.29 952.95 52.29 948.47 56.72 948.47 56.72 952.95 61.42 952.95 61.42 943.98"/>
      <rect class="cls-3" x="61.42" y="889.95" width="4.43" height="4.35"/>
    </g>
    <g>
      <rect class="cls-3" x="34.01" y="857.43" width="4.43" height="27.13"/>
      <rect class="cls-3" x="34.01" y="844.1" width="4.43" height="4.35"/>
      <rect class="cls-3" x="34.01" y="817.2" width="4.43" height="22.29"/>
      <path class="cls-3" d="M43.15,817.2h13.57v8.97h9.14v36.1h.14v4.35h-13.84v8.97h-4.43v-13.32h13.71v-4.84h-18.28v-13.32h13.57v8.97h4.7v-13.59h-18.28v-4.35h9.14v-4.62h-9.14v-13.32ZM52.29,853.07v-4.62h-4.71v4.62h4.71ZM56.72,830.52v4.62h4.7v-4.62h-4.7ZM47.58,821.55v4.62h4.71v-4.62h-4.71Z"/>
      <polygon class="cls-3" points="61.42 871.23 65.86 871.23 65.86 884.56 43.15 884.56 43.15 880.2 52.29 880.2 52.29 875.72 56.72 875.72 56.72 880.2 61.42 880.2 61.42 871.23"/>
      <rect class="cls-3" x="61.42" y="817.2" width="4.43" height="4.35"/>
    </g>
    <g>
      <rect class="cls-3" x="34.01" y="784.68" width="4.43" height="27.13"/>
      <rect class="cls-3" x="34.01" y="771.36" width="4.43" height="4.35"/>
      <rect class="cls-3" x="34.01" y="744.45" width="4.43" height="22.29"/>
      <path class="cls-3" d="M43.15,744.45h13.57v8.97h9.14v36.1h.14v4.35h-13.84v8.97h-4.43v-13.32h13.71v-4.84h-18.28v-13.32h13.57v8.97h4.7v-13.59h-18.28v-4.35h9.14v-4.62h-9.14v-13.32ZM52.29,780.32v-4.62h-4.71v4.62h4.71ZM56.72,757.77v4.62h4.7v-4.62h-4.7ZM47.58,748.8v4.62h4.71v-4.62h-4.71Z"/>
      <polygon class="cls-3" points="61.42 798.49 65.86 798.49 65.86 811.81 43.15 811.81 43.15 807.45 52.29 807.45 52.29 802.97 56.72 802.97 56.72 807.45 61.42 807.45 61.42 798.49"/>
      <rect class="cls-3" x="61.42" y="744.45" width="4.43" height="4.35"/>
    </g>
    <g>
      <rect class="cls-3" x="34.01" y="711.93" width="4.43" height="27.13"/>
      <rect class="cls-3" x="34.01" y="698.61" width="4.43" height="4.35"/>
      <rect class="cls-3" x="34.01" y="671.7" width="4.43" height="22.29"/>
      <path class="cls-3" d="M43.15,671.7h13.57v8.97h9.14v36.1h.14v4.35h-13.84v8.97h-4.43v-13.32h13.71v-4.84h-18.28v-13.32h13.57v8.97h4.7v-13.59h-18.28v-4.35h9.14v-4.62h-9.14v-13.32ZM52.29,707.58v-4.62h-4.71v4.62h4.71ZM56.72,685.02v4.62h4.7v-4.62h-4.7ZM47.58,676.05v4.62h4.71v-4.62h-4.71Z"/>
      <polygon class="cls-3" points="61.42 725.74 65.86 725.74 65.86 739.06 43.15 739.06 43.15 734.7 52.29 734.7 52.29 730.22 56.72 730.22 56.72 734.7 61.42 734.7 61.42 725.74"/>
      <rect class="cls-3" x="61.42" y="671.7" width="4.43" height="4.35"/>
    </g>
    <g>
      <rect class="cls-3" x="34.01" y="639.18" width="4.43" height="27.13"/>
      <rect class="cls-3" x="34.01" y="625.86" width="4.43" height="4.35"/>
      <rect class="cls-3" x="34.01" y="598.95" width="4.43" height="22.29"/>
      <path class="cls-3" d="M43.15,598.95h13.57v8.97h9.14v36.1h.14v4.35h-13.84v8.97h-4.43v-13.32h13.71v-4.84h-18.28v-13.32h13.57v8.97h4.7v-13.59h-18.28v-4.35h9.14v-4.62h-9.14v-13.32ZM52.29,634.83v-4.62h-4.71v4.62h4.71ZM56.72,612.27v4.62h4.7v-4.62h-4.7ZM47.58,603.3v4.62h4.71v-4.62h-4.71Z"/>
      <polygon class="cls-3" points="61.42 652.99 65.86 652.99 65.86 666.31 43.15 666.31 43.15 661.96 52.29 661.96 52.29 657.47 56.72 657.47 56.72 661.96 61.42 661.96 61.42 652.99"/>
      <rect class="cls-3" x="61.42" y="598.95" width="4.43" height="4.35"/>
    </g>
    <g>
      <rect class="cls-3" x="34.01" y="566.43" width="4.43" height="27.13"/>
      <rect class="cls-3" x="34.01" y="553.11" width="4.43" height="4.35"/>
      <rect class="cls-3" x="34.01" y="526.2" width="4.43" height="22.29"/>
      <path class="cls-3" d="M43.15,526.2h13.57v8.97h9.14v36.1h.14v4.35h-13.84v8.97h-4.43v-13.32h13.71v-4.84h-18.28v-13.32h13.57v8.97h4.7v-13.59h-18.28v-4.35h9.14v-4.62h-9.14v-13.32ZM52.29,562.08v-4.62h-4.71v4.62h4.71ZM56.72,539.52v4.62h4.7v-4.62h-4.7ZM47.58,530.55v4.62h4.71v-4.62h-4.71Z"/>
      <polygon class="cls-3" points="61.42 580.24 65.86 580.24 65.86 593.56 43.15 593.56 43.15 589.21 52.29 589.21 52.29 584.72 56.72 584.72 56.72 589.21 61.42 589.21 61.42 580.24"/>
      <rect class="cls-3" x="61.42" y="526.2" width="4.43" height="4.35"/>
    </g>
    <g>
      <rect class="cls-3" x="34.01" y="493.68" width="4.43" height="27.13"/>
      <rect class="cls-3" x="34.01" y="480.36" width="4.43" height="4.35"/>
      <rect class="cls-3" x="34.01" y="453.45" width="4.43" height="22.29"/>
      <path class="cls-3" d="M43.15,453.45h13.57v8.97h9.14v36.1h.14v4.35h-13.84v8.97h-4.43v-13.32h13.71v-4.84h-18.28v-13.32h13.57v8.97h4.7v-13.59h-18.28v-4.35h9.14v-4.62h-9.14v-13.32ZM52.29,489.33v-4.62h-4.71v4.62h4.71ZM56.72,466.77v4.62h4.7v-4.62h-4.7ZM47.58,457.8v4.62h4.71v-4.62h-4.71Z"/>
      <polygon class="cls-3" points="61.42 507.49 65.86 507.49 65.86 520.81 43.15 520.81 43.15 516.46 52.29 516.46 52.29 511.97 56.72 511.97 56.72 516.46 61.42 516.46 61.42 507.49"/>
      <rect class="cls-3" x="61.42" y="453.45" width="4.43" height="4.35"/>
    </g>
    <g>
      <rect class="cls-3" x="34.01" y="420.93" width="4.43" height="27.13"/>
      <rect class="cls-3" x="34.01" y="407.61" width="4.43" height="4.35"/>
      <rect class="cls-3" x="34.01" y="380.7" width="4.43" height="22.29"/>
      <path class="cls-3" d="M43.15,380.7h13.57v8.97h9.14v36.1h.14v4.35h-13.84v8.97h-4.43v-13.32h13.71v-4.84h-18.28v-13.32h13.57v8.97h4.7v-13.59h-18.28v-4.35h9.14v-4.62h-9.14v-13.32ZM52.29,416.58v-4.62h-4.71v4.62h4.71ZM56.72,394.02v4.62h4.7v-4.62h-4.7ZM47.58,385.05v4.62h4.71v-4.62h-4.71Z"/>
      <polygon class="cls-3" points="61.42 434.74 65.86 434.74 65.86 448.06 43.15 448.06 43.15 443.71 52.29 443.71 52.29 439.22 56.72 439.22 56.72 443.71 61.42 443.71 61.42 434.74"/>
      <rect class="cls-3" x="61.42" y="380.7" width="4.43" height="4.35"/>
    </g>
    <g>
      <rect class="cls-3" x="34.01" y="348.18" width="4.43" height="27.13"/>
      <rect class="cls-3" x="34.01" y="334.86" width="4.43" height="4.35"/>
      <rect class="cls-3" x="34.01" y="307.95" width="4.43" height="22.29"/>
      <path class="cls-3" d="M43.15,307.95h13.57v8.97h9.14v36.1h.14v4.35h-13.84v8.97h-4.43v-13.32h13.71v-4.84h-18.28v-13.32h13.57v8.97h4.7v-13.59h-18.28v-4.35h9.14v-4.62h-9.14v-13.32ZM52.29,343.83v-4.62h-4.71v4.62h4.71ZM56.72,321.27v4.62h4.7v-4.62h-4.7ZM47.58,312.3v4.62h4.71v-4.62h-4.71Z"/>
      <polygon class="cls-3" points="61.42 361.99 65.86 361.99 65.86 375.31 43.15 375.31 43.15 370.96 52.29 370.96 52.29 366.47 56.72 366.47 56.72 370.96 61.42 370.96 61.42 361.99"/>
      <rect class="cls-3" x="61.42" y="307.95" width="4.43" height="4.35"/>
    </g>
    <g>
      <rect class="cls-3" x="34.01" y="275.43" width="4.43" height="27.13"/>
      <rect class="cls-3" x="34.01" y="262.11" width="4.43" height="4.35"/>
      <rect class="cls-3" x="34.01" y="235.2" width="4.43" height="22.29"/>
      <path class="cls-3" d="M43.15,235.2h13.57v8.97h9.14v36.1h.14v4.35h-13.84v8.97h-4.43v-13.32h13.71v-4.84h-18.28v-13.32h13.57v8.97h4.7v-13.59h-18.28v-4.35h9.14v-4.62h-9.14v-13.32ZM52.29,271.08v-4.62h-4.71v4.62h4.71ZM56.72,248.52v4.62h4.7v-4.62h-4.7ZM47.58,239.55v4.62h4.71v-4.62h-4.71Z"/>
      <polygon class="cls-3" points="61.42 289.24 65.86 289.24 65.86 302.56 43.15 302.56 43.15 298.21 52.29 298.21 52.29 293.72 56.72 293.72 56.72 298.21 61.42 298.21 61.42 289.24"/>
      <rect class="cls-3" x="61.42" y="235.2" width="4.43" height="4.35"/>
    </g>
    <g>
      <rect class="cls-3" x="34.01" y="202.68" width="4.43" height="27.13"/>
      <rect class="cls-3" x="34.01" y="189.36" width="4.43" height="4.35"/>
      <rect class="cls-3" x="34.01" y="162.45" width="4.43" height="22.29"/>
      <path class="cls-3" d="M43.15,162.45h13.57v8.97h9.14v36.1h.14v4.35h-13.84v8.97h-4.43v-13.32h13.71v-4.84h-18.28v-13.32h13.57v8.97h4.7v-13.59h-18.28v-4.35h9.14v-4.62h-9.14v-13.32ZM52.29,198.33v-4.62h-4.71v4.62h4.71ZM56.72,175.77v4.62h4.7v-4.62h-4.7ZM47.58,166.8v4.62h4.71v-4.62h-4.71Z"/>
      <polygon class="cls-3" points="61.42 216.49 65.86 216.49 65.86 229.81 43.15 229.81 43.15 225.46 52.29 225.46 52.29 220.97 56.72 220.97 56.72 225.46 61.42 225.46 61.42 216.49"/>
      <rect class="cls-3" x="61.42" y="162.45" width="4.43" height="4.35"/>
    </g>
    <g>
      <rect class="cls-3" x="34.01" y="129.93" width="4.43" height="27.13"/>
      <rect class="cls-3" x="34.01" y="116.61" width="4.43" height="4.35"/>
      <rect class="cls-3" x="34.01" y="89.7" width="4.43" height="22.29"/>
      <path class="cls-3" d="M43.15,89.7h13.57v8.97h9.14v36.1h.14v4.35h-13.84v8.97h-4.43v-13.32h13.71v-4.84h-18.28v-13.32h13.57v8.97h4.7v-13.59h-18.28v-4.35h9.14v-4.62h-9.14v-13.32ZM52.29,125.58v-4.62h-4.71v4.62h4.71ZM56.72,103.02v4.62h4.7v-4.62h-4.7ZM47.58,94.05v4.62h4.71v-4.62h-4.71Z"/>
      <polygon class="cls-3" points="61.42 143.74 65.86 143.74 65.86 157.06 43.15 157.06 43.15 152.71 52.29 152.71 52.29 148.23 56.72 148.23 56.72 152.71 61.42 152.71 61.42 143.74"/>
      <rect class="cls-3" x="61.42" y="89.7" width="4.43" height="4.35"/>
    </g>
    <g>
      <rect class="cls-3" x="89.91" y="34.01" width="28.15" height="4.43"/>
      <rect class="cls-3" x="127.36" y="34.01" width="4.52" height="4.43"/>
      <rect class="cls-3" x="136.67" y="34.01" width="23.13" height="4.43"/>
      <path class="cls-3" d="M159.8,43.15v13.57h-9.31v9.14h-37.46v.14h-4.51v-13.84h-9.31v-4.43h13.82v13.71h5.02v-18.28h13.82v13.57h-9.31v4.7h14.1v-18.28h4.52v9.14h4.79v-9.14h13.82ZM122.57,52.29h4.79v-4.71h-4.79v4.71ZM145.97,56.72h-4.79v4.7h4.79v-4.7ZM155.28,47.58h-4.79v4.71h4.79v-4.71Z"/>
      <polygon class="cls-3" points="103.73 61.42 103.73 65.86 89.91 65.86 89.91 43.15 94.42 43.15 94.42 52.29 99.07 52.29 99.07 56.72 94.42 56.72 94.42 61.42 103.73 61.42"/>
      <rect class="cls-3" x="155.28" y="61.42" width="4.51" height="4.43"/>
    </g>
    <g>
      <rect class="cls-3" x="165.39" y="34.01" width="28.15" height="4.43"/>
      <rect class="cls-3" x="202.84" y="34.01" width="4.52" height="4.43"/>
      <rect class="cls-3" x="212.15" y="34.01" width="23.13" height="4.43"/>
      <path class="cls-3" d="M235.28,43.15v13.57h-9.31v9.14h-37.46v.14h-4.51v-13.84h-9.31v-4.43h13.82v13.71h5.02v-18.28h13.82v13.57h-9.31v4.7h14.1v-18.28h4.52v9.14h4.79v-9.14h13.82ZM198.05,52.29h4.79v-4.71h-4.79v4.71ZM221.46,56.72h-4.79v4.7h4.79v-4.7ZM230.76,47.58h-4.79v4.71h4.79v-4.71Z"/>
      <polygon class="cls-3" points="179.21 61.42 179.21 65.86 165.39 65.86 165.39 43.15 169.9 43.15 169.9 52.29 174.56 52.29 174.56 56.72 169.9 56.72 169.9 61.42 179.21 61.42"/>
      <rect class="cls-3" x="230.76" y="61.42" width="4.51" height="4.43"/>
    </g>
    <g>
      <rect class="cls-3" x="240.87" y="34.01" width="28.15" height="4.43"/>
      <rect class="cls-3" x="278.32" y="34.01" width="4.52" height="4.43"/>
      <rect class="cls-3" x="287.63" y="34.01" width="23.13" height="4.43"/>
      <path class="cls-3" d="M310.76,43.15v13.57h-9.31v9.14h-37.46v.14h-4.51v-13.84h-9.31v-4.43h13.82v13.71h5.02v-18.28h13.82v13.57h-9.31v4.7h14.1v-18.28h4.52v9.14h4.79v-9.14h13.82ZM273.53,52.29h4.79v-4.71h-4.79v4.71ZM296.94,56.72h-4.79v4.7h4.79v-4.7ZM306.24,47.58h-4.79v4.71h4.79v-4.71Z"/>
      <polygon class="cls-3" points="254.69 61.42 254.69 65.86 240.87 65.86 240.87 43.15 245.39 43.15 245.39 52.29 250.04 52.29 250.04 56.72 245.39 56.72 245.39 61.42 254.69 61.42"/>
      <rect class="cls-3" x="306.24" y="61.42" width="4.51" height="4.43"/>
    </g>
    <g>
      <rect class="cls-3" x="316.35" y="34.01" width="28.15" height="4.43"/>
      <rect class="cls-3" x="353.81" y="34.01" width="4.52" height="4.43"/>
      <rect class="cls-3" x="363.11" y="34.01" width="23.13" height="4.43"/>
      <path class="cls-3" d="M386.24,43.15v13.57h-9.31v9.14h-37.46v.14h-4.52v-13.84h-9.31v-4.43h13.82v13.71h5.02v-18.28h13.82v13.57h-9.31v4.7h14.1v-18.28h4.52v9.14h4.79v-9.14h13.82ZM349.02,52.29h4.79v-4.71h-4.79v4.71ZM372.42,56.72h-4.79v4.7h4.79v-4.7ZM381.73,47.58h-4.79v4.71h4.79v-4.71Z"/>
      <polygon class="cls-3" points="330.17 61.42 330.17 65.86 316.35 65.86 316.35 43.15 320.87 43.15 320.87 52.29 325.52 52.29 325.52 56.72 320.87 56.72 320.87 61.42 330.17 61.42"/>
      <rect class="cls-3" x="381.73" y="61.42" width="4.51" height="4.43"/>
    </g>
    <g>
      <rect class="cls-3" x="391.83" y="34.01" width="28.15" height="4.43"/>
      <rect class="cls-3" x="429.29" y="34.01" width="4.52" height="4.43"/>
      <rect class="cls-3" x="438.59" y="34.01" width="23.13" height="4.43"/>
      <path class="cls-3" d="M461.72,43.15v13.57h-9.31v9.14h-37.46v.14h-4.52v-13.84h-9.31v-4.43h13.82v13.71h5.02v-18.28h13.82v13.57h-9.31v4.7h14.1v-18.28h4.52v9.14h4.79v-9.14h13.82ZM424.5,52.29h4.79v-4.71h-4.79v4.71ZM447.9,56.72h-4.79v4.7h4.79v-4.7ZM457.21,47.58h-4.79v4.71h4.79v-4.71Z"/>
      <polygon class="cls-3" points="405.65 61.42 405.65 65.86 391.83 65.86 391.83 43.15 396.35 43.15 396.35 52.29 401 52.29 401 56.72 396.35 56.72 396.35 61.42 405.65 61.42"/>
      <rect class="cls-3" x="457.21" y="61.42" width="4.51" height="4.43"/>
    </g>
    <g>
      <rect class="cls-3" x="467.31" y="34.01" width="28.15" height="4.43"/>
      <rect class="cls-3" x="504.77" y="34.01" width="4.52" height="4.43"/>
      <rect class="cls-3" x="514.08" y="34.01" width="23.13" height="4.43"/>
      <path class="cls-3" d="M537.2,43.15v13.57h-9.31v9.14h-37.46v.14h-4.52v-13.84h-9.31v-4.43h13.82v13.71h5.02v-18.28h13.82v13.57h-9.31v4.7h14.1v-18.28h4.52v9.14h4.79v-9.14h13.82ZM499.98,52.29h4.79v-4.71h-4.79v4.71ZM523.38,56.72h-4.79v4.7h4.79v-4.7ZM532.69,47.58h-4.79v4.71h4.79v-4.71Z"/>
      <polygon class="cls-3" points="481.14 61.42 481.14 65.86 467.31 65.86 467.31 43.15 471.83 43.15 471.83 52.29 476.48 52.29 476.48 56.72 471.83 56.72 471.83 61.42 481.14 61.42"/>
      <rect class="cls-3" x="532.69" y="61.42" width="4.51" height="4.43"/>
    </g>
    <g>
      <rect class="cls-3" x="542.8" y="34.01" width="28.15" height="4.43"/>
      <rect class="cls-3" x="580.25" y="34.01" width="4.51" height="4.43"/>
      <rect class="cls-3" x="589.56" y="34.01" width="23.13" height="4.43"/>
      <path class="cls-3" d="M612.69,43.15v13.57h-9.31v9.14h-37.46v.14h-4.52v-13.84h-9.31v-4.43h13.82v13.71h5.02v-18.28h13.82v13.57h-9.31v4.7h14.1v-18.28h4.52v9.14h4.79v-9.14h13.82ZM575.46,52.29h4.79v-4.71h-4.79v4.71ZM598.87,56.72h-4.79v4.7h4.79v-4.7ZM608.17,47.58h-4.79v4.71h4.79v-4.71Z"/>
      <polygon class="cls-3" points="556.62 61.42 556.62 65.86 542.8 65.86 542.8 43.15 547.31 43.15 547.31 52.29 551.97 52.29 551.97 56.72 547.31 56.72 547.31 61.42 556.62 61.42"/>
      <rect class="cls-3" x="608.17" y="61.42" width="4.52" height="4.43"/>
    </g>
    <g>
      <rect class="cls-3" x="618.28" y="34.01" width="28.15" height="4.43"/>
      <rect class="cls-3" x="655.73" y="34.01" width="4.51" height="4.43"/>
      <rect class="cls-3" x="665.04" y="34.01" width="23.13" height="4.43"/>
      <path class="cls-3" d="M688.17,43.15v13.57h-9.31v9.14h-37.46v.14h-4.51v-13.84h-9.31v-4.43h13.82v13.71h5.02v-18.28h13.82v13.57h-9.31v4.7h14.1v-18.28h4.52v9.14h4.79v-9.14h13.82ZM650.94,52.29h4.79v-4.71h-4.79v4.71ZM674.35,56.72h-4.79v4.7h4.79v-4.7ZM683.65,47.58h-4.79v4.71h4.79v-4.71Z"/>
      <polygon class="cls-3" points="632.1 61.42 632.1 65.86 618.28 65.86 618.28 43.15 622.79 43.15 622.79 52.29 627.45 52.29 627.45 56.72 622.79 56.72 622.79 61.42 632.1 61.42"/>
      <rect class="cls-3" x="683.65" y="61.42" width="4.51" height="4.43"/>
    </g>
    <g>
      <rect class="cls-3" x="693.76" y="34.01" width="28.15" height="4.43"/>
      <rect class="cls-3" x="731.22" y="34.01" width="4.51" height="4.43"/>
      <rect class="cls-3" x="740.52" y="34.01" width="23.13" height="4.43"/>
      <path class="cls-3" d="M763.65,43.15v13.57h-9.31v9.14h-37.46v.14h-4.51v-13.84h-9.31v-4.43h13.82v13.71h5.02v-18.28h13.82v13.57h-9.31v4.7h14.1v-18.28h4.52v9.14h4.79v-9.14h13.82ZM726.42,52.29h4.79v-4.71h-4.79v4.71ZM749.83,56.72h-4.79v4.7h4.79v-4.7ZM759.14,47.58h-4.79v4.71h4.79v-4.71Z"/>
      <polygon class="cls-3" points="707.58 61.42 707.58 65.86 693.76 65.86 693.76 43.15 698.28 43.15 698.28 52.29 702.93 52.29 702.93 56.72 698.28 56.72 698.28 61.42 707.58 61.42"/>
      <rect class="cls-3" x="759.14" y="61.42" width="4.52" height="4.43"/>
    </g>
    <g>
      <rect class="cls-3" x="769.24" y="34.01" width="28.15" height="4.43"/>
      <rect class="cls-3" x="806.7" y="34.01" width="4.51" height="4.43"/>
      <rect class="cls-3" x="816" y="34.01" width="23.13" height="4.43"/>
      <path class="cls-3" d="M839.13,43.15v13.57h-9.31v9.14h-37.46v.14h-4.51v-13.84h-9.31v-4.43h13.82v13.71h5.02v-18.28h13.82v13.57h-9.31v4.7h14.1v-18.28h4.52v9.14h4.79v-9.14h13.82ZM801.91,52.29h4.79v-4.71h-4.79v4.71ZM825.31,56.72h-4.79v4.7h4.79v-4.7ZM834.62,47.58h-4.79v4.71h4.79v-4.71Z"/>
      <polygon class="cls-3" points="783.06 61.42 783.06 65.86 769.24 65.86 769.24 43.15 773.76 43.15 773.76 52.29 778.41 52.29 778.41 56.72 773.76 56.72 773.76 61.42 783.06 61.42"/>
      <rect class="cls-3" x="834.62" y="61.42" width="4.51" height="4.43"/>
    </g>
    <g>
      <rect class="cls-3" x="844.72" y="34.01" width="28.15" height="4.43"/>
      <rect class="cls-3" x="882.18" y="34.01" width="4.51" height="4.43"/>
      <rect class="cls-3" x="891.49" y="34.01" width="23.13" height="4.43"/>
      <path class="cls-3" d="M914.61,43.15v13.57h-9.31v9.14h-37.46v.14h-4.51v-13.84h-9.31v-4.43h13.82v13.71h5.02v-18.28h13.82v13.57h-9.31v4.7h14.1v-18.28h4.52v9.14h4.79v-9.14h13.82ZM877.39,52.29h4.79v-4.71h-4.79v4.71ZM900.79,56.72h-4.79v4.7h4.79v-4.7ZM910.1,47.58h-4.79v4.71h4.79v-4.71Z"/>
      <polygon class="cls-3" points="858.55 61.42 858.55 65.86 844.72 65.86 844.72 43.15 849.24 43.15 849.24 52.29 853.89 52.29 853.89 56.72 849.24 56.72 849.24 61.42 858.55 61.42"/>
      <rect class="cls-3" x="910.1" y="61.42" width="4.52" height="4.43"/>
    </g>
    <g>
      <rect class="cls-3" x="920.21" y="34.01" width="28.15" height="4.43"/>
      <rect class="cls-3" x="957.66" y="34.01" width="4.51" height="4.43"/>
      <rect class="cls-3" x="966.97" y="34.01" width="23.13" height="4.43"/>
      <path class="cls-3" d="M990.1,43.15v13.57h-9.31v9.14h-37.46v.14h-4.51v-13.84h-9.31v-4.43h13.82v13.71h5.02v-18.28h13.82v13.57h-9.31v4.7h14.1v-18.28h4.52v9.14h4.79v-9.14h13.82ZM952.87,52.29h4.79v-4.71h-4.79v4.71ZM976.27,56.72h-4.79v4.7h4.79v-4.7ZM985.58,47.58h-4.79v4.71h4.79v-4.71Z"/>
      <polygon class="cls-3" points="934.03 61.42 934.03 65.86 920.21 65.86 920.21 43.15 924.72 43.15 924.72 52.29 929.37 52.29 929.37 56.72 924.72 56.72 924.72 61.42 934.03 61.42"/>
      <rect class="cls-3" x="985.58" y="61.42" width="4.51" height="4.43"/>
    </g>
    <g>
      <rect class="cls-3" x="1041.56" y="89.7" width="4.43" height="27.13"/>
      <rect class="cls-3" x="1041.56" y="125.8" width="4.43" height="4.35"/>
      <rect class="cls-3" x="1041.56" y="134.77" width="4.43" height="22.29"/>
      <path class="cls-3" d="M1036.85,157.06h-13.57v-8.97h-9.14v-36.1h-.14v-4.35h13.84v-8.97h4.43v13.32h-13.71v4.84h18.28v13.32h-13.57v-8.97h-4.7v13.59h18.28v4.35h-9.14v4.62h9.14v13.32ZM1027.71,121.18v4.62h4.71v-4.62h-4.71ZM1023.28,143.74v-4.62h-4.7v4.62h4.7ZM1032.42,152.71v-4.62h-4.71v4.62h4.71Z"/>
      <polygon class="cls-3" points="1018.58 103.02 1014.14 103.02 1014.14 89.7 1036.85 89.7 1036.85 94.05 1027.71 94.05 1027.71 98.54 1023.28 98.54 1023.28 94.05 1018.58 94.05 1018.58 103.02"/>
      <rect class="cls-3" x="1014.14" y="152.71" width="4.43" height="4.35"/>
    </g>
    <g>
      <rect class="cls-3" x="1041.56" y="162.45" width="4.43" height="27.13"/>
      <rect class="cls-3" x="1041.56" y="198.55" width="4.43" height="4.35"/>
      <rect class="cls-3" x="1041.56" y="207.52" width="4.43" height="22.29"/>
      <path class="cls-3" d="M1036.85,229.81h-13.57v-8.97h-9.14v-36.1h-.14v-4.35h13.84v-8.97h4.43v13.32h-13.71v4.84h18.28v13.32h-13.57v-8.97h-4.7v13.59h18.28v4.35h-9.14v4.62h9.14v13.32ZM1027.71,193.93v4.62h4.71v-4.62h-4.71ZM1023.28,216.49v-4.62h-4.7v4.62h4.7ZM1032.42,225.46v-4.62h-4.71v4.62h4.71Z"/>
      <polygon class="cls-3" points="1018.58 175.77 1014.14 175.77 1014.14 162.45 1036.85 162.45 1036.85 166.8 1027.71 166.8 1027.71 171.29 1023.28 171.29 1023.28 166.8 1018.58 166.8 1018.58 175.77"/>
      <rect class="cls-3" x="1014.14" y="225.46" width="4.43" height="4.35"/>
    </g>
    <g>
      <rect class="cls-3" x="1041.56" y="235.2" width="4.43" height="27.13"/>
      <rect class="cls-3" x="1041.56" y="271.3" width="4.43" height="4.35"/>
      <rect class="cls-3" x="1041.56" y="280.27" width="4.43" height="22.29"/>
      <path class="cls-3" d="M1036.85,302.56h-13.57v-8.97h-9.14v-36.1h-.14v-4.35h13.84v-8.97h4.43v13.32h-13.71v4.84h18.28v13.32h-13.57v-8.97h-4.7v13.59h18.28v4.35h-9.14v4.62h9.14v13.32ZM1027.71,266.68v4.62h4.71v-4.62h-4.71ZM1023.28,289.24v-4.62h-4.7v4.62h4.7ZM1032.42,298.21v-4.62h-4.71v4.62h4.71Z"/>
      <polygon class="cls-3" points="1018.58 248.52 1014.14 248.52 1014.14 235.2 1036.85 235.2 1036.85 239.55 1027.71 239.55 1027.71 244.04 1023.28 244.04 1023.28 239.55 1018.58 239.55 1018.58 248.52"/>
      <rect class="cls-3" x="1014.14" y="298.21" width="4.43" height="4.35"/>
    </g>
    <g>
      <rect class="cls-3" x="1041.56" y="307.95" width="4.43" height="27.13"/>
      <rect class="cls-3" x="1041.56" y="344.05" width="4.43" height="4.35"/>
      <rect class="cls-3" x="1041.56" y="353.02" width="4.43" height="22.29"/>
      <path class="cls-3" d="M1036.85,375.31h-13.57v-8.97h-9.14v-36.1h-.14v-4.35h13.84v-8.97h4.43v13.32h-13.71v4.84h18.28v13.32h-13.57v-8.97h-4.7v13.59h18.28v4.35h-9.14v4.62h9.14v13.32ZM1027.71,339.43v4.62h4.71v-4.62h-4.71ZM1023.28,361.99v-4.62h-4.7v4.62h4.7ZM1032.42,370.96v-4.62h-4.71v4.62h4.71Z"/>
      <polygon class="cls-3" points="1018.58 321.27 1014.14 321.27 1014.14 307.95 1036.85 307.95 1036.85 312.3 1027.71 312.3 1027.71 316.79 1023.28 316.79 1023.28 312.3 1018.58 312.3 1018.58 321.27"/>
      <rect class="cls-3" x="1014.14" y="370.96" width="4.43" height="4.35"/>
    </g>
    <g>
      <rect class="cls-3" x="1041.56" y="380.7" width="4.43" height="27.13"/>
      <rect class="cls-3" x="1041.56" y="416.8" width="4.43" height="4.35"/>
      <rect class="cls-3" x="1041.56" y="425.77" width="4.43" height="22.29"/>
      <path class="cls-3" d="M1036.85,448.06h-13.57v-8.97h-9.14v-36.1h-.14v-4.35h13.84v-8.97h4.43v13.32h-13.71v4.84h18.28v13.32h-13.57v-8.97h-4.7v13.59h18.28v4.35h-9.14v4.62h9.14v13.32ZM1027.71,412.18v4.62h4.71v-4.62h-4.71ZM1023.28,434.74v-4.62h-4.7v4.62h4.7ZM1032.42,443.71v-4.62h-4.71v4.62h4.71Z"/>
      <polygon class="cls-3" points="1018.58 394.02 1014.14 394.02 1014.14 380.7 1036.85 380.7 1036.85 385.05 1027.71 385.05 1027.71 389.54 1023.28 389.54 1023.28 385.05 1018.58 385.05 1018.58 394.02"/>
      <rect class="cls-3" x="1014.14" y="443.71" width="4.43" height="4.35"/>
    </g>
    <g>
      <rect class="cls-3" x="1041.56" y="453.45" width="4.43" height="27.13"/>
      <rect class="cls-3" x="1041.56" y="489.55" width="4.43" height="4.35"/>
      <rect class="cls-3" x="1041.56" y="498.52" width="4.43" height="22.29"/>
      <path class="cls-3" d="M1036.85,520.81h-13.57v-8.97h-9.14v-36.1h-.14v-4.35h13.84v-8.97h4.43v13.32h-13.71v4.84h18.28v13.32h-13.57v-8.97h-4.7v13.59h18.28v4.35h-9.14v4.62h9.14v13.32ZM1027.71,484.93v4.62h4.71v-4.62h-4.71ZM1023.28,507.49v-4.62h-4.7v4.62h4.7ZM1032.42,516.46v-4.62h-4.71v4.62h4.71Z"/>
      <polygon class="cls-3" points="1018.58 466.77 1014.14 466.77 1014.14 453.45 1036.85 453.45 1036.85 457.8 1027.71 457.8 1027.71 462.29 1023.28 462.29 1023.28 457.8 1018.58 457.8 1018.58 466.77"/>
      <rect class="cls-3" x="1014.14" y="516.46" width="4.43" height="4.35"/>
    </g>
    <g>
      <rect class="cls-3" x="1041.56" y="526.2" width="4.43" height="27.13"/>
      <rect class="cls-3" x="1041.56" y="562.3" width="4.43" height="4.35"/>
      <rect class="cls-3" x="1041.56" y="571.27" width="4.43" height="22.29"/>
      <path class="cls-3" d="M1036.85,593.56h-13.57v-8.97h-9.14v-36.1h-.14v-4.35h13.84v-8.97h4.43v13.32h-13.71v4.84h18.28v13.32h-13.57v-8.97h-4.7v13.59h18.28v4.35h-9.14v4.62h9.14v13.32ZM1027.71,557.68v4.62h4.71v-4.62h-4.71ZM1023.28,580.24v-4.62h-4.7v4.62h4.7ZM1032.42,589.21v-4.62h-4.71v4.62h4.71Z"/>
      <polygon class="cls-3" points="1018.58 539.52 1014.14 539.52 1014.14 526.2 1036.85 526.2 1036.85 530.55 1027.71 530.55 1027.71 535.04 1023.28 535.04 1023.28 530.55 1018.58 530.55 1018.58 539.52"/>
      <rect class="cls-3" x="1014.14" y="589.21" width="4.43" height="4.35"/>
    </g>
    <g>
      <rect class="cls-3" x="1041.56" y="598.95" width="4.43" height="27.13"/>
      <rect class="cls-3" x="1041.56" y="635.05" width="4.43" height="4.35"/>
      <rect class="cls-3" x="1041.56" y="644.02" width="4.43" height="22.29"/>
      <path class="cls-3" d="M1036.85,666.31h-13.57v-8.97h-9.14v-36.1h-.14v-4.35h13.84v-8.97h4.43v13.32h-13.71v4.84h18.28v13.32h-13.57v-8.97h-4.7v13.59h18.28v4.35h-9.14v4.62h9.14v13.32ZM1027.71,630.43v4.62h4.71v-4.62h-4.71ZM1023.28,652.99v-4.62h-4.7v4.62h4.7ZM1032.42,661.96v-4.62h-4.71v4.62h4.71Z"/>
      <polygon class="cls-3" points="1018.58 612.27 1014.14 612.27 1014.14 598.95 1036.85 598.95 1036.85 603.3 1027.71 603.3 1027.71 607.79 1023.28 607.79 1023.28 603.3 1018.58 603.3 1018.58 612.27"/>
      <rect class="cls-3" x="1014.14" y="661.96" width="4.43" height="4.35"/>
    </g>
    <g>
      <rect class="cls-3" x="1041.56" y="671.7" width="4.43" height="27.13"/>
      <rect class="cls-3" x="1041.56" y="707.8" width="4.43" height="4.35"/>
      <rect class="cls-3" x="1041.56" y="716.77" width="4.43" height="22.29"/>
      <path class="cls-3" d="M1036.85,739.06h-13.57v-8.97h-9.14v-36.1h-.14v-4.35h13.84v-8.97h4.43v13.32h-13.71v4.84h18.28v13.32h-13.57v-8.97h-4.7v13.59h18.28v4.35h-9.14v4.62h9.14v13.32ZM1027.71,703.18v4.62h4.71v-4.62h-4.71ZM1023.28,725.74v-4.62h-4.7v4.62h4.7ZM1032.42,734.71v-4.62h-4.71v4.62h4.71Z"/>
      <polygon class="cls-3" points="1018.58 685.02 1014.14 685.02 1014.14 671.7 1036.85 671.7 1036.85 676.05 1027.71 676.05 1027.71 680.53 1023.28 680.53 1023.28 676.05 1018.58 676.05 1018.58 685.02"/>
      <rect class="cls-3" x="1014.14" y="734.71" width="4.43" height="4.35"/>
    </g>
    <g>
      <rect class="cls-3" x="1041.56" y="744.45" width="4.43" height="27.13"/>
      <rect class="cls-3" x="1041.56" y="780.55" width="4.43" height="4.35"/>
      <rect class="cls-3" x="1041.56" y="789.52" width="4.43" height="22.29"/>
      <path class="cls-3" d="M1036.85,811.81h-13.57v-8.97h-9.14v-36.1h-.14v-4.35h13.84v-8.97h4.43v13.32h-13.71v4.84h18.28v13.32h-13.57v-8.97h-4.7v13.59h18.28v4.35h-9.14v4.62h9.14v13.32ZM1027.71,775.93v4.62h4.71v-4.62h-4.71ZM1023.28,798.49v-4.62h-4.7v4.62h4.7ZM1032.42,807.46v-4.62h-4.71v4.62h4.71Z"/>
      <polygon class="cls-3" points="1018.58 757.77 1014.14 757.77 1014.14 744.45 1036.85 744.45 1036.85 748.8 1027.71 748.8 1027.71 753.28 1023.28 753.28 1023.28 748.8 1018.58 748.8 1018.58 757.77"/>
      <rect class="cls-3" x="1014.14" y="807.46" width="4.43" height="4.35"/>
    </g>
    <g>
      <rect class="cls-3" x="1041.56" y="817.2" width="4.43" height="27.13"/>
      <rect class="cls-3" x="1041.56" y="853.3" width="4.43" height="4.35"/>
      <rect class="cls-3" x="1041.56" y="862.27" width="4.43" height="22.29"/>
      <path class="cls-3" d="M1036.85,884.56h-13.57v-8.97h-9.14v-36.1h-.14v-4.35h13.84v-8.97h4.43v13.32h-13.71v4.84h18.28v13.32h-13.57v-8.97h-4.7v13.59h18.28v4.35h-9.14v4.62h9.14v13.32ZM1027.71,848.68v4.62h4.71v-4.62h-4.71ZM1023.28,871.24v-4.62h-4.7v4.62h4.7ZM1032.42,880.2v-4.62h-4.71v4.62h4.71Z"/>
      <polygon class="cls-3" points="1018.58 830.52 1014.14 830.52 1014.14 817.2 1036.85 817.2 1036.85 821.55 1027.71 821.55 1027.71 826.03 1023.28 826.03 1023.28 821.55 1018.58 821.55 1018.58 830.52"/>
      <rect class="cls-3" x="1014.14" y="880.2" width="4.43" height="4.35"/>
    </g>
    <g>
      <rect class="cls-3" x="1041.56" y="889.95" width="4.43" height="27.13"/>
      <rect class="cls-3" x="1041.56" y="926.05" width="4.43" height="4.35"/>
      <rect class="cls-3" x="1041.56" y="935.01" width="4.43" height="22.29"/>
      <path class="cls-3" d="M1036.85,957.31h-13.57v-8.97h-9.14v-36.1h-.14v-4.35h13.84v-8.97h4.43v13.32h-13.71v4.84h18.28v13.32h-13.57v-8.97h-4.7v13.59h18.28v4.35h-9.14v4.62h9.14v13.32ZM1027.71,921.43v4.62h4.71v-4.62h-4.71ZM1023.28,943.99v-4.62h-4.7v4.62h4.7ZM1032.42,952.95v-4.62h-4.71v4.62h4.71Z"/>
      <polygon class="cls-3" points="1018.58 903.27 1014.14 903.27 1014.14 889.95 1036.85 889.95 1036.85 894.3 1027.71 894.3 1027.71 898.78 1023.28 898.78 1023.28 894.3 1018.58 894.3 1018.58 903.27"/>
      <rect class="cls-3" x="1014.14" y="952.95" width="4.43" height="4.35"/>
    </g>
    <g>
      <rect class="cls-3" x="1041.56" y="962.69" width="4.43" height="27.13"/>
      <rect class="cls-3" x="1041.56" y="998.79" width="4.43" height="4.35"/>
      <rect class="cls-3" x="1041.56" y="1007.76" width="4.43" height="22.29"/>
      <path class="cls-3" d="M1036.85,1030.06h-13.57v-8.97h-9.14v-36.1h-.14v-4.35h13.84v-8.97h4.43v13.32h-13.71v4.84h18.28v13.32h-13.57v-8.97h-4.7v13.59h18.28v4.35h-9.14v4.62h9.14v13.32ZM1027.71,994.18v4.62h4.71v-4.62h-4.71ZM1023.28,1016.73v-4.62h-4.7v4.62h4.7ZM1032.42,1025.7v-4.62h-4.71v4.62h4.71Z"/>
      <polygon class="cls-3" points="1018.58 976.02 1014.14 976.02 1014.14 962.69 1036.85 962.69 1036.85 967.05 1027.71 967.05 1027.71 971.53 1023.28 971.53 1023.28 967.05 1018.58 967.05 1018.58 976.02"/>
      <rect class="cls-3" x="1014.14" y="1025.7" width="4.43" height="4.35"/>
    </g>
    <g>
      <rect class="cls-3" x="1041.56" y="1035.44" width="4.43" height="27.13"/>
      <rect class="cls-3" x="1041.56" y="1071.54" width="4.43" height="4.35"/>
      <rect class="cls-3" x="1041.56" y="1080.51" width="4.43" height="22.29"/>
      <path class="cls-3" d="M1036.85,1102.8h-13.57v-8.97h-9.14v-36.1h-.14v-4.35h13.84v-8.97h4.43v13.32h-13.71v4.84h18.28v13.32h-13.57v-8.97h-4.7v13.59h18.28v4.35h-9.14v4.62h9.14v13.32ZM1027.71,1066.93v4.62h4.71v-4.62h-4.71ZM1023.28,1089.48v-4.62h-4.7v4.62h4.7ZM1032.42,1098.45v-4.62h-4.71v4.62h4.71Z"/>
      <polygon class="cls-3" points="1018.58 1048.77 1014.14 1048.77 1014.14 1035.44 1036.85 1035.44 1036.85 1039.8 1027.71 1039.8 1027.71 1044.28 1023.28 1044.28 1023.28 1039.8 1018.58 1039.8 1018.58 1048.77"/>
      <rect class="cls-3" x="1014.14" y="1098.45" width="4.43" height="4.35"/>
    </g>
    <g>
      <rect class="cls-3" x="1041.56" y="1108.19" width="4.43" height="27.13"/>
      <rect class="cls-3" x="1041.56" y="1144.29" width="4.43" height="4.35"/>
      <rect class="cls-3" x="1041.56" y="1153.26" width="4.43" height="22.29"/>
      <path class="cls-3" d="M1036.85,1175.55h-13.57v-8.97h-9.14v-36.1h-.14v-4.35h13.84v-8.97h4.43v13.32h-13.71v4.84h18.28v13.32h-13.57v-8.97h-4.7v13.59h18.28v4.35h-9.14v4.62h9.14v13.32ZM1027.71,1139.68v4.62h4.71v-4.62h-4.71ZM1023.28,1162.23v-4.62h-4.7v4.62h4.7ZM1032.42,1171.2v-4.62h-4.71v4.62h4.71Z"/>
      <polygon class="cls-3" points="1018.58 1121.52 1014.14 1121.52 1014.14 1108.19 1036.85 1108.19 1036.85 1112.55 1027.71 1112.55 1027.71 1117.03 1023.28 1117.03 1023.28 1112.55 1018.58 1112.55 1018.58 1121.52"/>
      <rect class="cls-3" x="1014.14" y="1171.2" width="4.43" height="4.35"/>
    </g>
    <g>
      <rect class="cls-3" x="1041.56" y="1180.94" width="4.43" height="27.13"/>
      <rect class="cls-3" x="1041.56" y="1217.04" width="4.43" height="4.35"/>
      <rect class="cls-3" x="1041.56" y="1226.01" width="4.43" height="22.29"/>
      <path class="cls-3" d="M1036.85,1248.3h-13.57v-8.97h-9.14v-36.1h-.14v-4.35h13.84v-8.97h4.43v13.32h-13.71v4.84h18.28v13.32h-13.57v-8.97h-4.7v13.59h18.28v4.35h-9.14v4.62h9.14v13.32ZM1027.71,1212.43v4.62h4.71v-4.62h-4.71ZM1023.28,1234.98v-4.62h-4.7v4.62h4.7ZM1032.42,1243.95v-4.62h-4.71v4.62h4.71Z"/>
      <polygon class="cls-3" points="1018.58 1194.26 1014.14 1194.26 1014.14 1180.94 1036.85 1180.94 1036.85 1185.3 1027.71 1185.3 1027.71 1189.78 1023.28 1189.78 1023.28 1185.3 1018.58 1185.3 1018.58 1194.26"/>
      <rect class="cls-3" x="1014.14" y="1243.95" width="4.43" height="4.35"/>
    </g>
    <g>
      <rect class="cls-3" x="1041.56" y="1253.69" width="4.43" height="27.13"/>
      <rect class="cls-3" x="1041.56" y="1289.79" width="4.43" height="4.35"/>
      <rect class="cls-3" x="1041.56" y="1298.76" width="4.43" height="22.29"/>
      <path class="cls-3" d="M1036.85,1321.05h-13.57v-8.97h-9.14v-36.1h-.14v-4.35h13.84v-8.97h4.43v13.32h-13.71v4.84h18.28v13.32h-13.57v-8.97h-4.7v13.59h18.28v4.35h-9.14v4.62h9.14v13.32ZM1027.71,1285.17v4.62h4.71v-4.62h-4.71ZM1023.28,1307.73v-4.62h-4.7v4.62h4.7ZM1032.42,1316.7v-4.62h-4.71v4.62h4.71Z"/>
      <polygon class="cls-3" points="1018.58 1267.01 1014.14 1267.01 1014.14 1253.69 1036.85 1253.69 1036.85 1258.04 1027.71 1258.04 1027.71 1262.53 1023.28 1262.53 1023.28 1258.04 1018.58 1258.04 1018.58 1267.01"/>
      <rect class="cls-3" x="1014.14" y="1316.7" width="4.43" height="4.35"/>
    </g>
    <g>
      <rect class="cls-3" x="1041.56" y="1326.44" width="4.43" height="27.13"/>
      <rect class="cls-3" x="1041.56" y="1362.54" width="4.43" height="4.35"/>
      <rect class="cls-3" x="1041.56" y="1371.51" width="4.43" height="22.29"/>
      <path class="cls-3" d="M1036.85,1393.8h-13.57v-8.97h-9.14v-36.1h-.14v-4.35h13.84v-8.97h4.43v13.32h-13.71v4.84h18.28v13.32h-13.57v-8.97h-4.7v13.59h18.28v4.35h-9.14v4.62h9.14v13.32ZM1027.71,1357.92v4.62h4.71v-4.62h-4.71ZM1023.28,1380.48v-4.62h-4.7v4.62h4.7ZM1032.42,1389.45v-4.62h-4.71v4.62h4.71Z"/>
      <polygon class="cls-3" points="1018.58 1339.76 1014.14 1339.76 1014.14 1326.44 1036.85 1326.44 1036.85 1330.79 1027.71 1330.79 1027.71 1335.28 1023.28 1335.28 1023.28 1330.79 1018.58 1330.79 1018.58 1339.76"/>
      <rect class="cls-3" x="1014.14" y="1389.45" width="4.43" height="4.35"/>
    </g>
    <g>
      <rect class="cls-3" x="1041.56" y="1399.19" width="4.43" height="27.13"/>
      <rect class="cls-3" x="1041.56" y="1435.29" width="4.43" height="4.35"/>
      <rect class="cls-3" x="1041.56" y="1444.26" width="4.43" height="22.29"/>
      <path class="cls-3" d="M1036.85,1466.55h-13.57v-8.97h-9.14v-36.1h-.14v-4.35h13.84v-8.97h4.43v13.32h-13.71v4.84h18.28v13.32h-13.57v-8.97h-4.7v13.59h18.28v4.35h-9.14v4.62h9.14v13.32ZM1027.71,1430.67v4.62h4.71v-4.62h-4.71ZM1023.28,1453.23v-4.62h-4.7v4.62h4.7ZM1032.42,1462.2v-4.62h-4.71v4.62h4.71Z"/>
      <polygon class="cls-3" points="1018.58 1412.51 1014.14 1412.51 1014.14 1399.19 1036.85 1399.19 1036.85 1403.54 1027.71 1403.54 1027.71 1408.03 1023.28 1408.03 1023.28 1403.54 1018.58 1403.54 1018.58 1412.51"/>
      <rect class="cls-3" x="1014.14" y="1462.2" width="4.43" height="4.35"/>
    </g>
    <g>
      <rect class="cls-3" x="1041.56" y="1471.94" width="4.43" height="27.13"/>
      <rect class="cls-3" x="1041.56" y="1508.04" width="4.43" height="4.35"/>
      <rect class="cls-3" x="1041.56" y="1517.01" width="4.43" height="22.29"/>
      <path class="cls-3" d="M1036.85,1539.3h-13.57v-8.97h-9.14v-36.1h-.14v-4.35h13.84v-8.97h4.43v13.32h-13.71v4.84h18.28v13.32h-13.57v-8.97h-4.7v13.59h18.28v4.35h-9.14v4.62h9.14v13.32ZM1027.71,1503.42v4.62h4.71v-4.62h-4.71ZM1023.28,1525.98v-4.62h-4.7v4.62h4.7ZM1032.42,1534.95v-4.62h-4.71v4.62h4.71Z"/>
      <polygon class="cls-3" points="1018.58 1485.26 1014.14 1485.26 1014.14 1471.94 1036.85 1471.94 1036.85 1476.29 1027.71 1476.29 1027.71 1480.78 1023.28 1480.78 1023.28 1476.29 1018.58 1476.29 1018.58 1485.26"/>
      <rect class="cls-3" x="1014.14" y="1534.95" width="4.43" height="4.35"/>
    </g>
    <g>
      <rect class="cls-3" x="1041.56" y="1544.69" width="4.43" height="27.13"/>
      <rect class="cls-3" x="1041.56" y="1580.79" width="4.43" height="4.35"/>
      <rect class="cls-3" x="1041.56" y="1589.76" width="4.43" height="22.29"/>
      <path class="cls-3" d="M1036.85,1612.05h-13.57v-8.97h-9.14v-36.1h-.14v-4.35h13.84v-8.97h4.43v13.32h-13.71v4.84h18.28v13.32h-13.57v-8.97h-4.7v13.59h18.28v4.35h-9.14v4.62h9.14v13.32ZM1027.71,1576.17v4.62h4.71v-4.62h-4.71ZM1023.28,1598.73v-4.62h-4.7v4.62h4.7ZM1032.42,1607.7v-4.62h-4.71v4.62h4.71Z"/>
      <polygon class="cls-3" points="1018.58 1558.01 1014.14 1558.01 1014.14 1544.69 1036.85 1544.69 1036.85 1549.04 1027.71 1549.04 1027.71 1553.53 1023.28 1553.53 1023.28 1549.04 1018.58 1549.04 1018.58 1558.01"/>
      <rect class="cls-3" x="1014.14" y="1607.7" width="4.43" height="4.35"/>
    </g>
    <g>
      <rect class="cls-3" x="1041.56" y="1617.44" width="4.43" height="27.13"/>
      <rect class="cls-3" x="1041.56" y="1653.54" width="4.43" height="4.35"/>
      <rect class="cls-3" x="1041.56" y="1662.51" width="4.43" height="22.29"/>
      <path class="cls-3" d="M1036.85,1684.8h-13.57v-8.97h-9.14v-36.1h-.14v-4.35h13.84v-8.97h4.43v13.32h-13.71v4.84h18.28v13.32h-13.57v-8.97h-4.7v13.59h18.28v4.35h-9.14v4.62h9.14v13.32ZM1027.71,1648.92v4.62h4.71v-4.62h-4.71ZM1023.28,1671.48v-4.62h-4.7v4.62h4.7ZM1032.42,1680.45v-4.62h-4.71v4.62h4.71Z"/>
      <polygon class="cls-3" points="1018.58 1630.76 1014.14 1630.76 1014.14 1617.44 1036.85 1617.44 1036.85 1621.79 1027.71 1621.79 1027.71 1626.28 1023.28 1626.28 1023.28 1621.79 1018.58 1621.79 1018.58 1630.76"/>
      <rect class="cls-3" x="1014.14" y="1680.45" width="4.43" height="4.35"/>
    </g>
    <g>
      <rect class="cls-3" x="1041.56" y="1690.19" width="4.43" height="27.13"/>
      <rect class="cls-3" x="1041.56" y="1726.29" width="4.43" height="4.35"/>
      <rect class="cls-3" x="1041.56" y="1735.26" width="4.43" height="22.29"/>
      <path class="cls-3" d="M1036.85,1757.55h-13.57v-8.97h-9.14v-36.1h-.14v-4.35h13.84v-8.97h4.43v13.32h-13.71v4.84h18.28v13.32h-13.57v-8.97h-4.7v13.59h18.28v4.35h-9.14v4.62h9.14v13.32ZM1027.71,1721.67v4.62h4.71v-4.62h-4.71ZM1023.28,1744.23v-4.62h-4.7v4.62h4.7ZM1032.42,1753.2v-4.62h-4.71v4.62h4.71Z"/>
      <polygon class="cls-3" points="1018.58 1703.51 1014.14 1703.51 1014.14 1690.19 1036.85 1690.19 1036.85 1694.54 1027.71 1694.54 1027.71 1699.03 1023.28 1699.03 1023.28 1694.54 1018.58 1694.54 1018.58 1703.51"/>
      <rect class="cls-3" x="1014.14" y="1753.2" width="4.43" height="4.35"/>
    </g>
    <g>
      <rect class="cls-3" x="1041.56" y="1762.94" width="4.43" height="27.13"/>
      <rect class="cls-3" x="1041.56" y="1799.04" width="4.43" height="4.35"/>
      <rect class="cls-3" x="1041.56" y="1808.01" width="4.43" height="22.29"/>
      <path class="cls-3" d="M1036.85,1830.3h-13.57v-8.97h-9.14v-36.1h-.14v-4.35h13.84v-8.97h4.43v13.32h-13.71v4.84h18.28v13.32h-13.57v-8.97h-4.7v13.59h18.28v4.35h-9.14v4.62h9.14v13.32ZM1027.71,1794.42v4.62h4.71v-4.62h-4.71ZM1023.28,1816.98v-4.62h-4.7v4.62h4.7ZM1032.42,1825.95v-4.62h-4.71v4.62h4.71Z"/>
      <polygon class="cls-3" points="1018.58 1776.26 1014.14 1776.26 1014.14 1762.94 1036.85 1762.94 1036.85 1767.29 1027.71 1767.29 1027.71 1771.78 1023.28 1771.78 1023.28 1767.29 1018.58 1767.29 1018.58 1776.26"/>
      <rect class="cls-3" x="1014.14" y="1825.95" width="4.43" height="4.35"/>
    </g>
    <g>
      <rect class="cls-3" x="961.95" y="1881.56" width="28.15" height="4.43"/>
      <rect class="cls-3" x="948.12" y="1881.56" width="4.51" height="4.43"/>
      <rect class="cls-3" x="920.21" y="1881.56" width="23.13" height="4.43"/>
      <path class="cls-3" d="M920.21,1876.85v-13.57h9.31v-9.14h37.46v-.14h4.51v13.84h9.31v4.43h-13.82v-13.71h-5.02v18.28h-13.82v-13.57h9.31v-4.7h-14.1v18.28h-4.52v-9.14h-4.79v9.14h-13.82ZM957.43,1867.71h-4.79v4.71h4.79v-4.71ZM934.03,1863.28h4.79v-4.7h-4.79v4.7ZM924.72,1872.42h4.79v-4.71h-4.79v4.71Z"/>
      <polygon class="cls-3" points="976.27 1858.58 976.27 1854.14 990.1 1854.14 990.1 1876.85 985.58 1876.85 985.58 1867.71 980.93 1867.71 980.93 1863.28 985.58 1863.28 985.58 1858.58 976.27 1858.58"/>
      <rect class="cls-3" x="920.21" y="1854.14" width="4.52" height="4.43"/>
    </g>
    <g>
      <rect class="cls-3" x="886.46" y="1881.56" width="28.15" height="4.43"/>
      <rect class="cls-3" x="872.64" y="1881.56" width="4.51" height="4.43"/>
      <rect class="cls-3" x="844.72" y="1881.56" width="23.13" height="4.43"/>
      <path class="cls-3" d="M844.72,1876.85v-13.57h9.31v-9.14h37.46v-.14h4.51v13.84h9.31v4.43h-13.82v-13.71h-5.02v18.28h-13.82v-13.57h9.31v-4.7h-14.1v18.28h-4.52v-9.14h-4.79v9.14h-13.82ZM881.95,1867.71h-4.79v4.71h4.79v-4.71ZM858.54,1863.28h4.79v-4.7h-4.79v4.7ZM849.24,1872.42h4.79v-4.71h-4.79v4.71Z"/>
      <polygon class="cls-3" points="900.79 1858.58 900.79 1854.14 914.61 1854.14 914.61 1876.85 910.1 1876.85 910.1 1867.71 905.44 1867.71 905.44 1863.28 910.1 1863.28 910.1 1858.58 900.79 1858.58"/>
      <rect class="cls-3" x="844.72" y="1854.14" width="4.51" height="4.43"/>
    </g>
    <g>
      <rect class="cls-3" x="810.98" y="1881.56" width="28.15" height="4.43"/>
      <rect class="cls-3" x="797.16" y="1881.56" width="4.51" height="4.43"/>
      <rect class="cls-3" x="769.24" y="1881.56" width="23.13" height="4.43"/>
      <path class="cls-3" d="M769.24,1876.85v-13.57h9.31v-9.14h37.46v-.14h4.51v13.84h9.31v4.43h-13.82v-13.71h-5.02v18.28h-13.82v-13.57h9.31v-4.7h-14.1v18.28h-4.52v-9.14h-4.79v9.14h-13.82ZM806.47,1867.71h-4.79v4.71h4.79v-4.71ZM783.06,1863.28h4.79v-4.7h-4.79v4.7ZM773.76,1872.42h4.79v-4.71h-4.79v4.71Z"/>
      <polygon class="cls-3" points="825.31 1858.58 825.31 1854.14 839.13 1854.14 839.13 1876.85 834.62 1876.85 834.62 1867.71 829.96 1867.71 829.96 1863.28 834.62 1863.28 834.62 1858.58 825.31 1858.58"/>
      <rect class="cls-3" x="769.24" y="1854.14" width="4.52" height="4.43"/>
    </g>
    <g>
      <rect class="cls-3" x="735.5" y="1881.56" width="28.15" height="4.43"/>
      <rect class="cls-3" x="721.68" y="1881.56" width="4.51" height="4.43"/>
      <rect class="cls-3" x="693.76" y="1881.56" width="23.13" height="4.43"/>
      <path class="cls-3" d="M693.76,1876.85v-13.57h9.31v-9.14h37.46v-.14h4.51v13.84h9.31v4.43h-13.82v-13.71h-5.02v18.28h-13.82v-13.57h9.31v-4.7h-14.1v18.28h-4.52v-9.14h-4.79v9.14h-13.82ZM730.99,1867.71h-4.79v4.71h4.79v-4.71ZM707.58,1863.28h4.79v-4.7h-4.79v4.7ZM698.27,1872.42h4.79v-4.71h-4.79v4.71Z"/>
      <polygon class="cls-3" points="749.83 1858.58 749.83 1854.14 763.65 1854.14 763.65 1876.85 759.13 1876.85 759.13 1867.71 754.48 1867.71 754.48 1863.28 759.13 1863.28 759.13 1858.58 749.83 1858.58"/>
      <rect class="cls-3" x="693.76" y="1854.14" width="4.51" height="4.43"/>
    </g>
    <g>
      <rect class="cls-3" x="660.02" y="1881.56" width="28.15" height="4.43"/>
      <rect class="cls-3" x="646.2" y="1881.56" width="4.51" height="4.43"/>
      <rect class="cls-3" x="618.28" y="1881.56" width="23.13" height="4.43"/>
      <path class="cls-3" d="M618.28,1876.85v-13.57h9.31v-9.14h37.46v-.14h4.51v13.84h9.31v4.43h-13.82v-13.71h-5.02v18.28h-13.82v-13.57h9.31v-4.7h-14.1v18.28h-4.52v-9.14h-4.79v9.14h-13.82ZM655.5,1867.71h-4.79v4.71h4.79v-4.71ZM632.1,1863.28h4.79v-4.7h-4.79v4.7ZM622.79,1872.42h4.79v-4.71h-4.79v4.71Z"/>
      <polygon class="cls-3" points="674.35 1858.58 674.35 1854.14 688.17 1854.14 688.17 1876.85 683.65 1876.85 683.65 1867.71 679 1867.71 679 1863.28 683.65 1863.28 683.65 1858.58 674.35 1858.58"/>
      <rect class="cls-3" x="618.28" y="1854.14" width="4.52" height="4.43"/>
    </g>
    <g>
      <rect class="cls-3" x="584.54" y="1881.56" width="28.15" height="4.43"/>
      <rect class="cls-3" x="570.72" y="1881.56" width="4.51" height="4.43"/>
      <rect class="cls-3" x="542.8" y="1881.56" width="23.13" height="4.43"/>
      <path class="cls-3" d="M542.8,1876.85v-13.57h9.31v-9.14h37.46v-.14h4.51v13.84h9.31v4.43h-13.82v-13.71h-5.02v18.28h-13.82v-13.57h9.31v-4.7h-14.1v18.28h-4.52v-9.14h-4.79v9.14h-13.82ZM580.02,1867.71h-4.79v4.71h4.79v-4.71ZM556.62,1863.28h4.79v-4.7h-4.79v4.7ZM547.31,1872.42h4.79v-4.71h-4.79v4.71Z"/>
      <polygon class="cls-3" points="598.86 1858.58 598.86 1854.14 612.69 1854.14 612.69 1876.85 608.17 1876.85 608.17 1867.71 603.52 1867.71 603.52 1863.28 608.17 1863.28 608.17 1858.58 598.86 1858.58"/>
      <rect class="cls-3" x="542.8" y="1854.14" width="4.51" height="4.43"/>
    </g>
    <g>
      <rect class="cls-3" x="509.05" y="1881.56" width="28.15" height="4.43"/>
      <rect class="cls-3" x="495.23" y="1881.56" width="4.52" height="4.43"/>
      <rect class="cls-3" x="467.31" y="1881.56" width="23.13" height="4.43"/>
      <path class="cls-3" d="M467.31,1876.85v-13.57h9.31v-9.14h37.46v-.14h4.52v13.84h9.31v4.43h-13.82v-13.71h-5.02v18.28h-13.82v-13.57h9.31v-4.7h-14.1v18.28h-4.52v-9.14h-4.79v9.14h-13.82ZM504.54,1867.71h-4.79v4.71h4.79v-4.71ZM481.14,1863.28h4.79v-4.7h-4.79v4.7ZM471.83,1872.42h4.79v-4.71h-4.79v4.71Z"/>
      <polygon class="cls-3" points="523.38 1858.58 523.38 1854.14 537.2 1854.14 537.2 1876.85 532.69 1876.85 532.69 1867.71 528.04 1867.71 528.04 1863.28 532.69 1863.28 532.69 1858.58 523.38 1858.58"/>
      <rect class="cls-3" x="467.31" y="1854.14" width="4.51" height="4.43"/>
    </g>
    <g>
      <rect class="cls-3" x="433.57" y="1881.56" width="28.15" height="4.43"/>
      <rect class="cls-3" x="419.75" y="1881.56" width="4.52" height="4.43"/>
      <rect class="cls-3" x="391.83" y="1881.56" width="23.13" height="4.43"/>
      <path class="cls-3" d="M391.83,1876.85v-13.57h9.31v-9.14h37.46v-.14h4.52v13.84h9.31v4.43h-13.82v-13.71h-5.02v18.28h-13.82v-13.57h9.31v-4.7h-14.1v18.28h-4.52v-9.14h-4.79v9.14h-13.82ZM429.06,1867.71h-4.79v4.71h4.79v-4.71ZM405.65,1863.28h4.79v-4.7h-4.79v4.7ZM396.35,1872.42h4.79v-4.71h-4.79v4.71Z"/>
      <polygon class="cls-3" points="447.9 1858.58 447.9 1854.14 461.72 1854.14 461.72 1876.85 457.21 1876.85 457.21 1867.71 452.55 1867.71 452.55 1863.28 457.21 1863.28 457.21 1858.58 447.9 1858.58"/>
      <rect class="cls-3" x="391.83" y="1854.14" width="4.51" height="4.43"/>
    </g>
    <g>
      <rect class="cls-3" x="358.09" y="1881.56" width="28.15" height="4.43"/>
      <rect class="cls-3" x="344.27" y="1881.56" width="4.52" height="4.43"/>
      <rect class="cls-3" x="316.35" y="1881.56" width="23.13" height="4.43"/>
      <path class="cls-3" d="M316.35,1876.85v-13.57h9.31v-9.14h37.46v-.14h4.52v13.84h9.31v4.43h-13.82v-13.71h-5.02v18.28h-13.82v-13.57h9.31v-4.7h-14.1v18.28h-4.52v-9.14h-4.79v9.14h-13.82ZM353.58,1867.71h-4.79v4.71h4.79v-4.71ZM330.17,1863.28h4.79v-4.7h-4.79v4.7ZM320.87,1872.42h4.79v-4.71h-4.79v4.71Z"/>
      <polygon class="cls-3" points="372.42 1858.58 372.42 1854.14 386.24 1854.14 386.24 1876.85 381.72 1876.85 381.72 1867.71 377.07 1867.71 377.07 1863.28 381.72 1863.28 381.72 1858.58 372.42 1858.58"/>
      <rect class="cls-3" x="316.35" y="1854.14" width="4.51" height="4.43"/>
    </g>
    <g>
      <rect class="cls-3" x="282.61" y="1881.56" width="28.15" height="4.43"/>
      <rect class="cls-3" x="268.79" y="1881.56" width="4.52" height="4.43"/>
      <rect class="cls-3" x="240.87" y="1881.56" width="23.13" height="4.43"/>
      <path class="cls-3" d="M240.87,1876.85v-13.57h9.31v-9.14h37.46v-.14h4.52v13.84h9.31v4.43h-13.82v-13.71h-5.02v18.28h-13.82v-13.57h9.31v-4.7h-14.1v18.28h-4.52v-9.14h-4.79v9.14h-13.82ZM278.09,1867.71h-4.79v4.71h4.79v-4.71ZM254.69,1863.28h4.79v-4.7h-4.79v4.7ZM245.38,1872.42h4.79v-4.71h-4.79v4.71Z"/>
      <polygon class="cls-3" points="296.94 1858.58 296.94 1854.14 310.76 1854.14 310.76 1876.85 306.24 1876.85 306.24 1867.71 301.59 1867.71 301.59 1863.28 306.24 1863.28 306.24 1858.58 296.94 1858.58"/>
      <rect class="cls-3" x="240.87" y="1854.14" width="4.51" height="4.43"/>
    </g>
    <g>
      <rect class="cls-3" x="207.13" y="1881.56" width="28.15" height="4.43"/>
      <rect class="cls-3" x="193.31" y="1881.56" width="4.52" height="4.43"/>
      <rect class="cls-3" x="165.39" y="1881.56" width="23.13" height="4.43"/>
      <path class="cls-3" d="M165.39,1876.85v-13.57h9.31v-9.14h37.46v-.14h4.52v13.84h9.31v4.43h-13.82v-13.71h-5.02v18.28h-13.82v-13.57h9.31v-4.7h-14.1v18.28h-4.52v-9.14h-4.79v9.14h-13.82ZM202.61,1867.71h-4.79v4.71h4.79v-4.71ZM179.21,1863.28h4.79v-4.7h-4.79v4.7ZM169.9,1872.42h4.79v-4.71h-4.79v4.71Z"/>
      <polygon class="cls-3" points="221.46 1858.58 221.46 1854.14 235.28 1854.14 235.28 1876.85 230.76 1876.85 230.76 1867.71 226.11 1867.71 226.11 1863.28 230.76 1863.28 230.76 1858.58 221.46 1858.58"/>
      <rect class="cls-3" x="165.39" y="1854.14" width="4.51" height="4.43"/>
    </g>
    <g>
      <rect class="cls-3" x="131.65" y="1881.56" width="28.15" height="4.43"/>
      <rect class="cls-3" x="117.82" y="1881.56" width="4.52" height="4.43"/>
      <rect class="cls-3" x="89.91" y="1881.56" width="23.13" height="4.43"/>
      <path class="cls-3" d="M89.91,1876.85v-13.57h9.31v-9.14h37.46v-.14h4.52v13.84h9.31v4.43h-13.82v-13.71h-5.02v18.28h-13.82v-13.57h9.31v-4.7h-14.1v18.28h-4.52v-9.14h-4.79v9.14h-13.82ZM127.13,1867.71h-4.79v4.71h4.79v-4.71ZM103.73,1863.28h4.79v-4.7h-4.79v4.7ZM94.42,1872.42h4.79v-4.71h-4.79v4.71Z"/>
      <polygon class="cls-3" points="145.97 1858.58 145.97 1854.14 159.8 1854.14 159.8 1876.85 155.28 1876.85 155.28 1867.71 150.63 1867.71 150.63 1863.28 155.28 1863.28 155.28 1858.58 145.97 1858.58"/>
      <rect class="cls-3" x="89.91" y="1854.14" width="4.51" height="4.43"/>
    </g>
    <g class="cls-11">
      <g>
        <rect class="cls-3" x="34.01" y="56.67" width="4.43" height="27.64"/>
        <rect class="cls-3" x="34.01" y="43.1" width="4.43" height="4.43"/>
        <rect class="cls-3" x="34.01" y="15.69" width="4.43" height="22.71"/>
        <path class="cls-3" d="M43.15,15.69h13.57v9.14h9.14v36.78h.14v4.43h-13.84v9.14h-4.43v-13.57h13.71v-4.93h-18.28v-13.57h13.57v9.14h4.7v-13.84h-18.28v-4.43h9.14v-4.7h-9.14v-13.57ZM52.29,52.24v-4.7h-4.71v4.7h4.71ZM56.72,29.26v4.7h4.7v-4.7h-4.7ZM47.58,20.12v4.7h4.71v-4.7h-4.71Z"/>
        <polygon class="cls-3" points="61.42 70.74 65.86 70.74 65.86 84.31 43.15 84.31 43.15 79.88 52.29 79.88 52.29 75.31 56.72 75.31 56.72 79.88 61.42 79.88 61.42 70.74"/>
        <rect class="cls-3" x="61.42" y="15.69" width="4.43" height="4.43"/>
      </g>
    </g>
    <g class="cls-7">
      <g>
        <rect class="cls-3" x="15.69" y="34.01" width="27.64" height="4.43"/>
        <rect class="cls-3" x="52.47" y="34.01" width="4.43" height="4.43"/>
        <rect class="cls-3" x="61.6" y="34.01" width="22.71" height="4.43"/>
        <path class="cls-3" d="M84.31,43.15v13.57h-9.14v9.14h-36.78v.14h-4.43v-13.84h-9.14v-4.43h13.57v13.71h4.93v-18.28h13.57v13.57h-9.14v4.7h13.84v-18.28h4.43v9.14h4.7v-9.14h13.57ZM47.76,52.29h4.7v-4.71h-4.7v4.71ZM70.74,56.72h-4.7v4.7h4.7v-4.7ZM79.88,47.58h-4.7v4.71h4.7v-4.71Z"/>
        <polygon class="cls-3" points="29.26 61.42 29.26 65.86 15.69 65.86 15.69 43.15 20.12 43.15 20.12 52.29 24.69 52.29 24.69 56.72 20.12 56.72 20.12 61.42 29.26 61.42"/>
        <rect class="cls-3" x="79.88" y="61.42" width="4.43" height="4.43"/>
      </g>
    </g>
    <g class="cls-10">
      <g>
        <rect class="cls-3" x="995.69" y="34.01" width="27.64" height="4.43"/>
        <rect class="cls-3" x="1032.47" y="34.01" width="4.43" height="4.43"/>
        <rect class="cls-3" x="1041.6" y="34.01" width="22.71" height="4.43"/>
        <path class="cls-3" d="M1064.31,43.15v13.57h-9.14v9.14h-36.78v.14h-4.43v-13.84h-9.14v-4.43h13.57v13.71h4.93v-18.28h13.57v13.57h-9.14v4.7h13.84v-18.28h4.43v9.14h4.7v-9.14h13.57ZM1027.76,52.29h4.7v-4.71h-4.7v4.71ZM1050.74,56.72h-4.7v4.7h4.7v-4.7ZM1059.88,47.58h-4.7v4.71h4.7v-4.71Z"/>
        <polygon class="cls-3" points="1009.26 61.42 1009.26 65.86 995.69 65.86 995.69 43.15 1000.12 43.15 1000.12 52.29 1004.69 52.29 1004.69 56.72 1000.12 56.72 1000.12 61.42 1009.26 61.42"/>
        <rect class="cls-3" x="1059.88" y="61.42" width="4.43" height="4.43"/>
      </g>
    </g>
    <g class="cls-9">
      <g>
        <rect class="cls-3" x="1041.56" y="15.69" width="4.43" height="27.64"/>
        <rect class="cls-3" x="1041.56" y="52.47" width="4.43" height="4.43"/>
        <rect class="cls-3" x="1041.56" y="61.6" width="4.43" height="22.71"/>
        <path class="cls-3" d="M1036.85,84.31h-13.57v-9.14h-9.14v-36.78h-.14v-4.43h13.84v-9.14h4.43v13.57h-13.71v4.93h18.28v13.57h-13.57v-9.14h-4.7v13.84h18.28v4.43h-9.14v4.7h9.14v13.57ZM1027.71,47.76v4.7h4.71v-4.7h-4.71ZM1023.28,70.74v-4.7h-4.7v4.7h4.7ZM1032.42,79.88v-4.7h-4.71v4.7h4.71Z"/>
        <polygon class="cls-3" points="1018.58 29.26 1014.14 29.26 1014.14 15.69 1036.85 15.69 1036.85 20.12 1027.71 20.12 1027.71 24.69 1023.28 24.69 1023.28 20.12 1018.58 20.12 1018.58 29.26"/>
        <rect class="cls-3" x="1014.14" y="79.88" width="4.43" height="4.43"/>
      </g>
    </g>
    <g class="cls-4">
      <g>
        <rect class="cls-3" x="1041.56" y="1835.69" width="4.43" height="27.64"/>
        <rect class="cls-3" x="1041.56" y="1872.47" width="4.43" height="4.43"/>
        <rect class="cls-3" x="1041.56" y="1881.6" width="4.43" height="22.71"/>
        <path class="cls-3" d="M1036.85,1904.31h-13.57v-9.14h-9.14v-36.78h-.14v-4.43h13.84v-9.14h4.43v13.57h-13.71v4.93h18.28v13.57h-13.57v-9.14h-4.7v13.84h18.28v4.43h-9.14v4.7h9.14v13.57ZM1027.71,1867.76v4.7h4.71v-4.7h-4.71ZM1023.28,1890.74v-4.7h-4.7v4.7h4.7ZM1032.42,1899.88v-4.7h-4.71v4.7h4.71Z"/>
        <polygon class="cls-3" points="1018.58 1849.26 1014.14 1849.26 1014.14 1835.69 1036.85 1835.69 1036.85 1840.12 1027.71 1840.12 1027.71 1844.69 1023.28 1844.69 1023.28 1840.12 1018.58 1840.12 1018.58 1849.26"/>
        <rect class="cls-3" x="1014.14" y="1899.88" width="4.43" height="4.43"/>
      </g>
    </g>
    <g class="cls-8">
      <g>
        <rect class="cls-3" x="1036.67" y="1881.56" width="27.64" height="4.43"/>
        <rect class="cls-3" x="1023.1" y="1881.56" width="4.43" height="4.43"/>
        <rect class="cls-3" x="995.69" y="1881.56" width="22.71" height="4.43"/>
        <path class="cls-3" d="M995.69,1876.85v-13.57h9.14v-9.14h36.78v-.14h4.43v13.84h9.14v4.43h-13.57v-13.71h-4.93v18.28h-13.57v-13.57h9.14v-4.7h-13.84v18.28h-4.43v-9.14h-4.7v9.14h-13.57ZM1032.24,1867.71h-4.7v4.71h4.7v-4.71ZM1009.26,1863.28h4.7v-4.7h-4.7v4.7ZM1000.12,1872.42h4.7v-4.71h-4.7v4.71Z"/>
        <polygon class="cls-3" points="1050.74 1858.58 1050.74 1854.14 1064.31 1854.14 1064.31 1876.85 1059.88 1876.85 1059.88 1867.71 1055.31 1867.71 1055.31 1863.28 1059.88 1863.28 1059.88 1858.58 1050.74 1858.58"/>
        <rect class="cls-3" x="995.69" y="1854.14" width="4.43" height="4.43"/>
      </g>
    </g>
    <g class="cls-1">
      <g>
        <rect class="cls-3" x="56.67" y="1881.56" width="27.64" height="4.43"/>
        <rect class="cls-3" x="43.1" y="1881.56" width="4.43" height="4.43"/>
        <rect class="cls-3" x="15.69" y="1881.56" width="22.71" height="4.43"/>
        <path class="cls-3" d="M15.69,1876.85v-13.57h9.14v-9.14h36.78v-.14h4.43v13.84h9.14v4.43h-13.57v-13.71h-4.93v18.28h-13.57v-13.57h9.14v-4.7h-13.84v18.28h-4.43v-9.14h-4.7v9.14h-13.57ZM52.24,1867.71h-4.7v4.71h4.7v-4.71ZM29.26,1863.28h4.7v-4.7h-4.7v4.7ZM20.12,1872.42h4.7v-4.71h-4.7v4.71Z"/>
        <polygon class="cls-3" points="70.74 1858.58 70.74 1854.14 84.31 1854.14 84.31 1876.85 79.88 1876.85 79.88 1867.71 75.31 1867.71 75.31 1863.28 79.88 1863.28 79.88 1858.58 70.74 1858.58"/>
        <rect class="cls-3" x="15.69" y="1854.14" width="4.43" height="4.43"/>
      </g>
    </g>
    <g class="cls-2">
      <g>
        <rect class="cls-3" x="34.01" y="1876.67" width="4.43" height="27.64"/>
        <rect class="cls-3" x="34.01" y="1863.1" width="4.43" height="4.43"/>
        <rect class="cls-3" x="34.01" y="1835.69" width="4.43" height="22.71"/>
        <path class="cls-3" d="M43.15,1835.69h13.57v9.14h9.14v36.78h.14v4.43h-13.84v9.14h-4.43v-13.57h13.71v-4.93h-18.28v-13.57h13.57v9.14h4.7v-13.84h-18.28v-4.43h9.14v-4.7h-9.14v-13.57ZM52.29,1872.24v-4.7h-4.71v4.7h4.71ZM56.72,1849.26v4.7h4.7v-4.7h-4.7ZM47.58,1840.12v4.7h4.71v-4.7h-4.71Z"/>
        <polygon class="cls-3" points="61.42 1890.74 65.86 1890.74 65.86 1904.31 43.15 1904.31 43.15 1899.88 52.29 1899.88 52.29 1895.31 56.72 1895.31 56.72 1899.88 61.42 1899.88 61.42 1890.74"/>
        <rect class="cls-3" x="61.42" y="1835.69" width="4.43" height="4.43"/>
      </g>
    </g>
  </g>
</svg>