<?xml version="1.0" encoding="UTF-8"?>
<svg id="Layer_1" data-name="Layer 1" xmlns="http://www.w3.org/2000/svg" xmlns:xlink="http://www.w3.org/1999/xlink" viewBox="0 0 1080 1350">
  <defs>
    <style>
      .cls-1 {
        clip-path: url(#clippath-6);
      }

      .cls-2 {
        clip-path: url(#clippath-7);
      }

      .cls-3 {
        fill: #fdd600;
      }

      .cls-4 {
        clip-path: url(#clippath-4);
      }

      .cls-5 {
        fill: none;
      }

      .cls-6 {
        fill: #1c4d3c;
      }

      .cls-7 {
        clip-path: url(#clippath-1);
      }

      .cls-8 {
        clip-path: url(#clippath-5);
      }

      .cls-9 {
        clip-path: url(#clippath-3);
      }

      .cls-10 {
        clip-path: url(#clippath-2);
      }

      .cls-11 {
        clip-path: url(#clippath);
      }
    </style>
    <clipPath id="clippath">
      <polygon class="cls-5" points="66.24 84.31 66.24 65.99 34.26 34.01 34.26 84.31 66.24 84.31"/>
    </clipPath>
    <clipPath id="clippath-1">
      <polygon class="cls-5" points="84.56 65.99 66.24 65.99 34.26 34.01 84.56 34.01 84.56 65.99"/>
    </clipPath>
    <clipPath id="clippath-2">
      <polygon class="cls-5" points="995.44 65.99 1013.76 65.99 1045.74 34.01 995.44 34.01 995.44 65.99"/>
    </clipPath>
    <clipPath id="clippath-3">
      <polygon class="cls-5" points="1013.76 84.31 1013.76 65.99 1045.74 34.01 1045.74 84.31 1013.76 84.31"/>
    </clipPath>
    <clipPath id="clippath-4">
      <polygon class="cls-5" points="1013.76 1265.69 1013.76 1284.01 1045.74 1315.99 1045.74 1265.69 1013.76 1265.69"/>
    </clipPath>
    <clipPath id="clippath-5">
      <polygon class="cls-5" points="995.44 1284.01 1013.76 1284.01 1045.74 1315.99 995.44 1315.99 995.44 1284.01"/>
    </clipPath>
    <clipPath id="clippath-6">
      <polygon class="cls-5" points="84.56 1284.01 66.24 1284.01 34.26 1315.99 84.56 1315.99 84.56 1284.01"/>
    </clipPath>
    <clipPath id="clippath-7">
      <polygon class="cls-5" points="66.24 1265.69 66.24 1284.01 34.26 1315.99 34.26 1265.69 66.24 1265.69"/>
    </clipPath>
  </defs>
  <path class="cls-6" d="M25.28,25.95v1299.02h1029.63V25.95H25.28ZM1004.97,1275.03H75.22V75.9h929.74v1199.13Z"/>
  <g>
    <g>
      <rect class="cls-3" x="34.26" y="1232.83" width="4.43" height="27.41"/>
      <rect class="cls-3" x="34.26" y="1219.38" width="4.43" height="4.4"/>
      <rect class="cls-3" x="34.26" y="1192.19" width="4.43" height="22.52"/>
      <path class="cls-3" d="M43.4,1192.19h13.57v9.06h9.14v36.47h.14v4.4h-13.84v9.06h-4.43v-13.46h13.71v-4.89h-18.28v-13.46h13.57v9.06h4.7v-13.73h-18.28v-4.4h9.14v-4.66h-9.14v-13.46ZM52.54,1228.44v-4.67h-4.71v4.67h4.71ZM56.97,1205.65v4.66h4.7v-4.66h-4.7ZM47.83,1196.59v4.67h4.71v-4.67h-4.71Z"/>
      <polygon class="cls-3" points="61.67 1246.78 66.11 1246.78 66.11 1260.24 43.4 1260.24 43.4 1255.85 52.54 1255.85 52.54 1251.31 56.97 1251.31 56.97 1255.85 61.67 1255.85 61.67 1246.78"/>
      <rect class="cls-3" x="61.67" y="1192.19" width="4.43" height="4.4"/>
    </g>
    <g>
      <rect class="cls-3" x="34.26" y="1159.34" width="4.43" height="27.41"/>
      <rect class="cls-3" x="34.26" y="1145.88" width="4.43" height="4.4"/>
      <rect class="cls-3" x="34.26" y="1118.7" width="4.43" height="22.52"/>
      <path class="cls-3" d="M43.4,1118.7h13.57v9.06h9.14v36.47h.14v4.4h-13.84v9.06h-4.43v-13.46h13.71v-4.89h-18.28v-13.46h13.57v9.06h4.7v-13.73h-18.28v-4.4h9.14v-4.67h-9.14v-13.46ZM52.54,1154.94v-4.66h-4.71v4.66h4.71ZM56.97,1132.15v4.67h4.7v-4.67h-4.7ZM47.83,1123.09v4.67h4.71v-4.67h-4.71Z"/>
      <polygon class="cls-3" points="61.67 1173.29 66.11 1173.29 66.11 1186.75 43.4 1186.75 43.4 1182.35 52.54 1182.35 52.54 1177.82 56.97 1177.82 56.97 1182.35 61.67 1182.35 61.67 1173.29"/>
      <rect class="cls-3" x="61.67" y="1118.7" width="4.43" height="4.4"/>
    </g>
    <g>
      <rect class="cls-3" x="34.26" y="1085.84" width="4.43" height="27.41"/>
      <rect class="cls-3" x="34.26" y="1072.38" width="4.43" height="4.4"/>
      <rect class="cls-3" x="34.26" y="1045.2" width="4.43" height="22.52"/>
      <path class="cls-3" d="M43.4,1045.2h13.57v9.06h9.14v36.47h.14v4.4h-13.84v9.06h-4.43v-13.46h13.71v-4.89h-18.28v-13.46h13.57v9.06h4.7v-13.73h-18.28v-4.4h9.14v-4.67h-9.14v-13.46ZM52.54,1081.45v-4.67h-4.71v4.67h4.71ZM56.97,1058.66v4.67h4.7v-4.67h-4.7ZM47.83,1049.6v4.67h4.71v-4.67h-4.71Z"/>
      <polygon class="cls-3" points="61.67 1099.79 66.11 1099.79 66.11 1113.25 43.4 1113.25 43.4 1108.85 52.54 1108.85 52.54 1104.32 56.97 1104.32 56.97 1108.85 61.67 1108.85 61.67 1099.79"/>
      <rect class="cls-3" x="61.67" y="1045.2" width="4.43" height="4.4"/>
    </g>
    <g>
      <rect class="cls-3" x="34.26" y="1012.35" width="4.43" height="27.41"/>
      <rect class="cls-3" x="34.26" y="998.89" width="4.43" height="4.4"/>
      <rect class="cls-3" x="34.26" y="971.7" width="4.43" height="22.52"/>
      <path class="cls-3" d="M43.4,971.7h13.57v9.06h9.14v36.47h.14v4.4h-13.84v9.06h-4.43v-13.46h13.71v-4.89h-18.28v-13.46h13.57v9.06h4.7v-13.73h-18.28v-4.4h9.14v-4.67h-9.14v-13.46ZM52.54,1007.95v-4.67h-4.71v4.67h4.71ZM56.97,985.16v4.67h4.7v-4.67h-4.7ZM47.83,976.1v4.67h4.71v-4.67h-4.71Z"/>
      <polygon class="cls-3" points="61.67 1026.3 66.11 1026.3 66.11 1039.76 43.4 1039.76 43.4 1035.36 52.54 1035.36 52.54 1030.83 56.97 1030.83 56.97 1035.36 61.67 1035.36 61.67 1026.3"/>
      <rect class="cls-3" x="61.67" y="971.7" width="4.43" height="4.4"/>
    </g>
    <g>
      <rect class="cls-3" x="34.26" y="938.85" width="4.43" height="27.41"/>
      <rect class="cls-3" x="34.26" y="925.39" width="4.43" height="4.4"/>
      <rect class="cls-3" x="34.26" y="898.21" width="4.43" height="22.52"/>
      <path class="cls-3" d="M43.4,898.21h13.57v9.06h9.14v36.47h.14v4.4h-13.84v9.06h-4.43v-13.46h13.71v-4.89h-18.28v-13.46h13.57v9.06h4.7v-13.73h-18.28v-4.4h9.14v-4.67h-9.14v-13.46ZM52.54,934.45v-4.67h-4.71v4.67h4.71ZM56.97,911.67v4.67h4.7v-4.67h-4.7ZM47.83,902.61v4.67h4.71v-4.67h-4.71Z"/>
      <polygon class="cls-3" points="61.67 952.8 66.11 952.8 66.11 966.26 43.4 966.26 43.4 961.86 52.54 961.86 52.54 957.33 56.97 957.33 56.97 961.86 61.67 961.86 61.67 952.8"/>
      <rect class="cls-3" x="61.67" y="898.21" width="4.43" height="4.4"/>
    </g>
    <g>
      <rect class="cls-3" x="34.26" y="865.36" width="4.43" height="27.41"/>
      <rect class="cls-3" x="34.26" y="851.9" width="4.43" height="4.4"/>
      <rect class="cls-3" x="34.26" y="824.71" width="4.43" height="22.52"/>
      <path class="cls-3" d="M43.4,824.71h13.57v9.06h9.14v36.47h.14v4.4h-13.84v9.06h-4.43v-13.46h13.71v-4.89h-18.28v-13.46h13.57v9.06h4.7v-13.73h-18.28v-4.4h9.14v-4.66h-9.14v-13.46ZM52.54,860.96v-4.67h-4.71v4.67h4.71ZM56.97,838.17v4.66h4.7v-4.66h-4.7ZM47.83,829.11v4.67h4.71v-4.67h-4.71Z"/>
      <polygon class="cls-3" points="61.67 879.31 66.11 879.31 66.11 892.76 43.4 892.76 43.4 888.37 52.54 888.37 52.54 883.84 56.97 883.84 56.97 888.37 61.67 888.37 61.67 879.31"/>
      <rect class="cls-3" x="61.67" y="824.71" width="4.43" height="4.4"/>
    </g>
    <g>
      <rect class="cls-3" x="34.26" y="791.86" width="4.43" height="27.41"/>
      <rect class="cls-3" x="34.26" y="778.4" width="4.43" height="4.4"/>
      <rect class="cls-3" x="34.26" y="751.22" width="4.43" height="22.52"/>
      <path class="cls-3" d="M43.4,751.22h13.57v9.06h9.14v36.47h.14v4.4h-13.84v9.06h-4.43v-13.46h13.71v-4.89h-18.28v-13.46h13.57v9.06h4.7v-13.73h-18.28v-4.4h9.14v-4.67h-9.14v-13.46ZM52.54,787.46v-4.66h-4.71v4.66h4.71ZM56.97,764.67v4.67h4.7v-4.67h-4.7ZM47.83,755.61v4.67h4.71v-4.67h-4.71Z"/>
      <polygon class="cls-3" points="61.67 805.81 66.11 805.81 66.11 819.27 43.4 819.27 43.4 814.87 52.54 814.87 52.54 810.34 56.97 810.34 56.97 814.87 61.67 814.87 61.67 805.81"/>
      <rect class="cls-3" x="61.67" y="751.22" width="4.43" height="4.4"/>
    </g>
    <g>
      <rect class="cls-3" x="34.26" y="718.36" width="4.43" height="27.41"/>
      <rect class="cls-3" x="34.26" y="704.91" width="4.43" height="4.4"/>
      <rect class="cls-3" x="34.26" y="677.72" width="4.43" height="22.52"/>
      <path class="cls-3" d="M43.4,677.72h13.57v9.06h9.14v36.47h.14v4.4h-13.84v9.06h-4.43v-13.46h13.71v-4.89h-18.28v-13.46h13.57v9.06h4.7v-13.73h-18.28v-4.4h9.14v-4.67h-9.14v-13.46ZM52.54,713.97v-4.67h-4.71v4.67h4.71ZM56.97,691.18v4.67h4.7v-4.67h-4.7ZM47.83,682.12v4.67h4.71v-4.67h-4.71Z"/>
      <polygon class="cls-3" points="61.67 732.31 66.11 732.31 66.11 745.77 43.4 745.77 43.4 741.38 52.54 741.38 52.54 736.85 56.97 736.85 56.97 741.38 61.67 741.38 61.67 732.31"/>
      <rect class="cls-3" x="61.67" y="677.72" width="4.43" height="4.4"/>
    </g>
    <g>
      <rect class="cls-3" x="34.26" y="644.87" width="4.43" height="27.41"/>
      <rect class="cls-3" x="34.26" y="631.41" width="4.43" height="4.4"/>
      <rect class="cls-3" x="34.26" y="604.23" width="4.43" height="22.52"/>
      <path class="cls-3" d="M43.4,604.23h13.57v9.06h9.14v36.47h.14v4.4h-13.84v9.06h-4.43v-13.46h13.71v-4.89h-18.28v-13.46h13.57v9.06h4.7v-13.73h-18.28v-4.4h9.14v-4.67h-9.14v-13.46ZM52.54,640.47v-4.67h-4.71v4.67h4.71ZM56.97,617.68v4.67h4.7v-4.67h-4.7ZM47.83,608.62v4.66h4.71v-4.66h-4.71Z"/>
      <polygon class="cls-3" points="61.67 658.82 66.11 658.82 66.11 672.28 43.4 672.28 43.4 667.88 52.54 667.88 52.54 663.35 56.97 663.35 56.97 667.88 61.67 667.88 61.67 658.82"/>
      <rect class="cls-3" x="61.67" y="604.23" width="4.43" height="4.4"/>
    </g>
    <g>
      <rect class="cls-3" x="34.26" y="571.37" width="4.43" height="27.41"/>
      <rect class="cls-3" x="34.26" y="557.92" width="4.43" height="4.4"/>
      <rect class="cls-3" x="34.26" y="530.73" width="4.43" height="22.52"/>
      <path class="cls-3" d="M43.4,530.73h13.57v9.06h9.14v36.47h.14v4.4h-13.84v9.06h-4.43v-13.46h13.71v-4.89h-18.28v-13.46h13.57v9.06h4.7v-13.73h-18.28v-4.4h9.14v-4.66h-9.14v-13.46ZM52.54,566.98v-4.67h-4.71v4.67h4.71ZM56.97,544.19v4.66h4.7v-4.66h-4.7ZM47.83,535.13v4.67h4.71v-4.67h-4.71Z"/>
      <polygon class="cls-3" points="61.67 585.32 66.11 585.32 66.11 598.78 43.4 598.78 43.4 594.38 52.54 594.38 52.54 589.85 56.97 589.85 56.97 594.38 61.67 594.38 61.67 585.32"/>
      <rect class="cls-3" x="61.67" y="530.73" width="4.43" height="4.4"/>
    </g>
    <g>
      <rect class="cls-3" x="34.26" y="497.88" width="4.43" height="27.41"/>
      <rect class="cls-3" x="34.26" y="484.42" width="4.43" height="4.4"/>
      <rect class="cls-3" x="34.26" y="457.24" width="4.43" height="22.52"/>
      <path class="cls-3" d="M43.4,457.24h13.57v9.06h9.14v36.47h.14v4.4h-13.84v9.06h-4.43v-13.46h13.71v-4.89h-18.28v-13.46h13.57v9.06h4.7v-13.73h-18.28v-4.4h9.14v-4.67h-9.14v-13.46ZM52.54,493.48v-4.66h-4.71v4.66h4.71ZM56.97,470.69v4.67h4.7v-4.67h-4.7ZM47.83,461.63v4.67h4.71v-4.67h-4.71Z"/>
      <polygon class="cls-3" points="61.67 511.83 66.11 511.83 66.11 525.29 43.4 525.29 43.4 520.89 52.54 520.89 52.54 516.36 56.97 516.36 56.97 520.89 61.67 520.89 61.67 511.83"/>
      <rect class="cls-3" x="61.67" y="457.24" width="4.43" height="4.4"/>
    </g>
    <g>
      <rect class="cls-3" x="34.26" y="424.38" width="4.43" height="27.41"/>
      <rect class="cls-3" x="34.26" y="410.92" width="4.43" height="4.4"/>
      <rect class="cls-3" x="34.26" y="383.74" width="4.43" height="22.52"/>
      <path class="cls-3" d="M43.4,383.74h13.57v9.06h9.14v36.47h.14v4.4h-13.84v9.06h-4.43v-13.46h13.71v-4.89h-18.28v-13.46h13.57v9.06h4.7v-13.73h-18.28v-4.4h9.14v-4.67h-9.14v-13.46ZM52.54,419.99v-4.67h-4.71v4.67h4.71ZM56.97,397.2v4.67h4.7v-4.67h-4.7ZM47.83,388.14v4.67h4.71v-4.67h-4.71Z"/>
      <polygon class="cls-3" points="61.67 438.33 66.11 438.33 66.11 451.79 43.4 451.79 43.4 447.39 52.54 447.39 52.54 442.86 56.97 442.86 56.97 447.39 61.67 447.39 61.67 438.33"/>
      <rect class="cls-3" x="61.67" y="383.74" width="4.43" height="4.4"/>
    </g>
    <g>
      <rect class="cls-3" x="34.26" y="350.89" width="4.43" height="27.41"/>
      <rect class="cls-3" x="34.26" y="337.43" width="4.43" height="4.4"/>
      <rect class="cls-3" x="34.26" y="310.24" width="4.43" height="22.52"/>
      <path class="cls-3" d="M43.4,310.24h13.57v9.06h9.14v36.47h.14v4.4h-13.84v9.06h-4.43v-13.46h13.71v-4.89h-18.28v-13.46h13.57v9.06h4.7v-13.73h-18.28v-4.4h9.14v-4.67h-9.14v-13.46ZM52.54,346.49v-4.67h-4.71v4.67h4.71ZM56.97,323.7v4.67h4.7v-4.67h-4.7ZM47.83,314.64v4.67h4.71v-4.67h-4.71Z"/>
      <polygon class="cls-3" points="61.67 364.84 66.11 364.84 66.11 378.3 43.4 378.3 43.4 373.9 52.54 373.9 52.54 369.37 56.97 369.37 56.97 373.9 61.67 373.9 61.67 364.84"/>
      <rect class="cls-3" x="61.67" y="310.24" width="4.43" height="4.4"/>
    </g>
    <g>
      <rect class="cls-3" x="34.26" y="277.39" width="4.43" height="27.41"/>
      <rect class="cls-3" x="34.26" y="263.93" width="4.43" height="4.4"/>
      <rect class="cls-3" x="34.26" y="236.75" width="4.43" height="22.52"/>
      <path class="cls-3" d="M43.4,236.75h13.57v9.06h9.14v36.47h.14v4.4h-13.84v9.06h-4.43v-13.46h13.71v-4.89h-18.28v-13.46h13.57v9.06h4.7v-13.73h-18.28v-4.4h9.14v-4.67h-9.14v-13.46ZM52.54,272.99v-4.67h-4.71v4.67h4.71ZM56.97,250.21v4.67h4.7v-4.67h-4.7ZM47.83,241.14v4.67h4.71v-4.67h-4.71Z"/>
      <polygon class="cls-3" points="61.67 291.34 66.11 291.34 66.11 304.8 43.4 304.8 43.4 300.4 52.54 300.4 52.54 295.87 56.97 295.87 56.97 300.4 61.67 300.4 61.67 291.34"/>
      <rect class="cls-3" x="61.67" y="236.75" width="4.43" height="4.4"/>
    </g>
    <g>
      <rect class="cls-3" x="34.26" y="203.89" width="4.43" height="27.41"/>
      <rect class="cls-3" x="34.26" y="190.44" width="4.43" height="4.4"/>
      <rect class="cls-3" x="34.26" y="163.25" width="4.43" height="22.52"/>
      <path class="cls-3" d="M43.4,163.25h13.57v9.06h9.14v36.47h.14v4.4h-13.84v9.06h-4.43v-13.46h13.71v-4.89h-18.28v-13.46h13.57v9.06h4.7v-13.73h-18.28v-4.4h9.14v-4.67h-9.14v-13.46ZM52.54,199.5v-4.67h-4.71v4.67h4.71ZM56.97,176.71v4.67h4.7v-4.67h-4.7ZM47.83,167.65v4.67h4.71v-4.67h-4.71Z"/>
      <polygon class="cls-3" points="61.67 217.85 66.11 217.85 66.11 231.3 43.4 231.3 43.4 226.91 52.54 226.91 52.54 222.38 56.97 222.38 56.97 226.91 61.67 226.91 61.67 217.85"/>
      <rect class="cls-3" x="61.67" y="163.25" width="4.43" height="4.4"/>
    </g>
    <g>
      <rect class="cls-3" x="34.26" y="130.4" width="4.43" height="27.41"/>
      <rect class="cls-3" x="34.26" y="116.94" width="4.43" height="4.4"/>
      <rect class="cls-3" x="34.26" y="89.76" width="4.43" height="22.52"/>
      <path class="cls-3" d="M43.4,89.76h13.57v9.06h9.14v36.47h.14v4.4h-13.84v9.06h-4.43v-13.46h13.71v-4.89h-18.28v-13.46h13.57v9.06h4.7v-13.73h-18.28v-4.4h9.14v-4.67h-9.14v-13.46ZM52.54,126v-4.67h-4.71v4.67h4.71ZM56.97,103.21v4.67h4.7v-4.67h-4.7ZM47.83,94.15v4.67h4.71v-4.67h-4.71Z"/>
      <polygon class="cls-3" points="61.67 144.35 66.11 144.35 66.11 157.81 43.4 157.81 43.4 153.41 52.54 153.41 52.54 148.88 56.97 148.88 56.97 153.41 61.67 153.41 61.67 144.35"/>
      <rect class="cls-3" x="61.67" y="89.76" width="4.43" height="4.4"/>
    </g>
    <g>
      <rect class="cls-3" x="90.15" y="34.01" width="28.13" height="4.43"/>
      <rect class="cls-3" x="127.59" y="34.01" width="4.51" height="4.43"/>
      <rect class="cls-3" x="136.89" y="34.01" width="23.12" height="4.43"/>
      <path class="cls-3" d="M160,43.15v13.57h-9.3v9.14h-37.44v.14h-4.51v-13.84h-9.3v-4.43h13.81v13.71h5.02v-18.28h13.81v13.57h-9.3v4.7h14.09v-18.28h4.51v9.14h4.79v-9.14h13.81ZM122.8,52.29h4.79v-4.71h-4.79v4.71ZM146.19,56.72h-4.79v4.7h4.79v-4.7ZM155.49,47.58h-4.79v4.71h4.79v-4.71Z"/>
      <polygon class="cls-3" points="103.97 61.42 103.97 65.86 90.15 65.86 90.15 43.15 94.67 43.15 94.67 52.29 99.32 52.29 99.32 56.72 94.67 56.72 94.67 61.42 103.97 61.42"/>
      <rect class="cls-3" x="155.49" y="61.42" width="4.51" height="4.43"/>
    </g>
    <g>
      <rect class="cls-3" x="165.59" y="34.01" width="28.13" height="4.43"/>
      <rect class="cls-3" x="203.03" y="34.01" width="4.51" height="4.43"/>
      <rect class="cls-3" x="212.33" y="34.01" width="23.12" height="4.43"/>
      <path class="cls-3" d="M235.44,43.15v13.57h-9.3v9.14h-37.44v.14h-4.51v-13.84h-9.3v-4.43h13.81v13.71h5.02v-18.28h13.81v13.57h-9.3v4.7h14.09v-18.28h4.51v9.14h4.79v-9.14h13.81ZM198.24,52.29h4.79v-4.71h-4.79v4.71ZM221.63,56.72h-4.79v4.7h4.79v-4.7ZM230.93,47.58h-4.79v4.71h4.79v-4.71Z"/>
      <polygon class="cls-3" points="179.41 61.42 179.41 65.86 165.59 65.86 165.59 43.15 170.11 43.15 170.11 52.29 174.76 52.29 174.76 56.72 170.11 56.72 170.11 61.42 179.41 61.42"/>
      <rect class="cls-3" x="230.93" y="61.42" width="4.51" height="4.43"/>
    </g>
    <g>
      <rect class="cls-3" x="241.03" y="34.01" width="28.13" height="4.43"/>
      <rect class="cls-3" x="278.47" y="34.01" width="4.51" height="4.43"/>
      <rect class="cls-3" x="287.77" y="34.01" width="23.12" height="4.43"/>
      <path class="cls-3" d="M310.89,43.15v13.57h-9.3v9.14h-37.44v.14h-4.51v-13.84h-9.3v-4.43h13.81v13.71h5.02v-18.28h13.81v13.57h-9.3v4.7h14.09v-18.28h4.51v9.14h4.79v-9.14h13.81ZM273.68,52.29h4.79v-4.71h-4.79v4.71ZM297.07,56.72h-4.79v4.7h4.79v-4.7ZM306.37,47.58h-4.79v4.71h4.79v-4.71Z"/>
      <polygon class="cls-3" points="254.85 61.42 254.85 65.86 241.03 65.86 241.03 43.15 245.55 43.15 245.55 52.29 250.2 52.29 250.2 56.72 245.55 56.72 245.55 61.42 254.85 61.42"/>
      <rect class="cls-3" x="306.37" y="61.42" width="4.51" height="4.43"/>
    </g>
    <g>
      <rect class="cls-3" x="316.47" y="34.01" width="28.13" height="4.43"/>
      <rect class="cls-3" x="353.91" y="34.01" width="4.51" height="4.43"/>
      <rect class="cls-3" x="363.21" y="34.01" width="23.12" height="4.43"/>
      <path class="cls-3" d="M386.33,43.15v13.57h-9.3v9.14h-37.44v.14h-4.51v-13.84h-9.3v-4.43h13.81v13.71h5.02v-18.28h13.81v13.57h-9.3v4.7h14.09v-18.28h4.51v9.14h4.79v-9.14h13.81ZM349.12,52.29h4.79v-4.71h-4.79v4.71ZM372.51,56.72h-4.79v4.7h4.79v-4.7ZM381.81,47.58h-4.79v4.71h4.79v-4.71Z"/>
      <polygon class="cls-3" points="330.29 61.42 330.29 65.86 316.47 65.86 316.47 43.15 320.99 43.15 320.99 52.29 325.64 52.29 325.64 56.72 320.99 56.72 320.99 61.42 330.29 61.42"/>
      <rect class="cls-3" x="381.81" y="61.42" width="4.51" height="4.43"/>
    </g>
    <g>
      <rect class="cls-3" x="391.91" y="34.01" width="28.13" height="4.43"/>
      <rect class="cls-3" x="429.35" y="34.01" width="4.51" height="4.43"/>
      <rect class="cls-3" x="438.65" y="34.01" width="23.12" height="4.43"/>
      <path class="cls-3" d="M461.77,43.15v13.57h-9.3v9.14h-37.44v.14h-4.51v-13.84h-9.3v-4.43h13.81v13.71h5.02v-18.28h13.81v13.57h-9.3v4.7h14.09v-18.28h4.51v9.14h4.79v-9.14h13.81ZM424.56,52.29h4.79v-4.71h-4.79v4.71ZM447.95,56.72h-4.79v4.7h4.79v-4.7ZM457.25,47.58h-4.79v4.71h4.79v-4.71Z"/>
      <polygon class="cls-3" points="405.73 61.42 405.73 65.86 391.91 65.86 391.91 43.15 396.43 43.15 396.43 52.29 401.08 52.29 401.08 56.72 396.43 56.72 396.43 61.42 405.73 61.42"/>
      <rect class="cls-3" x="457.25" y="61.42" width="4.51" height="4.43"/>
    </g>
    <g>
      <rect class="cls-3" x="467.35" y="34.01" width="28.13" height="4.43"/>
      <rect class="cls-3" x="504.79" y="34.01" width="4.51" height="4.43"/>
      <rect class="cls-3" x="514.09" y="34.01" width="23.12" height="4.43"/>
      <path class="cls-3" d="M537.21,43.15v13.57h-9.3v9.14h-37.44v.14h-4.51v-13.84h-9.3v-4.43h13.81v13.71h5.02v-18.28h13.81v13.57h-9.3v4.7h14.09v-18.28h4.51v9.14h4.79v-9.14h13.81ZM500,52.29h4.79v-4.71h-4.79v4.71ZM523.39,56.72h-4.79v4.7h4.79v-4.7ZM532.69,47.58h-4.79v4.71h4.79v-4.71Z"/>
      <polygon class="cls-3" points="481.17 61.42 481.17 65.86 467.35 65.86 467.35 43.15 471.87 43.15 471.87 52.29 476.52 52.29 476.52 56.72 471.87 56.72 471.87 61.42 481.17 61.42"/>
      <rect class="cls-3" x="532.69" y="61.42" width="4.51" height="4.43"/>
    </g>
    <g>
      <rect class="cls-3" x="542.79" y="34.01" width="28.13" height="4.43"/>
      <rect class="cls-3" x="580.23" y="34.01" width="4.51" height="4.43"/>
      <rect class="cls-3" x="589.53" y="34.01" width="23.12" height="4.43"/>
      <path class="cls-3" d="M612.65,43.15v13.57h-9.3v9.14h-37.44v.14h-4.51v-13.84h-9.3v-4.43h13.81v13.71h5.02v-18.28h13.81v13.57h-9.3v4.7h14.09v-18.28h4.51v9.14h4.79v-9.14h13.81ZM575.44,52.29h4.79v-4.71h-4.79v4.71ZM598.83,56.72h-4.79v4.7h4.79v-4.7ZM608.13,47.58h-4.79v4.71h4.79v-4.71Z"/>
      <polygon class="cls-3" points="556.61 61.42 556.61 65.86 542.79 65.86 542.79 43.15 547.31 43.15 547.31 52.29 551.96 52.29 551.96 56.72 547.31 56.72 547.31 61.42 556.61 61.42"/>
      <rect class="cls-3" x="608.13" y="61.42" width="4.51" height="4.43"/>
    </g>
    <g>
      <rect class="cls-3" x="618.23" y="34.01" width="28.13" height="4.43"/>
      <rect class="cls-3" x="655.67" y="34.01" width="4.51" height="4.43"/>
      <rect class="cls-3" x="664.97" y="34.01" width="23.12" height="4.43"/>
      <path class="cls-3" d="M688.09,43.15v13.57h-9.3v9.14h-37.44v.14h-4.51v-13.84h-9.3v-4.43h13.81v13.71h5.02v-18.28h13.81v13.57h-9.3v4.7h14.09v-18.28h4.51v9.14h4.79v-9.14h13.81ZM650.88,52.29h4.79v-4.71h-4.79v4.71ZM674.27,56.72h-4.79v4.7h4.79v-4.7ZM683.57,47.58h-4.79v4.71h4.79v-4.71Z"/>
      <polygon class="cls-3" points="632.05 61.42 632.05 65.86 618.23 65.86 618.23 43.15 622.75 43.15 622.75 52.29 627.4 52.29 627.4 56.72 622.75 56.72 622.75 61.42 632.05 61.42"/>
      <rect class="cls-3" x="683.57" y="61.42" width="4.51" height="4.43"/>
    </g>
    <g>
      <rect class="cls-3" x="693.67" y="34.01" width="28.13" height="4.43"/>
      <rect class="cls-3" x="731.11" y="34.01" width="4.51" height="4.43"/>
      <rect class="cls-3" x="740.41" y="34.01" width="23.12" height="4.43"/>
      <path class="cls-3" d="M763.53,43.15v13.57h-9.3v9.14h-37.44v.14h-4.51v-13.84h-9.3v-4.43h13.81v13.71h5.02v-18.28h13.81v13.57h-9.3v4.7h14.09v-18.28h4.51v9.14h4.79v-9.14h13.81ZM726.32,52.29h4.79v-4.71h-4.79v4.71ZM749.71,56.72h-4.79v4.7h4.79v-4.7ZM759.01,47.58h-4.79v4.71h4.79v-4.71Z"/>
      <polygon class="cls-3" points="707.49 61.42 707.49 65.86 693.67 65.86 693.67 43.15 698.19 43.15 698.19 52.29 702.84 52.29 702.84 56.72 698.19 56.72 698.19 61.42 707.49 61.42"/>
      <rect class="cls-3" x="759.01" y="61.42" width="4.51" height="4.43"/>
    </g>
    <g>
      <rect class="cls-3" x="769.11" y="34.01" width="28.13" height="4.43"/>
      <rect class="cls-3" x="806.55" y="34.01" width="4.51" height="4.43"/>
      <rect class="cls-3" x="815.85" y="34.01" width="23.12" height="4.43"/>
      <path class="cls-3" d="M838.97,43.15v13.57h-9.3v9.14h-37.44v.14h-4.51v-13.84h-9.3v-4.43h13.81v13.71h5.02v-18.28h13.81v13.57h-9.3v4.7h14.09v-18.28h4.51v9.14h4.79v-9.14h13.81ZM801.76,52.29h4.79v-4.71h-4.79v4.71ZM825.15,56.72h-4.79v4.7h4.79v-4.7ZM834.45,47.58h-4.79v4.71h4.79v-4.71Z"/>
      <polygon class="cls-3" points="782.93 61.42 782.93 65.86 769.11 65.86 769.11 43.15 773.63 43.15 773.63 52.29 778.28 52.29 778.28 56.72 773.63 56.72 773.63 61.42 782.93 61.42"/>
      <rect class="cls-3" x="834.45" y="61.42" width="4.51" height="4.43"/>
    </g>
    <g>
      <rect class="cls-3" x="844.56" y="34.01" width="28.13" height="4.43"/>
      <rect class="cls-3" x="881.99" y="34.01" width="4.51" height="4.43"/>
      <rect class="cls-3" x="891.29" y="34.01" width="23.12" height="4.43"/>
      <path class="cls-3" d="M914.41,43.15v13.57h-9.3v9.14h-37.44v.14h-4.51v-13.84h-9.3v-4.43h13.81v13.71h5.02v-18.28h13.81v13.57h-9.3v4.7h14.09v-18.28h4.51v9.14h4.79v-9.14h13.81ZM877.2,52.29h4.79v-4.71h-4.79v4.71ZM900.59,56.72h-4.79v4.7h4.79v-4.7ZM909.89,47.58h-4.79v4.71h4.79v-4.71Z"/>
      <polygon class="cls-3" points="858.37 61.42 858.37 65.86 844.56 65.86 844.56 43.15 849.07 43.15 849.07 52.29 853.72 52.29 853.72 56.72 849.07 56.72 849.07 61.42 858.37 61.42"/>
      <rect class="cls-3" x="909.89" y="61.42" width="4.51" height="4.43"/>
    </g>
    <g>
      <rect class="cls-3" x="920" y="34.01" width="28.13" height="4.43"/>
      <rect class="cls-3" x="957.43" y="34.01" width="4.51" height="4.43"/>
      <rect class="cls-3" x="966.73" y="34.01" width="23.12" height="4.43"/>
      <path class="cls-3" d="M989.85,43.15v13.57h-9.3v9.14h-37.44v.14h-4.51v-13.84h-9.3v-4.43h13.81v13.71h5.02v-18.28h13.81v13.57h-9.3v4.7h14.09v-18.28h4.51v9.14h4.79v-9.14h13.81ZM952.64,52.29h4.79v-4.71h-4.79v4.71ZM976.03,56.72h-4.79v4.7h4.79v-4.7ZM985.33,47.58h-4.79v4.71h4.79v-4.71Z"/>
      <polygon class="cls-3" points="933.81 61.42 933.81 65.86 920 65.86 920 43.15 924.51 43.15 924.51 52.29 929.16 52.29 929.16 56.72 924.51 56.72 924.51 61.42 933.81 61.42"/>
      <rect class="cls-3" x="985.33" y="61.42" width="4.51" height="4.43"/>
    </g>
    <g>
      <rect class="cls-3" x="1041.31" y="89.76" width="4.43" height="27.41"/>
      <rect class="cls-3" x="1041.31" y="126.23" width="4.43" height="4.4"/>
      <rect class="cls-3" x="1041.31" y="135.29" width="4.43" height="22.52"/>
      <path class="cls-3" d="M1036.6,157.81h-13.57v-9.06h-9.14v-36.47h-.14v-4.4h13.84v-9.06h4.43v13.46h-13.71v4.89h18.28v13.46h-13.57v-9.06h-4.7v13.73h18.28v4.4h-9.14v4.67h9.14v13.46ZM1027.46,121.56v4.67h4.71v-4.67h-4.71ZM1023.03,144.35v-4.67h-4.7v4.67h4.7ZM1032.17,153.41v-4.67h-4.71v4.67h4.71Z"/>
      <polygon class="cls-3" points="1018.33 103.22 1013.89 103.22 1013.89 89.76 1036.6 89.76 1036.6 94.15 1027.46 94.15 1027.46 98.69 1023.03 98.69 1023.03 94.15 1018.33 94.15 1018.33 103.22"/>
      <rect class="cls-3" x="1013.89" y="153.41" width="4.43" height="4.4"/>
    </g>
    <g>
      <rect class="cls-3" x="1041.31" y="163.25" width="4.43" height="27.41"/>
      <rect class="cls-3" x="1041.31" y="199.72" width="4.43" height="4.4"/>
      <rect class="cls-3" x="1041.31" y="208.78" width="4.43" height="22.52"/>
      <path class="cls-3" d="M1036.6,231.3h-13.57v-9.06h-9.14v-36.47h-.14v-4.4h13.84v-9.06h4.43v13.46h-13.71v4.89h18.28v13.46h-13.57v-9.06h-4.7v13.73h18.28v4.4h-9.14v4.67h9.14v13.46ZM1027.46,195.06v4.67h4.71v-4.67h-4.71ZM1023.03,217.85v-4.67h-4.7v4.67h4.7ZM1032.17,226.91v-4.67h-4.71v4.67h4.71Z"/>
      <polygon class="cls-3" points="1018.33 176.71 1013.89 176.71 1013.89 163.25 1036.6 163.25 1036.6 167.65 1027.46 167.65 1027.46 172.18 1023.03 172.18 1023.03 167.65 1018.33 167.65 1018.33 176.71"/>
      <rect class="cls-3" x="1013.89" y="226.91" width="4.43" height="4.4"/>
    </g>
    <g>
      <rect class="cls-3" x="1041.31" y="236.75" width="4.43" height="27.41"/>
      <rect class="cls-3" x="1041.31" y="273.22" width="4.43" height="4.4"/>
      <rect class="cls-3" x="1041.31" y="282.28" width="4.43" height="22.52"/>
      <path class="cls-3" d="M1036.6,304.8h-13.57v-9.06h-9.14v-36.47h-.14v-4.4h13.84v-9.06h4.43v13.46h-13.71v4.89h18.28v13.46h-13.57v-9.06h-4.7v13.73h18.28v4.4h-9.14v4.67h9.14v13.46ZM1027.46,268.55v4.67h4.71v-4.67h-4.71ZM1023.03,291.34v-4.67h-4.7v4.67h4.7ZM1032.17,300.4v-4.67h-4.71v4.67h4.71Z"/>
      <polygon class="cls-3" points="1018.33 250.21 1013.89 250.21 1013.89 236.75 1036.6 236.75 1036.6 241.15 1027.46 241.15 1027.46 245.68 1023.03 245.68 1023.03 241.15 1018.33 241.15 1018.33 250.21"/>
      <rect class="cls-3" x="1013.89" y="300.4" width="4.43" height="4.4"/>
    </g>
    <g>
      <rect class="cls-3" x="1041.31" y="310.24" width="4.43" height="27.41"/>
      <rect class="cls-3" x="1041.31" y="346.71" width="4.43" height="4.4"/>
      <rect class="cls-3" x="1041.31" y="355.78" width="4.43" height="22.52"/>
      <path class="cls-3" d="M1036.6,378.3h-13.57v-9.06h-9.14v-36.47h-.14v-4.4h13.84v-9.06h4.43v13.46h-13.71v4.89h18.28v13.46h-13.57v-9.06h-4.7v13.73h18.28v4.4h-9.14v4.67h9.14v13.46ZM1027.46,342.05v4.67h4.71v-4.67h-4.71ZM1023.03,364.84v-4.67h-4.7v4.67h4.7ZM1032.17,373.9v-4.67h-4.71v4.67h4.71Z"/>
      <polygon class="cls-3" points="1018.33 323.7 1013.89 323.7 1013.89 310.24 1036.6 310.24 1036.6 314.64 1027.46 314.64 1027.46 319.17 1023.03 319.17 1023.03 314.64 1018.33 314.64 1018.33 323.7"/>
      <rect class="cls-3" x="1013.89" y="373.9" width="4.43" height="4.4"/>
    </g>
    <g>
      <rect class="cls-3" x="1041.31" y="383.74" width="4.43" height="27.41"/>
      <rect class="cls-3" x="1041.31" y="420.21" width="4.43" height="4.4"/>
      <rect class="cls-3" x="1041.31" y="429.27" width="4.43" height="22.52"/>
      <path class="cls-3" d="M1036.6,451.79h-13.57v-9.06h-9.14v-36.47h-.14v-4.4h13.84v-9.06h4.43v13.46h-13.71v4.89h18.28v13.46h-13.57v-9.06h-4.7v13.73h18.28v4.4h-9.14v4.67h9.14v13.46ZM1027.46,415.55v4.67h4.71v-4.67h-4.71ZM1023.03,438.33v-4.67h-4.7v4.67h4.7ZM1032.17,447.39v-4.67h-4.71v4.67h4.71Z"/>
      <polygon class="cls-3" points="1018.33 397.2 1013.89 397.2 1013.89 383.74 1036.6 383.74 1036.6 388.14 1027.46 388.14 1027.46 392.67 1023.03 392.67 1023.03 388.14 1018.33 388.14 1018.33 397.2"/>
      <rect class="cls-3" x="1013.89" y="447.39" width="4.43" height="4.4"/>
    </g>
    <g>
      <rect class="cls-3" x="1041.31" y="457.24" width="4.43" height="27.41"/>
      <rect class="cls-3" x="1041.31" y="493.71" width="4.43" height="4.4"/>
      <rect class="cls-3" x="1041.31" y="502.77" width="4.43" height="22.52"/>
      <path class="cls-3" d="M1036.6,525.29h-13.57v-9.06h-9.14v-36.47h-.14v-4.4h13.84v-9.06h4.43v13.46h-13.71v4.89h18.28v13.46h-13.57v-9.06h-4.7v13.73h18.28v4.4h-9.14v4.67h9.14v13.46ZM1027.46,489.04v4.67h4.71v-4.67h-4.71ZM1023.03,511.83v-4.67h-4.7v4.67h4.7ZM1032.17,520.89v-4.67h-4.71v4.67h4.71Z"/>
      <polygon class="cls-3" points="1018.33 470.69 1013.89 470.69 1013.89 457.24 1036.6 457.24 1036.6 461.63 1027.46 461.63 1027.46 466.16 1023.03 466.16 1023.03 461.63 1018.33 461.63 1018.33 470.69"/>
      <rect class="cls-3" x="1013.89" y="520.89" width="4.43" height="4.4"/>
    </g>
    <g>
      <rect class="cls-3" x="1041.31" y="530.73" width="4.43" height="27.41"/>
      <rect class="cls-3" x="1041.31" y="567.2" width="4.43" height="4.4"/>
      <rect class="cls-3" x="1041.31" y="576.26" width="4.43" height="22.52"/>
      <path class="cls-3" d="M1036.6,598.78h-13.57v-9.06h-9.14v-36.47h-.14v-4.4h13.84v-9.06h4.43v13.46h-13.71v4.89h18.28v13.46h-13.57v-9.06h-4.7v13.73h18.28v4.4h-9.14v4.67h9.14v13.46ZM1027.46,562.54v4.67h4.71v-4.67h-4.71ZM1023.03,585.32v-4.67h-4.7v4.67h4.7ZM1032.17,594.39v-4.66h-4.71v4.66h4.71Z"/>
      <polygon class="cls-3" points="1018.33 544.19 1013.89 544.19 1013.89 530.73 1036.6 530.73 1036.6 535.13 1027.46 535.13 1027.46 539.66 1023.03 539.66 1023.03 535.13 1018.33 535.13 1018.33 544.19"/>
      <rect class="cls-3" x="1013.89" y="594.39" width="4.43" height="4.4"/>
    </g>
    <g>
      <rect class="cls-3" x="1041.31" y="604.23" width="4.43" height="27.41"/>
      <rect class="cls-3" x="1041.31" y="640.7" width="4.43" height="4.4"/>
      <rect class="cls-3" x="1041.31" y="649.76" width="4.43" height="22.52"/>
      <path class="cls-3" d="M1036.6,672.28h-13.57v-9.06h-9.14v-36.47h-.14v-4.4h13.84v-9.06h4.43v13.46h-13.71v4.89h18.28v13.46h-13.57v-9.06h-4.7v13.73h18.28v4.4h-9.14v4.66h9.14v13.46ZM1027.46,636.03v4.67h4.71v-4.67h-4.71ZM1023.03,658.82v-4.66h-4.7v4.66h4.7ZM1032.17,667.88v-4.67h-4.71v4.67h4.71Z"/>
      <polygon class="cls-3" points="1018.33 617.69 1013.89 617.69 1013.89 604.23 1036.6 604.23 1036.6 608.62 1027.46 608.62 1027.46 613.15 1023.03 613.15 1023.03 608.62 1018.33 608.62 1018.33 617.69"/>
      <rect class="cls-3" x="1013.89" y="667.88" width="4.43" height="4.4"/>
    </g>
    <g>
      <rect class="cls-3" x="1041.31" y="677.72" width="4.43" height="27.41"/>
      <rect class="cls-3" x="1041.31" y="714.19" width="4.43" height="4.4"/>
      <rect class="cls-3" x="1041.31" y="723.25" width="4.43" height="22.52"/>
      <path class="cls-3" d="M1036.6,745.77h-13.57v-9.06h-9.14v-36.47h-.14v-4.4h13.84v-9.06h4.43v13.46h-13.71v4.89h18.28v13.46h-13.57v-9.06h-4.7v13.73h18.28v4.4h-9.14v4.67h9.14v13.46ZM1027.46,709.53v4.66h4.71v-4.66h-4.71ZM1023.03,732.32v-4.67h-4.7v4.67h4.7ZM1032.17,741.38v-4.67h-4.71v4.67h4.71Z"/>
      <polygon class="cls-3" points="1018.33 691.18 1013.89 691.18 1013.89 677.72 1036.6 677.72 1036.6 682.12 1027.46 682.12 1027.46 686.65 1023.03 686.65 1023.03 682.12 1018.33 682.12 1018.33 691.18"/>
      <rect class="cls-3" x="1013.89" y="741.38" width="4.43" height="4.4"/>
    </g>
    <g>
      <rect class="cls-3" x="1041.31" y="751.22" width="4.43" height="27.41"/>
      <rect class="cls-3" x="1041.31" y="787.69" width="4.43" height="4.4"/>
      <rect class="cls-3" x="1041.31" y="796.75" width="4.43" height="22.52"/>
      <path class="cls-3" d="M1036.6,819.27h-13.57v-9.06h-9.14v-36.47h-.14v-4.4h13.84v-9.06h4.43v13.46h-13.71v4.89h18.28v13.46h-13.57v-9.06h-4.7v13.73h18.28v4.4h-9.14v4.67h9.14v13.46ZM1027.46,783.02v4.67h4.71v-4.67h-4.71ZM1023.03,805.81v-4.67h-4.7v4.67h4.7ZM1032.17,814.87v-4.67h-4.71v4.67h4.71Z"/>
      <polygon class="cls-3" points="1018.33 764.68 1013.89 764.68 1013.89 751.22 1036.6 751.22 1036.6 755.62 1027.46 755.62 1027.46 760.15 1023.03 760.15 1023.03 755.62 1018.33 755.62 1018.33 764.68"/>
      <rect class="cls-3" x="1013.89" y="814.87" width="4.43" height="4.4"/>
    </g>
    <g>
      <rect class="cls-3" x="1041.31" y="824.71" width="4.43" height="27.41"/>
      <rect class="cls-3" x="1041.31" y="861.18" width="4.43" height="4.4"/>
      <rect class="cls-3" x="1041.31" y="870.24" width="4.43" height="22.52"/>
      <path class="cls-3" d="M1036.6,892.76h-13.57v-9.06h-9.14v-36.47h-.14v-4.4h13.84v-9.06h4.43v13.46h-13.71v4.89h18.28v13.46h-13.57v-9.06h-4.7v13.73h18.28v4.4h-9.14v4.67h9.14v13.46ZM1027.46,856.52v4.67h4.71v-4.67h-4.71ZM1023.03,879.31v-4.67h-4.7v4.67h4.7ZM1032.17,888.37v-4.66h-4.71v4.66h4.71Z"/>
      <polygon class="cls-3" points="1018.33 838.17 1013.89 838.17 1013.89 824.71 1036.6 824.71 1036.6 829.11 1027.46 829.11 1027.46 833.64 1023.03 833.64 1023.03 829.11 1018.33 829.11 1018.33 838.17"/>
      <rect class="cls-3" x="1013.89" y="888.37" width="4.43" height="4.4"/>
    </g>
    <g>
      <rect class="cls-3" x="1041.31" y="898.21" width="4.43" height="27.41"/>
      <rect class="cls-3" x="1041.31" y="934.68" width="4.43" height="4.4"/>
      <rect class="cls-3" x="1041.31" y="943.74" width="4.43" height="22.52"/>
      <path class="cls-3" d="M1036.6,966.26h-13.57v-9.06h-9.14v-36.47h-.14v-4.4h13.84v-9.06h4.43v13.46h-13.71v4.89h18.28v13.46h-13.57v-9.06h-4.7v13.73h18.28v4.4h-9.14v4.67h9.14v13.46ZM1027.46,930.01v4.67h4.71v-4.67h-4.71ZM1023.03,952.8v-4.67h-4.7v4.67h4.7ZM1032.17,961.86v-4.67h-4.71v4.67h4.71Z"/>
      <polygon class="cls-3" points="1018.33 911.67 1013.89 911.67 1013.89 898.21 1036.6 898.21 1036.6 902.61 1027.46 902.61 1027.46 907.14 1023.03 907.14 1023.03 902.61 1018.33 902.61 1018.33 911.67"/>
      <rect class="cls-3" x="1013.89" y="961.86" width="4.43" height="4.4"/>
    </g>
    <g>
      <rect class="cls-3" x="1041.31" y="971.7" width="4.43" height="27.41"/>
      <rect class="cls-3" x="1041.31" y="1008.18" width="4.43" height="4.4"/>
      <rect class="cls-3" x="1041.31" y="1017.24" width="4.43" height="22.52"/>
      <path class="cls-3" d="M1036.6,1039.76h-13.57v-9.06h-9.14v-36.47h-.14v-4.4h13.84v-9.06h4.43v13.46h-13.71v4.89h18.28v13.46h-13.57v-9.06h-4.7v13.73h18.28v4.4h-9.14v4.66h9.14v13.46ZM1027.46,1003.51v4.67h4.71v-4.67h-4.71ZM1023.03,1026.3v-4.66h-4.7v4.66h4.7ZM1032.17,1035.36v-4.66h-4.71v4.66h4.71Z"/>
      <polygon class="cls-3" points="1018.33 985.16 1013.89 985.16 1013.89 971.7 1036.6 971.7 1036.6 976.1 1027.46 976.1 1027.46 980.63 1023.03 980.63 1023.03 976.1 1018.33 976.1 1018.33 985.16"/>
      <rect class="cls-3" x="1013.89" y="1035.36" width="4.43" height="4.4"/>
    </g>
    <g>
      <rect class="cls-3" x="1041.31" y="1045.2" width="4.43" height="27.41"/>
      <rect class="cls-3" x="1041.31" y="1081.67" width="4.43" height="4.4"/>
      <rect class="cls-3" x="1041.31" y="1090.73" width="4.43" height="22.52"/>
      <path class="cls-3" d="M1036.6,1113.25h-13.57v-9.06h-9.14v-36.47h-.14v-4.4h13.84v-9.06h4.43v13.46h-13.71v4.89h18.28v13.46h-13.57v-9.06h-4.7v13.73h18.28v4.4h-9.14v4.67h9.14v13.46ZM1027.46,1077.01v4.66h4.71v-4.66h-4.71ZM1023.03,1099.79v-4.67h-4.7v4.67h4.7ZM1032.17,1108.86v-4.67h-4.71v4.67h4.71Z"/>
      <polygon class="cls-3" points="1018.33 1058.66 1013.89 1058.66 1013.89 1045.2 1036.6 1045.2 1036.6 1049.6 1027.46 1049.6 1027.46 1054.13 1023.03 1054.13 1023.03 1049.6 1018.33 1049.6 1018.33 1058.66"/>
      <rect class="cls-3" x="1013.89" y="1108.86" width="4.43" height="4.4"/>
    </g>
    <g>
      <rect class="cls-3" x="1041.31" y="1118.7" width="4.43" height="27.41"/>
      <rect class="cls-3" x="1041.31" y="1155.17" width="4.43" height="4.4"/>
      <rect class="cls-3" x="1041.31" y="1164.23" width="4.43" height="22.52"/>
      <path class="cls-3" d="M1036.6,1186.75h-13.57v-9.06h-9.14v-36.47h-.14v-4.4h13.84v-9.06h4.43v13.46h-13.71v4.89h18.28v13.46h-13.57v-9.06h-4.7v13.73h18.28v4.4h-9.14v4.67h9.14v13.46ZM1027.46,1150.5v4.67h4.71v-4.67h-4.71ZM1023.03,1173.29v-4.67h-4.7v4.67h4.7ZM1032.17,1182.35v-4.67h-4.71v4.67h4.71Z"/>
      <polygon class="cls-3" points="1018.33 1132.15 1013.89 1132.15 1013.89 1118.7 1036.6 1118.7 1036.6 1123.09 1027.46 1123.09 1027.46 1127.62 1023.03 1127.62 1023.03 1123.09 1018.33 1123.09 1018.33 1132.15"/>
      <rect class="cls-3" x="1013.89" y="1182.35" width="4.43" height="4.4"/>
    </g>
    <g>
      <rect class="cls-3" x="1041.31" y="1192.19" width="4.43" height="27.41"/>
      <rect class="cls-3" x="1041.31" y="1228.66" width="4.43" height="4.4"/>
      <rect class="cls-3" x="1041.31" y="1237.72" width="4.43" height="22.52"/>
      <path class="cls-3" d="M1036.6,1260.24h-13.57v-9.06h-9.14v-36.47h-.14v-4.4h13.84v-9.06h4.43v13.46h-13.71v4.89h18.28v13.46h-13.57v-9.06h-4.7v13.73h18.28v4.4h-9.14v4.67h9.14v13.46ZM1027.46,1224v4.67h4.71v-4.67h-4.71ZM1023.03,1246.79v-4.67h-4.7v4.67h4.7ZM1032.17,1255.85v-4.67h-4.71v4.67h4.71Z"/>
      <polygon class="cls-3" points="1018.33 1205.65 1013.89 1205.65 1013.89 1192.19 1036.6 1192.19 1036.6 1196.59 1027.46 1196.59 1027.46 1201.12 1023.03 1201.12 1023.03 1196.59 1018.33 1196.59 1018.33 1205.65"/>
      <rect class="cls-3" x="1013.89" y="1255.85" width="4.43" height="4.4"/>
    </g>
    <g>
      <rect class="cls-3" x="961.71" y="1311.56" width="28.13" height="4.43"/>
      <rect class="cls-3" x="947.9" y="1311.56" width="4.51" height="4.43"/>
      <rect class="cls-3" x="920" y="1311.56" width="23.12" height="4.43"/>
      <path class="cls-3" d="M920,1306.85v-13.57h9.3v-9.14h37.44v-.14h4.51v13.84h9.3v4.43h-13.81v-13.71h-5.02v18.28h-13.81v-13.57h9.3v-4.7h-14.09v18.28h-4.51v-9.14h-4.79v9.14h-13.81ZM957.2,1297.71h-4.79v4.71h4.79v-4.71ZM933.81,1293.28h4.79v-4.7h-4.79v4.7ZM924.51,1302.42h4.79v-4.71h-4.79v4.71Z"/>
      <polygon class="cls-3" points="976.03 1288.58 976.03 1284.14 989.85 1284.14 989.85 1306.85 985.33 1306.85 985.33 1297.71 980.68 1297.71 980.68 1293.28 985.33 1293.28 985.33 1288.58 976.03 1288.58"/>
      <rect class="cls-3" x="920" y="1284.14" width="4.51" height="4.43"/>
    </g>
    <g>
      <rect class="cls-3" x="886.27" y="1311.56" width="28.13" height="4.43"/>
      <rect class="cls-3" x="872.46" y="1311.56" width="4.51" height="4.43"/>
      <rect class="cls-3" x="844.56" y="1311.56" width="23.12" height="4.43"/>
      <path class="cls-3" d="M844.56,1306.85v-13.57h9.3v-9.14h37.44v-.14h4.51v13.84h9.3v4.43h-13.81v-13.71h-5.02v18.28h-13.81v-13.57h9.3v-4.7h-14.09v18.28h-4.51v-9.14h-4.79v9.14h-13.81ZM881.76,1297.71h-4.79v4.71h4.79v-4.71ZM858.37,1293.28h4.79v-4.7h-4.79v4.7ZM849.07,1302.42h4.79v-4.71h-4.79v4.71Z"/>
      <polygon class="cls-3" points="900.59 1288.58 900.59 1284.14 914.41 1284.14 914.41 1306.85 909.89 1306.85 909.89 1297.71 905.24 1297.71 905.24 1293.28 909.89 1293.28 909.89 1288.58 900.59 1288.58"/>
      <rect class="cls-3" x="844.56" y="1284.14" width="4.51" height="4.43"/>
    </g>
    <g>
      <rect class="cls-3" x="810.83" y="1311.56" width="28.13" height="4.43"/>
      <rect class="cls-3" x="797.02" y="1311.56" width="4.51" height="4.43"/>
      <rect class="cls-3" x="769.11" y="1311.56" width="23.12" height="4.43"/>
      <path class="cls-3" d="M769.11,1306.85v-13.57h9.3v-9.14h37.44v-.14h4.51v13.84h9.3v4.43h-13.81v-13.71h-5.02v18.28h-13.81v-13.57h9.3v-4.7h-14.09v18.28h-4.51v-9.14h-4.79v9.14h-13.81ZM806.32,1297.71h-4.79v4.71h4.79v-4.71ZM782.93,1293.28h4.79v-4.7h-4.79v4.7ZM773.63,1302.42h4.79v-4.71h-4.79v4.71Z"/>
      <polygon class="cls-3" points="825.15 1288.58 825.15 1284.14 838.97 1284.14 838.97 1306.85 834.45 1306.85 834.45 1297.71 829.8 1297.71 829.8 1293.28 834.45 1293.28 834.45 1288.58 825.15 1288.58"/>
      <rect class="cls-3" x="769.11" y="1284.14" width="4.51" height="4.43"/>
    </g>
    <g>
      <rect class="cls-3" x="735.39" y="1311.56" width="28.13" height="4.43"/>
      <rect class="cls-3" x="721.58" y="1311.56" width="4.51" height="4.43"/>
      <rect class="cls-3" x="693.67" y="1311.56" width="23.12" height="4.43"/>
      <path class="cls-3" d="M693.67,1306.85v-13.57h9.3v-9.14h37.44v-.14h4.51v13.84h9.3v4.43h-13.81v-13.71h-5.02v18.28h-13.81v-13.57h9.3v-4.7h-14.09v18.28h-4.51v-9.14h-4.79v9.14h-13.81ZM730.88,1297.71h-4.79v4.71h4.79v-4.71ZM707.49,1293.28h4.79v-4.7h-4.79v4.7ZM698.19,1302.42h4.79v-4.71h-4.79v4.71Z"/>
      <polygon class="cls-3" points="749.71 1288.58 749.71 1284.14 763.53 1284.14 763.53 1306.85 759.01 1306.85 759.01 1297.71 754.36 1297.71 754.36 1293.28 759.01 1293.28 759.01 1288.58 749.71 1288.58"/>
      <rect class="cls-3" x="693.67" y="1284.14" width="4.51" height="4.43"/>
    </g>
    <g>
      <rect class="cls-3" x="659.95" y="1311.56" width="28.13" height="4.43"/>
      <rect class="cls-3" x="646.14" y="1311.56" width="4.51" height="4.43"/>
      <rect class="cls-3" x="618.23" y="1311.56" width="23.12" height="4.43"/>
      <path class="cls-3" d="M618.23,1306.85v-13.57h9.3v-9.14h37.44v-.14h4.51v13.84h9.3v4.43h-13.81v-13.71h-5.02v18.28h-13.81v-13.57h9.3v-4.7h-14.09v18.28h-4.51v-9.14h-4.79v9.14h-13.81ZM655.44,1297.71h-4.79v4.71h4.79v-4.71ZM632.05,1293.28h4.79v-4.7h-4.79v4.7ZM622.75,1302.42h4.79v-4.71h-4.79v4.71Z"/>
      <polygon class="cls-3" points="674.27 1288.58 674.27 1284.14 688.09 1284.14 688.09 1306.85 683.57 1306.85 683.57 1297.71 678.92 1297.71 678.92 1293.28 683.57 1293.28 683.57 1288.58 674.27 1288.58"/>
      <rect class="cls-3" x="618.23" y="1284.14" width="4.51" height="4.43"/>
    </g>
    <g>
      <rect class="cls-3" x="584.51" y="1311.56" width="28.13" height="4.43"/>
      <rect class="cls-3" x="570.7" y="1311.56" width="4.51" height="4.43"/>
      <rect class="cls-3" x="542.79" y="1311.56" width="23.12" height="4.43"/>
      <path class="cls-3" d="M542.79,1306.85v-13.57h9.3v-9.14h37.44v-.14h4.51v13.84h9.3v4.43h-13.81v-13.71h-5.02v18.28h-13.81v-13.57h9.3v-4.7h-14.09v18.28h-4.51v-9.14h-4.79v9.14h-13.81ZM580,1297.71h-4.79v4.71h4.79v-4.71ZM556.61,1293.28h4.79v-4.7h-4.79v4.7ZM547.31,1302.42h4.79v-4.71h-4.79v4.71Z"/>
      <polygon class="cls-3" points="598.83 1288.58 598.83 1284.14 612.65 1284.14 612.65 1306.85 608.13 1306.85 608.13 1297.71 603.48 1297.71 603.48 1293.28 608.13 1293.28 608.13 1288.58 598.83 1288.58"/>
      <rect class="cls-3" x="542.79" y="1284.14" width="4.51" height="4.43"/>
    </g>
    <g>
      <rect class="cls-3" x="509.07" y="1311.56" width="28.13" height="4.43"/>
      <rect class="cls-3" x="495.26" y="1311.56" width="4.51" height="4.43"/>
      <rect class="cls-3" x="467.35" y="1311.56" width="23.12" height="4.43"/>
      <path class="cls-3" d="M467.35,1306.85v-13.57h9.3v-9.14h37.44v-.14h4.51v13.84h9.3v4.43h-13.81v-13.71h-5.02v18.28h-13.81v-13.57h9.3v-4.7h-14.09v18.28h-4.51v-9.14h-4.79v9.14h-13.81ZM504.56,1297.71h-4.79v4.71h4.79v-4.71ZM481.17,1293.28h4.79v-4.7h-4.79v4.7ZM471.87,1302.42h4.79v-4.71h-4.79v4.71Z"/>
      <polygon class="cls-3" points="523.39 1288.58 523.39 1284.14 537.21 1284.14 537.21 1306.85 532.69 1306.85 532.69 1297.71 528.04 1297.71 528.04 1293.28 532.69 1293.28 532.69 1288.58 523.39 1288.58"/>
      <rect class="cls-3" x="467.35" y="1284.14" width="4.51" height="4.43"/>
    </g>
    <g>
      <rect class="cls-3" x="433.63" y="1311.56" width="28.13" height="4.43"/>
      <rect class="cls-3" x="419.82" y="1311.56" width="4.51" height="4.43"/>
      <rect class="cls-3" x="391.91" y="1311.56" width="23.12" height="4.43"/>
      <path class="cls-3" d="M391.91,1306.85v-13.57h9.3v-9.14h37.44v-.14h4.51v13.84h9.3v4.43h-13.81v-13.71h-5.02v18.28h-13.81v-13.57h9.3v-4.7h-14.09v18.28h-4.51v-9.14h-4.79v9.14h-13.81ZM429.12,1297.71h-4.79v4.71h4.79v-4.71ZM405.73,1293.28h4.79v-4.7h-4.79v4.7ZM396.43,1302.42h4.79v-4.71h-4.79v4.71Z"/>
      <polygon class="cls-3" points="447.95 1288.58 447.95 1284.14 461.77 1284.14 461.77 1306.85 457.25 1306.85 457.25 1297.71 452.6 1297.71 452.6 1293.28 457.25 1293.28 457.25 1288.58 447.95 1288.58"/>
      <rect class="cls-3" x="391.91" y="1284.14" width="4.51" height="4.43"/>
    </g>
    <g>
      <rect class="cls-3" x="358.19" y="1311.56" width="28.13" height="4.43"/>
      <rect class="cls-3" x="344.38" y="1311.56" width="4.51" height="4.43"/>
      <rect class="cls-3" x="316.47" y="1311.56" width="23.12" height="4.43"/>
      <path class="cls-3" d="M316.47,1306.85v-13.57h9.3v-9.14h37.44v-.14h4.51v13.84h9.3v4.43h-13.81v-13.71h-5.02v18.28h-13.81v-13.57h9.3v-4.7h-14.09v18.28h-4.51v-9.14h-4.79v9.14h-13.81ZM353.68,1297.71h-4.79v4.71h4.79v-4.71ZM330.29,1293.28h4.79v-4.7h-4.79v4.7ZM320.99,1302.42h4.79v-4.71h-4.79v4.71Z"/>
      <polygon class="cls-3" points="372.51 1288.58 372.51 1284.14 386.33 1284.14 386.33 1306.85 381.81 1306.85 381.81 1297.71 377.16 1297.71 377.16 1293.28 381.81 1293.28 381.81 1288.58 372.51 1288.58"/>
      <rect class="cls-3" x="316.47" y="1284.14" width="4.51" height="4.43"/>
    </g>
    <g>
      <rect class="cls-3" x="282.75" y="1311.56" width="28.13" height="4.43"/>
      <rect class="cls-3" x="268.94" y="1311.56" width="4.51" height="4.43"/>
      <rect class="cls-3" x="241.03" y="1311.56" width="23.12" height="4.43"/>
      <path class="cls-3" d="M241.03,1306.85v-13.57h9.3v-9.14h37.44v-.14h4.51v13.84h9.3v4.43h-13.81v-13.71h-5.02v18.28h-13.81v-13.57h9.3v-4.7h-14.09v18.28h-4.51v-9.14h-4.79v9.14h-13.81ZM278.24,1297.71h-4.79v4.71h4.79v-4.71ZM254.85,1293.28h4.79v-4.7h-4.79v4.7ZM245.55,1302.42h4.79v-4.71h-4.79v4.71Z"/>
      <polygon class="cls-3" points="297.07 1288.58 297.07 1284.14 310.89 1284.14 310.89 1306.85 306.37 1306.85 306.37 1297.71 301.72 1297.71 301.72 1293.28 306.37 1293.28 306.37 1288.58 297.07 1288.58"/>
      <rect class="cls-3" x="241.03" y="1284.14" width="4.51" height="4.43"/>
    </g>
    <g>
      <rect class="cls-3" x="207.31" y="1311.56" width="28.13" height="4.43"/>
      <rect class="cls-3" x="193.5" y="1311.56" width="4.51" height="4.43"/>
      <rect class="cls-3" x="165.59" y="1311.56" width="23.12" height="4.43"/>
      <path class="cls-3" d="M165.59,1306.85v-13.57h9.3v-9.14h37.44v-.14h4.51v13.84h9.3v4.43h-13.81v-13.71h-5.02v18.28h-13.81v-13.57h9.3v-4.7h-14.09v18.28h-4.51v-9.14h-4.79v9.14h-13.81ZM202.8,1297.71h-4.79v4.71h4.79v-4.71ZM179.41,1293.28h4.79v-4.7h-4.79v4.7ZM170.11,1302.42h4.79v-4.71h-4.79v4.71Z"/>
      <polygon class="cls-3" points="221.63 1288.58 221.63 1284.14 235.44 1284.14 235.44 1306.85 230.93 1306.85 230.93 1297.71 226.28 1297.71 226.28 1293.28 230.93 1293.28 230.93 1288.58 221.63 1288.58"/>
      <rect class="cls-3" x="165.59" y="1284.14" width="4.51" height="4.43"/>
    </g>
    <g>
      <rect class="cls-3" x="131.87" y="1311.56" width="28.13" height="4.43"/>
      <rect class="cls-3" x="118.06" y="1311.56" width="4.51" height="4.43"/>
      <rect class="cls-3" x="90.15" y="1311.56" width="23.12" height="4.43"/>
      <path class="cls-3" d="M90.15,1306.85v-13.57h9.3v-9.14h37.44v-.14h4.51v13.84h9.3v4.43h-13.81v-13.71h-5.02v18.28h-13.81v-13.57h9.3v-4.7h-14.09v18.28h-4.51v-9.14h-4.79v9.14h-13.81ZM127.36,1297.71h-4.79v4.71h4.79v-4.71ZM103.97,1293.28h4.79v-4.7h-4.79v4.7ZM94.67,1302.42h4.79v-4.71h-4.79v4.71Z"/>
      <polygon class="cls-3" points="146.19 1288.58 146.19 1284.14 160 1284.14 160 1306.85 155.49 1306.85 155.49 1297.71 150.84 1297.71 150.84 1293.28 155.49 1293.28 155.49 1288.58 146.19 1288.58"/>
      <rect class="cls-3" x="90.15" y="1284.14" width="4.51" height="4.43"/>
    </g>
    <g class="cls-11">
      <g>
        <rect class="cls-3" x="34.26" y="56.67" width="4.43" height="27.64"/>
        <rect class="cls-3" x="34.26" y="43.1" width="4.43" height="4.43"/>
        <rect class="cls-3" x="34.26" y="15.69" width="4.43" height="22.71"/>
        <path class="cls-3" d="M43.4,15.69h13.57v9.14h9.14v36.78h.14v4.43h-13.84v9.14h-4.43v-13.57h13.71v-4.93h-18.28v-13.57h13.57v9.14h4.7v-13.84h-18.28v-4.43h9.14v-4.7h-9.14v-13.57ZM52.54,52.24v-4.7h-4.71v4.7h4.71ZM56.97,29.26v4.7h4.7v-4.7h-4.7ZM47.83,20.12v4.7h4.71v-4.7h-4.71Z"/>
        <polygon class="cls-3" points="61.67 70.74 66.11 70.74 66.11 84.31 43.4 84.31 43.4 79.88 52.54 79.88 52.54 75.31 56.97 75.31 56.97 79.88 61.67 79.88 61.67 70.74"/>
        <rect class="cls-3" x="61.67" y="15.69" width="4.43" height="4.43"/>
      </g>
    </g>
    <g class="cls-7">
      <g>
        <rect class="cls-3" x="15.94" y="34.01" width="27.64" height="4.43"/>
        <rect class="cls-3" x="52.72" y="34.01" width="4.43" height="4.43"/>
        <rect class="cls-3" x="61.85" y="34.01" width="22.71" height="4.43"/>
        <path class="cls-3" d="M84.56,43.15v13.57h-9.14v9.14h-36.78v.14h-4.43v-13.84h-9.14v-4.43h13.57v13.71h4.93v-18.28h13.57v13.57h-9.14v4.7h13.84v-18.28h4.43v9.14h4.7v-9.14h13.57ZM48.01,52.29h4.7v-4.71h-4.7v4.71ZM70.99,56.72h-4.7v4.7h4.7v-4.7ZM80.13,47.58h-4.7v4.71h4.7v-4.71Z"/>
        <polygon class="cls-3" points="29.51 61.42 29.51 65.86 15.94 65.86 15.94 43.15 20.37 43.15 20.37 52.29 24.94 52.29 24.94 56.72 20.37 56.72 20.37 61.42 29.51 61.42"/>
        <rect class="cls-3" x="80.13" y="61.42" width="4.43" height="4.43"/>
      </g>
    </g>
    <g class="cls-10">
      <g>
        <rect class="cls-3" x="995.44" y="34.01" width="27.64" height="4.43"/>
        <rect class="cls-3" x="1032.21" y="34.01" width="4.43" height="4.43"/>
        <rect class="cls-3" x="1041.35" y="34.01" width="22.71" height="4.43"/>
        <path class="cls-3" d="M1064.06,43.15v13.57h-9.14v9.14h-36.78v.14h-4.43v-13.84h-9.14v-4.43h13.57v13.71h4.93v-18.28h13.57v13.57h-9.14v4.7h13.84v-18.28h4.43v9.14h4.7v-9.14h13.57ZM1027.51,52.29h4.7v-4.71h-4.7v4.71ZM1050.49,56.72h-4.7v4.7h4.7v-4.7ZM1059.63,47.58h-4.7v4.71h4.7v-4.71Z"/>
        <polygon class="cls-3" points="1009.01 61.42 1009.01 65.86 995.44 65.86 995.44 43.15 999.87 43.15 999.87 52.29 1004.44 52.29 1004.44 56.72 999.87 56.72 999.87 61.42 1009.01 61.42"/>
        <rect class="cls-3" x="1059.63" y="61.42" width="4.43" height="4.43"/>
      </g>
    </g>
    <g class="cls-9">
      <g>
        <rect class="cls-3" x="1041.31" y="15.69" width="4.43" height="27.64"/>
        <rect class="cls-3" x="1041.31" y="52.47" width="4.43" height="4.43"/>
        <rect class="cls-3" x="1041.31" y="61.6" width="4.43" height="22.71"/>
        <path class="cls-3" d="M1036.6,84.31h-13.57v-9.14h-9.14v-36.78h-.14v-4.43h13.84v-9.14h4.43v13.57h-13.71v4.93h18.28v13.57h-13.57v-9.14h-4.7v13.84h18.28v4.43h-9.14v4.7h9.14v13.57ZM1027.46,47.76v4.7h4.71v-4.7h-4.71ZM1023.03,70.74v-4.7h-4.7v4.7h4.7ZM1032.17,79.88v-4.7h-4.71v4.7h4.71Z"/>
        <polygon class="cls-3" points="1018.33 29.26 1013.89 29.26 1013.89 15.69 1036.6 15.69 1036.6 20.12 1027.46 20.12 1027.46 24.69 1023.03 24.69 1023.03 20.12 1018.33 20.12 1018.33 29.26"/>
        <rect class="cls-3" x="1013.89" y="79.88" width="4.43" height="4.43"/>
      </g>
    </g>
    <g class="cls-4">
      <g>
        <rect class="cls-3" x="1041.31" y="1265.69" width="4.43" height="27.64"/>
        <rect class="cls-3" x="1041.31" y="1302.47" width="4.43" height="4.43"/>
        <rect class="cls-3" x="1041.31" y="1311.6" width="4.43" height="22.71"/>
        <path class="cls-3" d="M1036.6,1334.31h-13.57v-9.14h-9.14v-36.78h-.14v-4.43h13.84v-9.14h4.43v13.57h-13.71v4.93h18.28v13.57h-13.57v-9.14h-4.7v13.84h18.28v4.43h-9.14v4.7h9.14v13.57ZM1027.46,1297.76v4.7h4.71v-4.7h-4.71ZM1023.03,1320.74v-4.7h-4.7v4.7h4.7ZM1032.17,1329.88v-4.7h-4.71v4.7h4.71Z"/>
        <polygon class="cls-3" points="1018.33 1279.26 1013.89 1279.26 1013.89 1265.69 1036.6 1265.69 1036.6 1270.12 1027.46 1270.12 1027.46 1274.69 1023.03 1274.69 1023.03 1270.12 1018.33 1270.12 1018.33 1279.26"/>
        <rect class="cls-3" x="1013.89" y="1329.88" width="4.43" height="4.43"/>
      </g>
    </g>
    <g class="cls-8">
      <g>
        <rect class="cls-3" x="1036.42" y="1311.56" width="27.64" height="4.43"/>
        <rect class="cls-3" x="1022.85" y="1311.56" width="4.43" height="4.43"/>
        <rect class="cls-3" x="995.44" y="1311.56" width="22.71" height="4.43"/>
        <path class="cls-3" d="M995.44,1306.85v-13.57h9.14v-9.14h36.78v-.14h4.43v13.84h9.14v4.43h-13.57v-13.71h-4.93v18.28h-13.57v-13.57h9.14v-4.7h-13.84v18.28h-4.43v-9.14h-4.7v9.14h-13.57ZM1031.99,1297.71h-4.7v4.71h4.7v-4.71ZM1009.01,1293.28h4.7v-4.7h-4.7v4.7ZM999.87,1302.42h4.7v-4.71h-4.7v4.71Z"/>
        <polygon class="cls-3" points="1050.49 1288.58 1050.49 1284.14 1064.06 1284.14 1064.06 1306.85 1059.63 1306.85 1059.63 1297.71 1055.06 1297.71 1055.06 1293.28 1059.63 1293.28 1059.63 1288.58 1050.49 1288.58"/>
        <rect class="cls-3" x="995.44" y="1284.14" width="4.43" height="4.43"/>
      </g>
    </g>
    <g class="cls-1">
      <g>
        <rect class="cls-3" x="56.92" y="1311.56" width="27.64" height="4.43"/>
        <rect class="cls-3" x="43.35" y="1311.56" width="4.43" height="4.43"/>
        <rect class="cls-3" x="15.94" y="1311.56" width="22.71" height="4.43"/>
        <path class="cls-3" d="M15.94,1306.85v-13.57h9.14v-9.14h36.78v-.14h4.43v13.84h9.14v4.43h-13.57v-13.71h-4.93v18.28h-13.57v-13.57h9.14v-4.7h-13.84v18.28h-4.43v-9.14h-4.7v9.14h-13.57ZM52.49,1297.71h-4.7v4.71h4.7v-4.71ZM29.51,1293.28h4.7v-4.7h-4.7v4.7ZM20.37,1302.42h4.7v-4.71h-4.7v4.71Z"/>
        <polygon class="cls-3" points="70.99 1288.58 70.99 1284.14 84.56 1284.14 84.56 1306.85 80.13 1306.85 80.13 1297.71 75.56 1297.71 75.56 1293.28 80.13 1293.28 80.13 1288.58 70.99 1288.58"/>
        <rect class="cls-3" x="15.94" y="1284.14" width="4.43" height="4.43"/>
      </g>
    </g>
    <g class="cls-2">
      <g>
        <rect class="cls-3" x="34.26" y="1306.67" width="4.43" height="27.64"/>
        <rect class="cls-3" x="34.26" y="1293.1" width="4.43" height="4.43"/>
        <rect class="cls-3" x="34.26" y="1265.69" width="4.43" height="22.71"/>
        <path class="cls-3" d="M43.4,1265.69h13.57v9.14h9.14v36.78h.14v4.43h-13.84v9.14h-4.43v-13.57h13.71v-4.93h-18.28v-13.57h13.57v9.14h4.7v-13.84h-18.28v-4.43h9.14v-4.7h-9.14v-13.57ZM52.54,1302.24v-4.7h-4.71v4.7h4.71ZM56.97,1279.26v4.7h4.7v-4.7h-4.7ZM47.83,1270.12v4.7h4.71v-4.7h-4.71Z"/>
        <polygon class="cls-3" points="61.67 1320.74 66.11 1320.74 66.11 1334.31 43.4 1334.31 43.4 1329.88 52.54 1329.88 52.54 1325.31 56.97 1325.31 56.97 1329.88 61.67 1329.88 61.67 1320.74"/>
        <rect class="cls-3" x="61.67" y="1265.69" width="4.43" height="4.43"/>
      </g>
    </g>
  </g>
</svg>