<?xml version="1.0" encoding="UTF-8" standalone="no"?>
<svg
   id="Layer_1"
   data-name="Layer 1"
   viewBox="0 0 434.88351 901.47998"
   version="1.1"
   sodipodi:docname="right_wrapper.svg"
   width="434.88351"
   height="901.47998"
   inkscape:version="1.4 (e7c3feb1, 2024-10-09)"
   xmlns:inkscape="http://www.inkscape.org/namespaces/inkscape"
   xmlns:sodipodi="http://sodipodi.sourceforge.net/DTD/sodipodi-0.dtd"
   xmlns="http://www.w3.org/2000/svg"
   xmlns:svg="http://www.w3.org/2000/svg">
  <sodipodi:namedview
     id="namedview5"
     pagecolor="#ffffff"
     bordercolor="#000000"
     borderopacity="0.25"
     inkscape:showpageshadow="2"
     inkscape:pageopacity="0.0"
     inkscape:pagecheckerboard="0"
     inkscape:deskcolor="#d1d1d1"
     inkscape:zoom="0.053"
     inkscape:cx="216.98113"
     inkscape:cy="433.96226"
     inkscape:window-width="1104"
     inkscape:window-height="1223"
     inkscape:window-x="2374"
     inkscape:window-y="180"
     inkscape:window-maximized="0"
     inkscape:current-layer="Layer_1" />
  <defs
     id="defs1">
    <style
       id="style1">
      .cls-1 {
        fill: #f08519;
      }
    </style>
  </defs>
  <path
     class="cls-1"
     d="m 434.09,449.27 c -1.14,-1.3 -2.37,-2.53 -3.64,-3.71 -1.78,-1.67 -3.78,-2.38 -6.37,-2.1 -3.96,0.43 -7.74,-0.15 -10.59,-3.52 -4.52,-5.35 -9.43,-10.39 -13.64,-15.97 -4.18,-5.55 -8.86,-11.06 -8.79,-18.7 0,-0.41 -0.27,-0.82 -0.25,-1.22 0.09,-1.7 -0.17,-3.57 0.46,-5.05 0.9,-2.09 2.42,-3.93 3.8,-5.79 1.71,-2.3 3.69,-4.41 5.29,-6.77 4.32,-6.4 4,-12.94 0.24,-19.47 -2.21,-3.84 -3.43,-7.92 -2.79,-12.37 0.3,-2.07 0.8,-4.11 1.34,-6.13 0.7,-2.61 -0.2,-6.56 -2.13,-7.45 -2.04,-0.94 -4.22,-1.51 -6.59,-0.73 -5.08,1.66 -10.2,2.11 -15.26,-0.16 -1.58,-0.71 -3.1,-1.55 -4.66,-2.31 -5.43,-2.66 -10.89,-2.92 -16.11,0.35 -3.02,1.89 -5.88,4.09 -8.56,6.44 -3.69,3.24 -7.56,5.27 -12.58,3.48 -0.67,-0.24 -1.41,-0.38 -2.12,-0.39 -3.09,-0.04 -5.61,-1.23 -8.2,-2.95 -2.43,-1.61 -4.8,-3.3 -7.14,-5.02 0,0.96 0.03,1.92 0.03,2.88 h -5.38 c 2.87,2.12 5.8,4.16 8.81,6.11 3.02,1.96 5.6,4.66 8.18,7.22 2.07,2.06 3.99,4.32 5.67,6.7 1.71,2.42 2.58,5.24 2.5,8.4 -0.56,0.09 -1.08,0.19 -1.6,0.25 -7.38,0.85 -14.76,1.69 -22.14,2.54 -0.89,0.1 -1.9,0.02 -2.65,0.42 -1.97,1.04 -2.73,0.1 -3.67,-1.53 -4.3,-7.46 -8.72,-14.86 -13.13,-22.26 -1.84,-3.08 -4.27,-4.03 -6.61,-2.47 -0.9,0.6 -1.59,1.61 -2.16,2.56 -4.51,7.55 -9,15.11 -13.42,22.72 -0.76,1.3 -1.36,1.48 -2.92,1.14 -3.73,-0.81 -7.57,-1.15 -11.38,-1.6 -4.52,-0.54 -9.05,-1 -13.58,-1.49 -0.58,-0.06 -1.17,-0.16 -1.87,-0.25 -0.04,-3.85 1.18,-7.23 3.58,-9.98 3.22,-3.7 6.59,-7.32 10.25,-10.57 2.66,-2.35 5.99,-3.94 8.89,-6.04 0.85,-0.62 1.68,-1.26 2.52,-1.88 h -5.88 c 0,-0.83 -0.02,-1.66 -0.03,-2.48 -0.1,0.08 -0.19,0.16 -0.29,0.23 -5.06,3.87 -10.21,7.97 -17.19,7.85 -0.46,0 -0.94,0.31 -1.4,0.29 -1.76,-0.08 -3.68,0.17 -5.22,-0.47 -2.04,-0.85 -3.84,-2.35 -5.64,-3.71 -2,-1.51 -3.8,-3.3 -5.84,-4.75 -6.72,-4.76 -13.63,-4.91 -20.71,-0.71 -3.76,2.23 -7.84,3.3 -12.22,2.66 -2.06,-0.3 -4.1,-0.82 -6.13,-1.36 -2.57,-0.68 -6.62,0.32 -7.41,2.23 -0.86,2.06 -1.44,4.22 -0.66,6.6 1.64,5.01 2.09,10.09 -0.15,15.09 -0.73,1.64 -1.61,3.21 -2.39,4.82 -2.6,5.38 -2.87,10.78 0.35,15.95 1.85,2.97 3.98,5.83 6.31,8.44 3.36,3.77 5.49,7.7 3.64,12.87 -0.24,0.67 -0.37,1.41 -0.39,2.12 -0.08,3.01 -1.19,5.49 -2.89,8.04 -5.51,8.32 -11.65,16.08 -18.55,23.3 -3.36,3.52 -7.23,4.25 -11.73,3.88 -1.18,-0.1 -2.68,0.03 -3.57,0.69 -2.14,1.59 -4.12,3.44 -5.92,5.42 -0.92,1.01 -0.79,2.53 0.18,3.65 1.14,1.3 2.37,2.53 3.64,3.71 1.78,1.67 3.77,2.38 6.37,2.1 3.96,-0.43 7.75,0.14 10.59,3.53 4.84,5.78 10.01,11.3 14.58,17.29 3.82,5.01 7.93,10.1 7.78,17.03 -0.01,0.52 0.34,1.06 0.32,1.57 -0.07,1.7 0.18,3.57 -0.46,5.05 -0.9,2.09 -2.42,3.93 -3.8,5.79 -1.71,2.3 -3.69,4.41 -5.29,6.77 -4.32,6.4 -4,12.94 -0.24,19.47 2.21,3.84 3.43,7.92 2.79,12.37 -0.3,2.07 -0.8,4.11 -1.34,6.13 -0.7,2.63 0.2,6.56 2.13,7.45 2.04,0.94 4.21,1.51 6.59,0.73 5.08,-1.67 10.2,-2.11 15.26,0.16 1.58,0.71 3.1,1.55 4.66,2.31 5.43,2.66 10.89,2.92 16.11,-0.36 3.02,-1.89 5.88,-4.09 8.56,-6.44 3.7,-3.24 7.56,-5.27 12.58,-3.48 0.67,0.24 1.41,0.38 2.12,0.39 3.09,0.04 5.61,1.23 8.2,2.95 2.26,1.5 4.47,3.05 6.65,4.64 0.01,-1.18 0.04,-2.36 0.04,-3.54 h 4.37 c -2.43,-1.76 -4.9,-3.47 -7.42,-5.12 -3.26,-2.13 -6.03,-5.08 -8.77,-7.9 -2.11,-2.17 -4,-4.6 -5.68,-7.13 -1.39,-2.1 -1.97,-4.58 -1.85,-7.32 1.97,-0.22 3.86,-0.42 5.75,-0.64 6.37,-0.74 12.73,-1.49 19.1,-2.24 0.42,-0.05 0.84,-0.09 1.25,-0.17 2.78,-0.55 2.76,-0.54 4.23,1.94 4.28,7.27 8.56,14.54 12.88,21.78 1.82,3.06 4.31,3.99 6.63,2.4 0.89,-0.61 1.57,-1.63 2.14,-2.59 4.51,-7.55 8.99,-15.12 13.42,-22.71 0.7,-1.21 1.24,-1.51 2.78,-1.13 3.06,0.76 6.26,1.02 9.41,1.39 5.77,0.68 11.54,1.3 17.54,1.97 -0.01,4.04 -1.31,7.48 -3.84,10.33 -3.06,3.44 -6.17,6.9 -9.64,9.92 -2.82,2.46 -6.25,4.19 -9.3,6.4 -0.37,0.27 -0.73,0.55 -1.1,0.82 h 4.09 c 0,1.31 -0.03,2.6 -0.05,3.91 0.26,-0.2 0.51,-0.42 0.78,-0.62 5.06,-3.87 10.22,-7.97 17.19,-7.85 0.46,0 0.94,-0.31 1.4,-0.29 1.76,0.08 3.68,-0.17 5.22,0.47 2.04,0.85 3.84,2.35 5.64,3.71 2,1.51 3.8,3.3 5.84,4.75 6.72,4.76 13.63,4.91 20.71,0.71 3.76,-2.23 7.84,-3.3 12.22,-2.66 2.06,0.3 4.1,0.83 6.13,1.36 2.58,0.68 6.62,-0.31 7.41,-2.23 0.86,-2.06 1.44,-4.22 0.66,-6.6 -1.65,-5.01 -2.09,-10.09 0.15,-15.09 0.73,-1.64 1.61,-3.21 2.39,-4.82 2.6,-5.38 2.87,-10.78 -0.35,-15.95 -1.85,-2.97 -3.98,-5.83 -6.31,-8.44 -3.36,-3.77 -5.49,-7.7 -3.64,-12.87 0.24,-0.67 0.37,-1.41 0.39,-2.12 0.08,-3.01 1.19,-5.49 2.89,-8.04 5.51,-8.32 11.65,-16.08 18.55,-23.3 3.36,-3.52 7.24,-4.25 11.73,-3.88 1.18,0.1 2.68,-0.03 3.57,-0.69 2.14,-1.59 4.12,-3.44 5.92,-5.42 0.92,-1.01 0.79,-2.53 -0.18,-3.65 z M 330.46,351.69 c 0.1,-0.11 0.19,-0.22 0.29,-0.33 0.67,0.14 1.37,0.21 2.01,0.44 6.19,2.17 11.16,-0.08 15.78,-4.13 2.41,-2.11 5.04,-4.02 7.72,-5.78 4.32,-2.83 8.75,-2.25 13.13,0 1.59,0.82 3.17,1.69 4.81,2.4 5.7,2.47 11.45,1.78 17.24,0.26 0.94,-0.25 2.48,-0.28 2.95,0.27 0.57,0.66 0.62,2.14 0.35,3.1 -2.07,7.35 -1.76,14.29 2.14,21.13 3.91,6.85 3.36,10.6 -1.85,17.84 -1.43,1.98 -3.24,3.69 -4.77,5.6 -3.32,4.15 -4.6,8.73 -2.78,13.93 0.23,0.66 0.3,1.38 0.45,2.07 -0.11,0.1 -0.23,0.21 -0.34,0.31 -5.34,-5.05 -10.9,-9.67 -18.94,-9.5 0.62,-6.11 1.23,-12.06 1.81,-18.01 0.26,-2.62 0.31,-5.27 0.71,-7.87 0.42,-2.74 -2.53,-5.63 -5.35,-5.31 -7.85,0.89 -15.73,1.57 -23.6,2.32 -0.71,0.07 -1.41,0.12 -2.22,0.18 0.14,-8.02 -4.47,-13.59 -9.55,-18.93 z m 34.73,22.43 c -1.78,18.29 -3.55,36.56 -5.34,54.92 -11.64,-4.51 -23.19,-8.97 -34.72,-13.48 -0.53,-0.21 -1.12,-0.74 -1.32,-1.26 -4.54,-11.58 -9.02,-23.17 -13.54,-34.84 18.28,-1.78 36.55,-3.55 54.92,-5.34 z m -4.01,62.61 c 7.48,4.62 14.91,9.33 22.34,14.02 0.15,0.09 0.25,0.25 0.56,0.55 -0.49,0.34 -0.94,0.67 -1.41,0.97 -7.13,4.51 -14.26,9.02 -21.41,13.48 -0.47,0.29 -1.33,0.5 -1.74,0.28 -8.87,-4.82 -17.7,-9.71 -26.9,-14.79 4.49,-2.46 8.67,-4.75 12.84,-7.04 4.5,-2.48 8.98,-5 13.52,-7.41 0.59,-0.31 1.66,-0.39 2.19,-0.06 z m -54.9,-51.93 c 0.29,0.63 0.53,1.07 0.71,1.53 3.54,9.47 7.34,18.85 10.46,28.45 1.28,3.92 3.14,5.8 7.07,7.08 9.6,3.12 18.99,6.92 28.45,10.46 0.44,0.17 0.88,0.36 1.6,0.67 -8.43,4.55 -16.62,8.86 -24.68,13.41 -2.29,1.29 -3.98,1.41 -6.3,0.03 -6.07,-3.59 -12.35,-6.82 -18.5,-10.26 -0.78,-0.43 -1.52,-1.17 -1.95,-1.95 -3.76,-6.73 -7.46,-13.5 -11.13,-20.28 -0.32,-0.59 -0.55,-1.58 -0.28,-2.09 4.76,-8.97 9.6,-17.89 14.54,-27.05 z m 14.38,66.4 c -0.68,0.43 -1.14,0.75 -1.63,1.02 -5.32,2.87 -10.62,5.76 -15.97,8.57 -2.41,1.27 -4.2,3.04 -5.47,5.45 -3.06,5.82 -6.22,11.59 -9.48,17.65 -0.42,-0.67 -0.74,-1.12 -1,-1.61 -2.87,-5.32 -5.76,-10.62 -8.57,-15.97 -1.3,-2.47 -3.12,-4.28 -5.59,-5.57 -5.35,-2.8 -10.65,-5.7 -15.96,-8.57 -0.45,-0.24 -0.88,-0.54 -1.55,-0.95 4.09,-2.22 7.95,-4.32 11.82,-6.42 2.16,-1.17 4.45,-2.14 6.43,-3.55 1.65,-1.17 3.32,-2.61 4.33,-4.32 3.15,-5.36 5.98,-10.91 8.94,-16.38 0.3,-0.56 0.64,-1.11 1.13,-1.96 3.42,6.32 6.54,12.38 9.97,18.26 1.03,1.76 2.69,3.4 4.45,4.43 5.88,3.42 11.93,6.55 18.16,9.92 z m -47.14,-73.05 c 4.66,-7.53 9.4,-15.01 14.13,-22.49 0.06,-0.1 0.17,-0.17 0.46,-0.46 0.51,0.75 1.01,1.45 1.46,2.17 4.31,6.83 8.63,13.65 12.89,20.51 0.34,0.55 0.57,1.56 0.3,2.05 -4.79,8.82 -9.66,17.6 -14.73,26.76 -2.22,-4.06 -4.26,-7.82 -6.33,-11.57 -2.71,-4.92 -5.46,-9.82 -8.1,-14.78 -0.32,-0.59 -0.41,-1.66 -0.08,-2.19 z m -4.38,8.17 c 0.16,-0.44 0.36,-0.87 0.66,-1.57 4.96,9.17 9.77,18.05 14.52,26.96 0.27,0.51 0.22,1.43 -0.06,1.95 -3.81,7.05 -7.67,14.07 -11.56,21.07 -0.27,0.48 -0.74,0.94 -1.23,1.21 -6.95,3.86 -13.92,7.7 -20.91,11.48 -0.54,0.29 -1.45,0.43 -1.94,0.16 -8.96,-4.76 -17.88,-9.6 -27.03,-14.54 0.65,-0.3 1.1,-0.53 1.57,-0.71 9.47,-3.54 18.85,-7.36 28.46,-10.46 3.95,-1.28 5.78,-3.2 7.06,-7.1 3.14,-9.6 6.93,-18.98 10.47,-28.45 z m -25.81,64.93 c -0.54,0.34 -0.9,0.6 -1.3,0.82 -8.32,4.59 -16.66,9.16 -24.96,13.77 -0.83,0.46 -1.44,0.5 -2.27,-0.03 -7.26,-4.63 -14.56,-9.21 -21.84,-13.81 -0.29,-0.18 -0.55,-0.41 -1.07,-0.79 6.43,-4.04 12.61,-7.91 18.79,-11.79 0.05,-0.03 0.11,-0.06 0.16,-0.09 1.73,-1.04 3.43,-2.83 5.19,-2.9 1.7,-0.07 3.48,1.62 5.21,2.57 6.96,3.83 13.92,7.67 20.88,11.51 0.35,0.19 0.68,0.41 1.21,0.73 z m 22.59,-71.78 c -0.59,1.49 -1.19,2.96 -1.77,4.44 -3.86,9.93 -7.7,19.86 -11.62,29.76 -0.31,0.78 -1.03,1.67 -1.78,1.96 -11.34,4.51 -22.72,8.92 -34.09,13.36 -0.1,0.04 -0.23,0.03 -0.42,0.05 -1.77,-18.27 -3.55,-36.54 -5.33,-54.92 18.37,1.78 36.6,3.55 55,5.34 z m -81.64,11.11 c -2.06,-2.3 -3.85,-4.86 -5.55,-7.45 -2.87,-4.38 -2.29,-8.86 0.03,-13.29 0.8,-1.53 1.63,-3.06 2.32,-4.65 2.46,-5.63 1.8,-11.33 0.37,-17.08 -0.26,-1.05 -0.33,-2.69 0.27,-3.26 0.62,-0.59 2.23,-0.48 3.28,-0.19 7.24,1.96 14.07,1.63 20.8,-2.2 6.94,-3.96 10.66,-3.36 17.85,1.77 2.13,1.52 3.97,3.46 6.04,5.08 3.91,3.06 8.25,4.24 13.13,2.63 0.68,-0.22 1.39,-0.35 2.09,-0.5 0.15,-0.03 0.33,0.03 0.89,0.11 -5.28,5.51 -9.81,11.07 -9.7,19.09 -1.81,-0.18 -3.53,-0.34 -5.24,-0.51 -5.36,-0.54 -10.74,-0.97 -16.09,-1.65 -8.88,-1.13 -10.61,0.67 -9.49,9.59 0.77,6.18 1.28,12.39 1.91,18.59 0.08,0.83 0.15,1.66 0.24,2.65 -8,-0.14 -13.58,4.43 -19.27,9.29 0.13,-0.66 0.2,-1.34 0.41,-1.96 2.21,-6.34 -0.11,-11.38 -4.31,-16.06 z m -3.02,85.53 c -4.79,-6.6 -9.87,-12.95 -15.76,-18.63 -3.79,-3.66 -8.42,-4.32 -13.32,-3.97 -2.81,0.2 -2.98,0.29 -4.83,-2.31 1.23,-1.51 2.24,-2.62 4.79,-2.26 5.19,0.72 10.01,-0.43 13.97,-4.45 7.34,-7.47 13.71,-15.65 19.4,-24.43 1.93,-2.97 4.57,-5.53 7.1,-8.06 2.11,-2.11 4.41,-4.07 6.84,-5.79 2.42,-1.71 5.23,-2.58 8.39,-2.49 0.09,0.57 0.19,1.09 0.25,1.61 0.85,7.38 1.69,14.76 2.54,22.14 0.1,0.83 0,1.78 0.38,2.47 1.23,2.25 -0.13,3.05 -1.8,4.02 -7.35,4.26 -14.65,8.6 -21.95,12.95 -3.08,1.83 -4.02,4.28 -2.45,6.62 0.6,0.89 1.62,1.59 2.57,2.16 7.44,4.46 14.89,8.91 22.4,13.25 1.48,0.85 1.83,1.45 1.41,3.28 -0.85,3.66 -1.13,7.45 -1.57,11.2 -0.54,4.52 -1,9.05 -1.49,13.58 -0.06,0.58 -0.16,1.16 -0.25,1.85 -3.93,0.04 -7.33,-1.23 -10.13,-3.69 -3.55,-3.12 -7.07,-6.33 -10.18,-9.87 -2.42,-2.76 -4.1,-6.16 -6.28,-9.16 z m 64.12,75.04 c -0.66,-0.13 -1.34,-0.19 -1.96,-0.41 -6.26,-2.2 -11.26,0.09 -15.93,4.18 -2.54,2.23 -5.35,4.19 -8.22,6 -4.21,2.65 -8.48,1.78 -12.64,-0.35 -1.54,-0.79 -3.06,-1.63 -4.65,-2.32 -5.63,-2.46 -11.33,-1.8 -17.08,-0.37 -1.05,0.26 -2.58,0.3 -3.27,-0.28 -0.57,-0.47 -0.5,-2.12 -0.23,-3.11 2.03,-7.29 1.73,-14.18 -2.14,-20.97 -3.96,-6.94 -3.36,-10.66 1.77,-17.85 1.49,-2.09 3.38,-3.88 4.98,-5.89 3.21,-4.07 4.39,-8.56 2.63,-13.62 -0.25,-0.7 -0.33,-1.46 -0.31,-2.36 5.49,4.93 11.06,9.55 19.1,9.42 -0.17,1.76 -0.31,3.41 -0.48,5.06 -0.54,5.36 -0.98,10.74 -1.66,16.09 -1.15,9.05 0.57,10.79 9.57,9.67 6.18,-0.77 12.39,-1.29 18.59,-1.91 0.83,-0.08 1.66,-0.15 2.64,-0.24 -0.14,8 4.43,13.58 9.29,19.27 z M 210.91,528.4 c 1.78,-18.3 3.55,-36.53 5.34,-54.89 0.3,0.08 0.69,0.13 1.04,0.27 11.03,4.3 22.06,8.64 33.11,12.9 1.17,0.45 1.79,1.1 2.24,2.26 4.26,11.05 8.59,22.07 12.9,33.11 0.12,0.32 0.22,0.65 0.33,1 -18.37,1.79 -36.64,3.56 -54.96,5.34 z m 58.91,-10.7 c -0.29,-0.61 -0.53,-1.05 -0.7,-1.52 -3.51,-9.41 -7.29,-18.74 -10.38,-28.29 -1.31,-4.04 -3.25,-6.01 -7.31,-7.32 -9.55,-3.08 -18.88,-6.87 -28.29,-10.38 -0.44,-0.17 -0.88,-0.36 -1.62,-0.67 7.69,-4.15 15.24,-7.92 22.45,-12.25 3.86,-2.32 6.86,-2.61 10.76,-0.02 5.17,3.42 10.85,6.05 16.27,9.09 0.78,0.44 1.52,1.17 1.95,1.95 3.76,6.73 7.47,13.49 11.12,20.29 0.34,0.63 0.52,1.69 0.22,2.25 -4.73,8.92 -9.55,17.78 -14.47,26.88 z m 32.82,6.56 c -4.69,7.58 -9.47,15.11 -14.23,22.64 -0.06,0.09 -0.18,0.14 -0.5,0.39 -0.92,-1.45 -1.83,-2.88 -2.73,-4.31 -3.87,-6.12 -7.75,-12.23 -11.56,-18.38 -0.34,-0.55 -0.53,-1.55 -0.26,-2.05 4.72,-8.73 9.53,-17.41 14.32,-26.09 0.05,-0.1 0.17,-0.15 0.49,-0.42 2.76,5.04 5.45,9.96 8.15,14.87 2.07,3.77 4.19,7.52 6.2,11.32 0.3,0.56 0.42,1.56 0.12,2.04 z m 3.72,-6.5 c -0.55,-0.95 -1.01,-1.66 -1.41,-2.41 -4.31,-8 -8.6,-16.01 -12.93,-23.99 -0.53,-0.97 -0.67,-1.74 -0.08,-2.79 3.79,-6.78 7.49,-13.62 11.28,-20.41 0.41,-0.73 1.11,-1.4 1.84,-1.81 6.74,-3.76 13.5,-7.47 20.29,-11.12 0.63,-0.34 1.69,-0.53 2.25,-0.24 8.92,4.73 17.79,9.55 27.01,14.54 -5.68,2.11 -11.05,4.1 -16.42,6.1 -4.48,1.67 -8.96,3.38 -13.44,5.04 -1,0.37 -2.17,0.42 -3.05,0.96 -1.16,0.71 -2.62,1.55 -3.06,2.69 -2.62,6.74 -4.97,13.58 -7.43,20.37 -1.55,4.27 -3.15,8.52 -4.83,13.07 z m 3.82,5.29 c 1.77,-4.47 3.55,-8.89 5.28,-13.33 2.71,-6.97 5.36,-13.97 8.11,-20.92 0.29,-0.74 0.95,-1.59 1.64,-1.87 11.4,-4.53 22.83,-8.97 34.25,-13.43 0.1,-0.04 0.23,-0.01 0.38,-0.02 1.78,18.36 3.55,36.59 5.33,54.9 -18.31,-1.78 -36.58,-3.55 -54.99,-5.33 z m 81.72,-11.04 c 2.03,2.24 3.78,4.77 5.44,7.3 2.91,4.44 2.33,8.96 -0.05,13.44 -0.81,1.53 -1.62,3.07 -2.3,4.66 -2.44,5.64 -1.76,11.34 -0.3,17.08 0.25,1 0.31,2.53 -0.26,3.12 -0.56,0.58 -2.12,0.58 -3.1,0.31 -7.35,-2.07 -14.29,-1.73 -21.13,2.17 -6.9,3.93 -10.58,3.27 -17.7,-1.77 -2.04,-1.44 -3.78,-3.31 -5.74,-4.88 -4.15,-3.32 -8.74,-4.58 -13.93,-2.74 -0.5,0.18 -1.05,0.24 -1.57,0.36 -0.17,0.04 -0.35,0.09 -0.68,-0.04 4.89,-5.5 9.53,-11.05 9.42,-19.15 0.88,0.08 1.69,0.14 2.49,0.22 7.57,0.73 15.16,1.33 22.7,2.26 3.59,0.44 6.4,-2.41 5.97,-5.91 -0.91,-7.43 -1.5,-14.9 -2.22,-22.35 -0.09,-0.89 -0.17,-1.78 -0.28,-2.88 3.88,0.02 7.39,-0.86 10.45,-2.82 3,-1.92 5.72,-4.29 8.84,-6.67 -0.15,0.79 -0.19,1.46 -0.4,2.07 -2.25,6.41 0.1,11.5 4.36,16.21 z m 32.19,-58.5 c -5.25,-0.45 -10.05,0.43 -14.01,4.44 -7.41,7.49 -13.8,15.73 -19.52,24.56 -1.93,2.97 -4.58,5.52 -7.11,8.05 -2.11,2.11 -4.41,4.07 -6.84,5.79 -2.41,1.7 -5.22,2.57 -8.41,2.46 -0.38,-3.47 -0.73,-6.85 -1.12,-10.23 -0.57,-4.88 -1.16,-9.76 -1.75,-14.63 -0.05,-0.42 -0.09,-0.84 -0.17,-1.25 -0.55,-2.77 -0.54,-2.75 1.96,-4.22 7.27,-4.28 14.54,-8.56 21.78,-12.88 3.05,-1.82 3.98,-4.32 2.38,-6.64 -0.61,-0.89 -1.63,-1.57 -2.59,-2.14 -7.55,-4.51 -15.12,-8.99 -22.71,-13.42 -1.22,-0.71 -1.5,-1.25 -1.12,-2.78 0.76,-3.06 1.02,-6.26 1.39,-9.41 0.68,-5.77 1.3,-11.54 1.97,-17.53 3.98,0 7.4,1.26 10.2,3.73 3.54,3.13 7.06,6.34 10.18,9.88 2.31,2.62 3.89,5.88 5.95,8.73 4.72,6.5 9.74,12.73 15.42,18.45 3.92,3.95 8.67,5.11 13.8,4.47 2.44,-0.31 3.68,0.49 4.9,2.15 -1.23,2.34 -2.09,2.63 -4.58,2.42 z"
     id="path1" />
  <path
     class="cls-1"
     d="m 280.28,315.14 c -0.25,-2.37 0.31,-4.27 1.81,-5.94 1.28,-1.42 2.55,-2.93 4.11,-3.97 0.86,-0.57 2.77,-0.76 3.43,-0.2 2.11,1.8 3.98,3.94 5.67,6.15 0.6,0.78 0.66,2.18 0.56,3.25 -0.43,4.56 0.34,8.48 3.92,11.88 5.08,4.82 10.42,9.27 16.02,13.41 C 314.33,160.59 175.86,14.13 0.02,0 c 149.11,41.63 258.69,177.98 259.8,340.12 5.82,-4.48 11.22,-9.51 16.86,-14.23 3.44,-2.88 4.02,-6.71 3.59,-10.74 z"
     id="path2" />
  <path
     class="cls-1"
     d="m 265.73,342.6 c 5.69,-4.24 11.16,-8.75 16.12,-13.88 3.66,-3.79 4.55,-8.45 3.88,-13.3 -0.35,-2.51 0.67,-3.6 2.32,-4.91 1.59,1.27 2.7,2.28 2.34,4.83 -0.72,5.19 0.42,10.02 4.44,13.97 4.9,4.83 10.13,9.22 15.62,13.28 h 5.38 c 0,-0.96 -0.03,-1.92 -0.03,-2.88 -5.6,-4.14 -10.95,-8.58 -16.02,-13.41 -3.59,-3.41 -4.35,-7.32 -3.92,-11.88 0.1,-1.08 0.04,-2.47 -0.56,-3.25 -1.69,-2.21 -3.56,-4.34 -5.67,-6.15 -0.65,-0.56 -2.57,-0.37 -3.43,0.2 -1.56,1.03 -2.84,2.55 -4.11,3.97 -1.5,1.67 -2.06,3.57 -1.81,5.94 0.43,4.03 -0.15,7.87 -3.59,10.74 -5.64,4.72 -11.04,9.75 -16.86,14.23 0,0.83 0.03,1.65 0.03,2.48 h 5.88 z"
     id="path3" />
  <path
     class="cls-1"
     d="m 295.82,587.38 c 0.26,2.37 -0.31,4.27 -1.81,5.94 -1.28,1.42 -2.66,2.75 -4.07,4.04 -1.1,1.01 -3.16,0.77 -4.22,-0.38 -0.56,-0.61 -1.13,-1.23 -1.33,-1.45 -3.14,-2.54 -4.62,-5.06 -4.12,-8.88 0.5,-3.82 -0.69,-7.26 -3.72,-10.19 -5.28,-5.09 -10.87,-9.74 -16.76,-14.04 C 258.21,724.09 148.79,859.94 0,901.48 175.5,887.37 313.78,741.45 315.77,562.79 c -5.64,4.38 -10.9,9.26 -16.38,13.85 -3.44,2.88 -4.02,6.71 -3.59,10.74 z"
     id="path4" />
  <path
     class="cls-1"
     d="m 311.75,558.88 c -6.2,4.56 -12.18,9.39 -17.54,14.95 -3.61,3.75 -4.49,8.36 -3.86,13.13 0.32,2.46 -0.51,3.68 -2.15,4.91 -2.33,-1.2 -2.65,-2.09 -2.43,-4.57 0.46,-5.25 -0.42,-10.05 -4.43,-14.02 -5.34,-5.29 -11.08,-10.03 -17.13,-14.41 h -4.37 c 0,1.18 -0.03,2.36 -0.04,3.54 5.89,4.3 11.48,8.95 16.76,14.04 3.03,2.92 4.22,6.36 3.72,10.19 -0.5,3.82 0.98,6.34 4.12,8.88 0.2,0.22 0.76,0.84 1.33,1.45 1.06,1.15 3.12,1.39 4.22,0.38 1.41,-1.29 2.79,-2.62 4.07,-4.04 1.5,-1.67 2.06,-3.57 1.81,-5.94 -0.43,-4.03 0.15,-7.87 3.59,-10.74 5.49,-4.59 10.74,-9.46 16.38,-13.85 0.01,-1.3 0.05,-2.6 0.05,-3.91 h -4.09 z"
     id="path5" />
</svg>
